Caladea-RegularIt.ufo
<glyph name="exclam" format="1">
  <advance width="280"/>
  <unicode hex="0021"/>
  <outline>
    <contour>
      <point x="160" y="212" type="line"/>
      <point x="188" y="355"/>
      <point x="269" y="529"/>
      <point x="269" y="613" type="curve" smooth="yes"/>
      <point x="269" y="644"/>
      <point x="257" y="663"/>
      <point x="223" y="663" type="curve" smooth="yes"/>
      <point x="185" y="663"/>
      <point x="161" y="646"/>
      <point x="161" y="646" type="curve"/>
      <point x="162" y="636"/>
      <point x="162" y="625"/>
      <point x="162" y="613" type="curve" smooth="yes"/>
      <point x="162" y="491"/>
      <point x="124" y="311"/>
      <point x="106" y="203" type="curve"/>
    </contour>
    <contour>
      <point x="118" y="109" type="curve" smooth="yes"/>
      <point x="80" y="109"/>
      <point x="58" y="74"/>
      <point x="58" y="36" type="curve" smooth="yes"/>
      <point x="58" y="11"/>
      <point x="75" y="-7"/>
      <point x="101" y="-7" type="curve" smooth="yes"/>
      <point x="139" y="-7"/>
      <point x="161" y="28"/>
      <point x="161" y="66" type="curve" smooth="yes"/>
      <point x="161" y="91"/>
      <point x="143" y="109"/>
    </contour>
  </outline>
</glyph>
<glyph name="quotedbl" format="1">
  <advance width="389"/>
  <unicode hex="0022"/>
  <outline>
    <contour>
      <point x="132" y="477" type="line"/>
      <point x="176" y="467" type="line"/>
      <point x="189" y="505"/>
      <point x="224" y="601"/>
      <point x="224" y="637" type="curve" smooth="yes"/>
      <point x="224" y="660"/>
      <point x="210" y="674"/>
      <point x="187" y="674" type="curve" smooth="yes"/>
      <point x="152" y="674"/>
      <point x="132" y="647"/>
      <point x="132" y="616" type="curve" smooth="yes"/>
    </contour>
    <contour>
      <point x="292" y="477" type="line"/>
      <point x="336" y="467" type="line"/>
      <point x="349" y="505"/>
      <point x="384" y="601"/>
      <point x="384" y="637" type="curve" smooth="yes"/>
      <point x="384" y="660"/>
      <point x="370" y="674"/>
      <point x="347" y="674" type="curve" smooth="yes"/>
      <point x="312" y="674"/>
      <point x="292" y="647"/>
      <point x="292" y="616" type="curve" smooth="yes"/>
    </contour>
  </outline>
</glyph>
<glyph name="numbersign" format="1">
  <advance width="619"/>
  <unicode hex="0023"/>
  <outline>
    <contour>
      <point x="271" y="5" type="line"/>
      <point x="319" y="-7" type="line"/>
      <point x="388" y="174" type="line"/>
      <point x="496" y="174" type="line"/>
      <point x="515" y="227" type="line"/>
      <point x="408" y="227" type="line"/>
      <point x="455" y="353" type="line"/>
      <point x="577" y="353" type="line"/>
      <point x="595" y="406" type="line"/>
      <point x="475" y="406" type="line"/>
      <point x="539" y="573" type="line"/>
      <point x="490" y="585" type="line"/>
      <point x="422" y="406" type="line"/>
      <point x="298" y="406" type="line"/>
      <point x="362" y="573" type="line"/>
      <point x="313" y="585" type="line"/>
      <point x="245" y="406" type="line"/>
      <point x="137" y="406" type="line"/>
      <point x="119" y="353" type="line"/>
      <point x="225" y="353" type="line"/>
      <point x="178" y="227" type="line"/>
      <point x="57" y="227" type="line"/>
      <point x="38" y="174" type="line"/>
      <point x="158" y="174" type="line"/>
      <point x="94" y="5" type="line"/>
      <point x="142" y="-7" type="line"/>
      <point x="211" y="174" type="line"/>
      <point x="335" y="174" type="line"/>
    </contour>
    <contour>
      <point x="278" y="353" type="line"/>
      <point x="402" y="353" type="line"/>
      <point x="355" y="227" type="line"/>
      <point x="231" y="227" type="line"/>
    </contour>
  </outline>
</glyph>
<glyph name="dollar" format="1">
  <advance width="488"/>
  <unicode hex="0024"/>
  <outline>
    <contour>
      <point x="305" y="726" type="line"/>
      <point x="290" y="635" type="line"/>
      <point x="171" y="629"/>
      <point x="99" y="543"/>
      <point x="99" y="451" type="curve" smooth="yes"/>
      <point x="99" y="362"/>
      <point x="172" y="332"/>
      <point x="237" y="303" type="curve"/>
      <point x="202" y="79" type="line"/>
      <point x="152" y="80"/>
      <point x="122" y="106"/>
      <point x="122" y="144" type="curve" smooth="yes"/>
      <point x="122" y="156"/>
      <point x="125" y="171"/>
      <point x="134" y="191" type="curve"/>
      <point x="126" y="202"/>
      <point x="109" y="209"/>
      <point x="94" y="209" type="curve" smooth="yes"/>
      <point x="55" y="209"/>
      <point x="29" y="179"/>
      <point x="29" y="139" type="curve" smooth="yes"/>
      <point x="29" y="71"/>
      <point x="89" y="32"/>
      <point x="194" y="32" type="curve"/>
      <point x="180" y="-59" type="line"/>
      <point x="191" y="-62"/>
      <point x="202" y="-64"/>
      <point x="214" y="-64" type="curve"/>
      <point x="220" y="-58" type="line"/>
      <point x="234" y="34" type="line"/>
      <point x="342" y="49"/>
      <point x="423" y="125"/>
      <point x="423" y="236" type="curve" smooth="yes"/>
      <point x="423" y="322"/>
      <point x="354" y="355"/>
      <point x="290" y="384" type="curve"/>
      <point x="322" y="585" type="line"/>
      <point x="356" y="579"/>
      <point x="378" y="559"/>
      <point x="378" y="530" type="curve" smooth="yes"/>
      <point x="378" y="513"/>
      <point x="370" y="496"/>
      <point x="361" y="483" type="curve"/>
      <point x="374" y="472"/>
      <point x="390" y="467"/>
      <point x="407" y="467" type="curve" smooth="yes"/>
      <point x="434" y="467"/>
      <point x="461" y="496"/>
      <point x="461" y="539" type="curve" smooth="yes"/>
      <point x="461" y="587"/>
      <point x="407" y="626"/>
      <point x="330" y="634" type="curve"/>
      <point x="345" y="728" type="line"/>
      <point x="334" y="730"/>
      <point x="323" y="732"/>
      <point x="312" y="732" type="curve"/>
    </contour>
    <contour>
      <point x="185" y="478" type="curve" smooth="yes"/>
      <point x="185" y="541"/>
      <point x="226" y="579"/>
      <point x="282" y="586" type="curve"/>
      <point x="253" y="401" type="line"/>
      <point x="214" y="420"/>
      <point x="185" y="441"/>
    </contour>
    <contour>
      <point x="334" y="198" type="curve" smooth="yes"/>
      <point x="334" y="132"/>
      <point x="292" y="94"/>
      <point x="242" y="83" type="curve"/>
      <point x="274" y="284" type="line"/>
      <point x="308" y="264"/>
      <point x="334" y="240"/>
    </contour>
  </outline>
</glyph>
<glyph name="percent" format="1">
  <advance width="858"/>
  <unicode hex="0025"/>
  <outline>
    <contour>
      <point x="137" y="-19" type="line"/>
      <point x="184" y="-49" type="line"/>
      <point x="747" y="676" type="line"/>
      <point x="701" y="706" type="line"/>
    </contour>
    <contour>
      <point x="202" y="341" type="curve" smooth="yes"/>
      <point x="159" y="341"/>
      <point x="145" y="369"/>
      <point x="145" y="418" type="curve" smooth="yes"/>
      <point x="145" y="509"/>
      <point x="171" y="643"/>
      <point x="250" y="643" type="curve" smooth="yes"/>
      <point x="293" y="643"/>
      <point x="307" y="615"/>
      <point x="307" y="567" type="curve" smooth="yes"/>
      <point x="307" y="476"/>
      <point x="282" y="341"/>
    </contour>
    <contour>
      <point x="196" y="302" type="curve" smooth="yes"/>
      <point x="304" y="302"/>
      <point x="372" y="402"/>
      <point x="372" y="550" type="curve" smooth="yes"/>
      <point x="372" y="633"/>
      <point x="336" y="682"/>
      <point x="256" y="682" type="curve" smooth="yes"/>
      <point x="150" y="682"/>
      <point x="80" y="584"/>
      <point x="80" y="435" type="curve" smooth="yes"/>
      <point x="80" y="352"/>
      <point x="116" y="302"/>
    </contour>
    <contour>
      <point x="635" y="33" type="curve" smooth="yes"/>
      <point x="592" y="33"/>
      <point x="578" y="61"/>
      <point x="578" y="110" type="curve" smooth="yes"/>
      <point x="578" y="201"/>
      <point x="604" y="335"/>
      <point x="683" y="335" type="curve" smooth="yes"/>
      <point x="726" y="335"/>
      <point x="740" y="307"/>
      <point x="740" y="259" type="curve" smooth="yes"/>
      <point x="740" y="168"/>
      <point x="715" y="33"/>
    </contour>
    <contour>
      <point x="629" y="-6" type="curve" smooth="yes"/>
      <point x="737" y="-6"/>
      <point x="805" y="94"/>
      <point x="805" y="242" type="curve" smooth="yes"/>
      <point x="805" y="325"/>
      <point x="769" y="374"/>
      <point x="689" y="374" type="curve" smooth="yes"/>
      <point x="583" y="374"/>
      <point x="513" y="276"/>
      <point x="513" y="127" type="curve" smooth="yes"/>
      <point x="513" y="44"/>
      <point x="549" y="-6"/>
    </contour>
  </outline>
</glyph>
<glyph name="ampersand" format="1">
  <advance width="659"/>
  <unicode hex="0026"/>
  <outline>
    <contour>
      <point x="37" y="177" type="curve" smooth="yes"/>
      <point x="37" y="61"/>
      <point x="115" y="-8"/>
      <point x="282" y="-8" type="curve" smooth="yes"/>
      <point x="505" y="-8"/>
      <point x="614" y="187"/>
      <point x="571" y="377" type="curve"/>
      <point x="662" y="410"/>
      <point x="688" y="442"/>
      <point x="688" y="490" type="curve" smooth="yes"/>
      <point x="688" y="558"/>
      <point x="621" y="581"/>
      <point x="588" y="523" type="curve"/>
      <point x="599" y="515"/>
      <point x="610" y="500"/>
      <point x="610" y="489" type="curve" smooth="yes"/>
      <point x="610" y="460"/>
      <point x="580" y="425"/>
      <point x="508" y="405" type="curve" smooth="yes"/>
      <point x="416" y="380"/>
      <point x="384" y="346"/>
      <point x="384" y="308" type="curve" smooth="yes"/>
      <point x="384" y="276"/>
      <point x="404" y="254"/>
      <point x="436" y="251" type="curve"/>
      <point x="417" y="312"/>
      <point x="482" y="348"/>
      <point x="524" y="361" type="curve"/>
      <point x="573" y="162"/>
      <point x="429" y="53"/>
      <point x="290" y="53" type="curve" smooth="yes"/>
      <point x="196" y="53"/>
      <point x="133" y="99"/>
      <point x="133" y="190" type="curve" smooth="yes"/>
      <point x="133" y="286"/>
      <point x="201" y="351"/>
      <point x="305" y="364" type="curve"/>
      <point x="310" y="412" type="line"/>
      <point x="231" y="414"/>
      <point x="208" y="462"/>
      <point x="208" y="504" type="curve" smooth="yes"/>
      <point x="208" y="578"/>
      <point x="260" y="631"/>
      <point x="328" y="631" type="curve" smooth="yes"/>
      <point x="408" y="631"/>
      <point x="426" y="567"/>
      <point x="386" y="518" type="curve"/>
      <point x="392" y="502"/>
      <point x="411" y="486"/>
      <point x="429" y="486" type="curve" smooth="yes"/>
      <point x="464" y="486"/>
      <point x="492" y="516"/>
      <point x="492" y="565" type="curve" smooth="yes"/>
      <point x="492" y="651"/>
      <point x="409" y="670"/>
      <point x="323" y="670" type="curve" smooth="yes"/>
      <point x="213" y="670"/>
      <point x="122" y="613"/>
      <point x="122" y="503" type="curve" smooth="yes"/>
      <point x="122" y="448"/>
      <point x="148" y="407"/>
      <point x="191" y="386" type="curve"/>
      <point x="122" y="366"/>
      <point x="37" y="299"/>
    </contour>
  </outline>
</glyph>
<glyph name="quotesingle" format="1">
  <advance width="234"/>
  <unicode hex="0027"/>
  <outline>
    <contour>
      <point x="128" y="477" type="line"/>
      <point x="172" y="467" type="line"/>
      <point x="185" y="505"/>
      <point x="220" y="601"/>
      <point x="220" y="637" type="curve" smooth="yes"/>
      <point x="220" y="660"/>
      <point x="206" y="674"/>
      <point x="183" y="674" type="curve" smooth="yes"/>
      <point x="148" y="674"/>
      <point x="128" y="647"/>
      <point x="128" y="616" type="curve" smooth="yes"/>
    </contour>
  </outline>
</glyph>
<glyph name="parenleft" format="1">
  <advance width="372"/>
  <unicode hex="0028"/>
  <outline>
    <contour>
      <point x="241" y="-145" type="curve"/>
      <point x="269" y="-119" type="line"/>
      <point x="205" y="-38"/>
      <point x="173" y="56"/>
      <point x="173" y="164" type="curve" smooth="yes"/>
      <point x="173" y="365"/>
      <point x="254" y="549"/>
      <point x="402" y="682" type="curve"/>
      <point x="376" y="710" type="line"/>
      <point x="189" y="575"/>
      <point x="90" y="395"/>
      <point x="90" y="193" type="curve" smooth="yes"/>
      <point x="90" y="-34"/>
      <point x="241" y="-145"/>
    </contour>
  </outline>
</glyph>
<glyph name="parenright" format="1">
  <advance width="372"/>
  <unicode hex="0029"/>
  <outline>
    <contour>
      <point x="139" y="710" type="curve"/>
      <point x="111" y="684" type="line"/>
      <point x="175" y="601"/>
      <point x="207" y="508"/>
      <point x="207" y="401" type="curve" smooth="yes"/>
      <point x="207" y="199"/>
      <point x="125" y="14"/>
      <point x="-22" y="-117" type="curve"/>
      <point x="4" y="-145" type="line"/>
      <point x="187" y="-14"/>
      <point x="290" y="172"/>
      <point x="290" y="372" type="curve" smooth="yes"/>
      <point x="290" y="599"/>
      <point x="139" y="710"/>
    </contour>
  </outline>
</glyph>
<glyph name="asterisk" format="1">
  <advance width="415"/>
  <unicode hex="002A"/>
  <outline>
    <contour>
      <point x="227" y="408" type="curve"/>
      <point x="240" y="427"/>
      <point x="234" y="456"/>
      <point x="264" y="504" type="curve"/>
      <point x="269" y="486"/>
      <point x="271" y="471"/>
      <point x="271" y="458" type="curve" smooth="yes"/>
      <point x="271" y="444"/>
      <point x="270" y="433"/>
      <point x="270" y="424" type="curve" smooth="yes"/>
      <point x="270" y="401"/>
      <point x="283" y="389"/>
      <point x="300" y="389" type="curve" smooth="yes"/>
      <point x="324" y="389"/>
      <point x="343" y="410"/>
      <point x="343" y="431" type="curve" smooth="yes"/>
      <point x="343" y="436"/>
      <point x="342" y="440"/>
      <point x="341" y="445" type="curve"/>
      <point x="333" y="464"/>
      <point x="303" y="469"/>
      <point x="279" y="512" type="curve"/>
      <point x="328" y="507"/>
      <point x="348" y="484"/>
      <point x="371" y="484" type="curve" smooth="yes"/>
      <point x="393" y="484"/>
      <point x="413" y="503"/>
      <point x="413" y="526" type="curve" smooth="yes"/>
      <point x="413" y="544"/>
      <point x="401" y="557"/>
      <point x="382" y="557" type="curve" smooth="yes"/>
      <point x="359" y="557"/>
      <point x="332" y="534"/>
      <point x="283" y="529" type="curve"/>
      <point x="330" y="582"/>
      <point x="374" y="582"/>
      <point x="374" y="621" type="curve" smooth="yes"/>
      <point x="374" y="637"/>
      <point x="360" y="651"/>
      <point x="342" y="651" type="curve" smooth="yes"/>
      <point x="330" y="651"/>
      <point x="317" y="645"/>
      <point x="308" y="633" type="curve" smooth="yes"/>
      <point x="294" y="613"/>
      <point x="296" y="581"/>
      <point x="270" y="538" type="curve"/>
      <point x="265" y="555"/>
      <point x="264" y="571"/>
      <point x="264" y="585" type="curve" smooth="yes"/>
      <point x="264" y="595"/>
      <point x="265" y="604"/>
      <point x="265" y="612" type="curve" smooth="yes"/>
      <point x="265" y="638"/>
      <point x="254" y="651"/>
      <point x="234" y="651" type="curve" smooth="yes"/>
      <point x="208" y="651"/>
      <point x="190" y="630"/>
      <point x="190" y="611" type="curve" smooth="yes"/>
      <point x="190" y="578"/>
      <point x="227" y="578"/>
      <point x="254" y="528" type="curve"/>
      <point x="203" y="533"/>
      <point x="186" y="557"/>
      <point x="164" y="557" type="curve" smooth="yes"/>
      <point x="141" y="557"/>
      <point x="122" y="539"/>
      <point x="122" y="514" type="curve" smooth="yes"/>
      <point x="122" y="497"/>
      <point x="134" y="484"/>
      <point x="152" y="484" type="curve" smooth="yes"/>
      <point x="175" y="484"/>
      <point x="198" y="507"/>
      <point x="251" y="512" type="curve"/>
      <point x="201" y="453"/>
      <point x="160" y="460"/>
      <point x="160" y="419" type="curve" smooth="yes"/>
      <point x="160" y="405"/>
      <point x="173" y="389"/>
      <point x="192" y="389" type="curve" smooth="yes"/>
      <point x="204" y="389"/>
      <point x="217" y="396"/>
    </contour>
  </outline>
</glyph>
<glyph name="plus" format="1">
  <advance width="528"/>
  <unicode hex="002B"/>
  <outline>
    <contour>
      <point x="55" y="259" type="line"/>
      <point x="227" y="259" type="line"/>
      <point x="199" y="82" type="line"/>
      <point x="259" y="82" type="line"/>
      <point x="287" y="259" type="line"/>
      <point x="464" y="259" type="line"/>
      <point x="473" y="312" type="line"/>
      <point x="296" y="312" type="line"/>
      <point x="324" y="490" type="line"/>
      <point x="264" y="490" type="line"/>
      <point x="236" y="312" type="line"/>
      <point x="64" y="312" type="line"/>
    </contour>
  </outline>
</glyph>
<glyph name="comma" format="1">
  <advance width="199"/>
  <unicode hex="002C"/>
  <outline>
    <contour>
      <point x="7" y="11" type="curve"/>
      <point x="12" y="12"/>
      <point x="15" y="13"/>
      <point x="19" y="13" type="curve" smooth="yes"/>
      <point x="30" y="13"/>
      <point x="36" y="7"/>
      <point x="36" y="-7" type="curve" smooth="yes"/>
      <point x="36" y="-36"/>
      <point x="13" y="-80"/>
      <point x="-26" y="-106" type="curve"/>
      <point x="-5" y="-135" type="line"/>
      <point x="65" y="-95"/>
      <point x="122" y="-30"/>
      <point x="122" y="42" type="curve" smooth="yes"/>
      <point x="122" y="77"/>
      <point x="102" y="99"/>
      <point x="69" y="99" type="curve" smooth="yes"/>
      <point x="28" y="99"/>
      <point x="1" y="71"/>
      <point x="1" y="35" type="curve" smooth="yes"/>
      <point x="1" y="21"/>
      <point x="7" y="11"/>
    </contour>
  </outline>
</glyph>
<glyph name="hyphen" format="1">
  <advance width="319"/>
  <unicode hex="002D"/>
  <outline>
    <contour>
      <point x="46" y="231" type="line"/>
      <point x="265" y="231" type="line"/>
      <point x="273" y="285" type="line"/>
      <point x="54" y="285" type="line"/>
    </contour>
  </outline>
</glyph>
<glyph name="period" format="1">
  <advance width="199"/>
  <unicode hex="002E"/>
  <outline>
    <contour>
      <point x="68" y="109" type="curve" smooth="yes"/>
      <point x="30" y="109"/>
      <point x="8" y="74"/>
      <point x="8" y="36" type="curve" smooth="yes"/>
      <point x="8" y="11"/>
      <point x="25" y="-7"/>
      <point x="51" y="-7" type="curve" smooth="yes"/>
      <point x="89" y="-7"/>
      <point x="111" y="28"/>
      <point x="111" y="66" type="curve" smooth="yes"/>
      <point x="111" y="91"/>
      <point x="93" y="109"/>
    </contour>
  </outline>
</glyph>
<glyph name="slash" format="1">
  <advance width="466"/>
  <unicode hex="002F"/>
  <outline>
    <contour>
      <point x="11" y="-112" type="line"/>
      <point x="63" y="-132" type="line"/>
      <point x="505" y="678" type="line"/>
      <point x="452" y="699" type="line"/>
    </contour>
  </outline>
</glyph>
<glyph name="zero" format="1">
  <advance width="528"/>
  <unicode hex="0030"/>
  <outline>
    <contour>
      <point x="307" y="622" type="curve" smooth="yes"/>
      <point x="382" y="622"/>
      <point x="403" y="557"/>
      <point x="403" y="476" type="curve" smooth="yes"/>
      <point x="403" y="326"/>
      <point x="363" y="42"/>
      <point x="223" y="42" type="curve" smooth="yes"/>
      <point x="147" y="42"/>
      <point x="127" y="107"/>
      <point x="127" y="189" type="curve" smooth="yes"/>
      <point x="127" y="339"/>
      <point x="167" y="622"/>
    </contour>
    <contour>
      <point x="316" y="671" type="curve" smooth="yes"/>
      <point x="134" y="671"/>
      <point x="35" y="448"/>
      <point x="35" y="224" type="curve" smooth="yes"/>
      <point x="35" y="80"/>
      <point x="92" y="-7"/>
      <point x="213" y="-7" type="curve" smooth="yes"/>
      <point x="395" y="-7"/>
      <point x="494" y="215"/>
      <point x="494" y="440" type="curve" smooth="yes"/>
      <point x="494" y="584"/>
      <point x="437" y="671"/>
    </contour>
  </outline>
</glyph>
<glyph name="one" format="1">
  <advance width="528"/>
  <unicode hex="0031"/>
  <outline>
    <contour>
      <point x="76" y="0" type="line"/>
      <point x="422" y="0" type="line"/>
      <point x="426" y="37" type="line"/>
      <point x="394" y="40"/>
      <point x="340" y="47"/>
      <point x="308" y="63" type="curve"/>
      <point x="402" y="657" type="line"/>
      <point x="370" y="671" type="line"/>
      <point x="311" y="645"/>
      <point x="239" y="623"/>
      <point x="151" y="616" type="curve"/>
      <point x="145" y="573" type="line"/>
      <point x="301" y="573" type="line"/>
      <point x="220" y="63" type="line"/>
      <point x="183" y="46"/>
      <point x="113" y="39"/>
      <point x="81" y="37" type="curve"/>
    </contour>
  </outline>
</glyph>
<glyph name="two" format="1">
  <advance width="528"/>
  <unicode hex="0032"/>
  <outline>
    <contour>
      <point x="159" y="73" type="line"/>
      <point x="420" y="272"/>
      <point x="505" y="395"/>
      <point x="505" y="519" type="curve" smooth="yes"/>
      <point x="505" y="617"/>
      <point x="436" y="671"/>
      <point x="338" y="671" type="curve" smooth="yes"/>
      <point x="225" y="671"/>
      <point x="125" y="602"/>
      <point x="125" y="508" type="curve" smooth="yes"/>
      <point x="125" y="468"/>
      <point x="150" y="453"/>
      <point x="175" y="453" type="curve" smooth="yes"/>
      <point x="195" y="453"/>
      <point x="215" y="462"/>
      <point x="230" y="475" type="curve"/>
      <point x="221" y="489"/>
      <point x="217" y="504"/>
      <point x="217" y="519" type="curve" smooth="yes"/>
      <point x="217" y="574"/>
      <point x="265" y="618"/>
      <point x="329" y="618" type="curve" smooth="yes"/>
      <point x="381" y="618"/>
      <point x="415" y="587"/>
      <point x="415" y="533" type="curve" smooth="yes"/>
      <point x="415" y="409"/>
      <point x="336" y="296"/>
      <point x="51" y="57" type="curve"/>
      <point x="42" y="0" type="line"/>
      <point x="452" y="0" type="line"/>
      <point x="462" y="73" type="line"/>
    </contour>
  </outline>
</glyph>
<glyph name="three" format="1">
  <advance width="528"/>
  <unicode hex="0033"/>
  <outline>
    <contour>
      <point x="209" y="325" type="line"/>
      <point x="310" y="325"/>
      <point x="356" y="278"/>
      <point x="356" y="209" type="curve" smooth="yes"/>
      <point x="356" y="125"/>
      <point x="309" y="46"/>
      <point x="225" y="46" type="curve" smooth="yes"/>
      <point x="161" y="46"/>
      <point x="131" y="73"/>
      <point x="131" y="111" type="curve" smooth="yes"/>
      <point x="131" y="128"/>
      <point x="137" y="146"/>
      <point x="147" y="166" type="curve"/>
      <point x="133" y="177"/>
      <point x="116" y="182"/>
      <point x="101" y="182" type="curve" smooth="yes"/>
      <point x="66" y="182"/>
      <point x="35" y="156"/>
      <point x="35" y="107" type="curve" smooth="yes"/>
      <point x="35" y="24"/>
      <point x="120" y="-7"/>
      <point x="213" y="-7" type="curve" smooth="yes"/>
      <point x="343" y="-7"/>
      <point x="446" y="85"/>
      <point x="446" y="215" type="curve" smooth="yes"/>
      <point x="446" y="278"/>
      <point x="415" y="326"/>
      <point x="334" y="348" type="curve"/>
      <point x="463" y="392"/>
      <point x="489" y="474"/>
      <point x="489" y="537" type="curve" smooth="yes"/>
      <point x="489" y="626"/>
      <point x="418" y="671"/>
      <point x="330" y="671" type="curve" smooth="yes"/>
      <point x="239" y="671"/>
      <point x="126" y="622"/>
      <point x="126" y="532" type="curve" smooth="yes"/>
      <point x="126" y="498"/>
      <point x="145" y="484"/>
      <point x="168" y="484" type="curve" smooth="yes"/>
      <point x="185" y="484"/>
      <point x="202" y="490"/>
      <point x="217" y="502" type="curve"/>
      <point x="214" y="512"/>
      <point x="213" y="522"/>
      <point x="213" y="530" type="curve" smooth="yes"/>
      <point x="213" y="587"/>
      <point x="266" y="617"/>
      <point x="318" y="617" type="curve" smooth="yes"/>
      <point x="367" y="617"/>
      <point x="395" y="591"/>
      <point x="395" y="541" type="curve" smooth="yes"/>
      <point x="395" y="429"/>
      <point x="321" y="372"/>
      <point x="216" y="369" type="curve"/>
    </contour>
  </outline>
</glyph>
<glyph name="four" format="1">
  <advance width="528"/>
  <unicode hex="0034"/>
  <outline>
    <contour>
      <point x="315" y="183" type="line"/>
      <point x="296" y="64" type="line"/>
      <point x="264" y="47"/>
      <point x="232" y="41"/>
      <point x="200" y="37" type="curve"/>
      <point x="188" y="0" type="line"/>
      <point x="456" y="0" type="line"/>
      <point x="467" y="37" type="line"/>
      <point x="438" y="41"/>
      <point x="408" y="47"/>
      <point x="384" y="64" type="curve"/>
      <point x="403" y="183" type="line"/>
      <point x="498" y="183" type="line"/>
      <point x="507" y="238" type="line"/>
      <point x="412" y="238" type="line"/>
      <point x="480" y="667" type="line"/>
      <point x="379" y="667" type="line"/>
      <point x="25" y="217" type="line"/>
      <point x="27" y="183" type="line"/>
    </contour>
    <contour>
      <point x="108" y="238" type="line"/>
      <point x="379" y="586" type="line"/>
      <point x="324" y="238" type="line"/>
    </contour>
  </outline>
</glyph>
<glyph name="five" format="1">
  <advance width="528"/>
  <unicode hex="0035"/>
  <outline>
    <contour>
      <point x="174" y="656" type="line"/>
      <point x="125" y="346" type="line"/>
      <point x="153" y="314" type="line"/>
      <point x="199" y="338"/>
      <point x="250" y="353"/>
      <point x="290" y="353" type="curve" smooth="yes"/>
      <point x="358" y="353"/>
      <point x="396" y="307"/>
      <point x="396" y="232" type="curve" smooth="yes"/>
      <point x="396" y="119"/>
      <point x="338" y="43"/>
      <point x="240" y="43" type="curve" smooth="yes"/>
      <point x="187" y="43"/>
      <point x="154" y="72"/>
      <point x="154" y="116" type="curve" smooth="yes"/>
      <point x="154" y="134"/>
      <point x="159" y="146"/>
      <point x="171" y="169" type="curve"/>
      <point x="159" y="180"/>
      <point x="142" y="185"/>
      <point x="124" y="185" type="curve" smooth="yes"/>
      <point x="84" y="185"/>
      <point x="56" y="155"/>
      <point x="56" y="109" type="curve" smooth="yes"/>
      <point x="56" y="40"/>
      <point x="125" y="-8"/>
      <point x="229" y="-8" type="curve" smooth="yes"/>
      <point x="374" y="-8"/>
      <point x="483" y="93"/>
      <point x="483" y="234" type="curve" smooth="yes"/>
      <point x="483" y="341"/>
      <point x="417" y="410"/>
      <point x="307" y="410" type="curve" smooth="yes"/>
      <point x="270" y="410"/>
      <point x="232" y="401"/>
      <point x="194" y="384" type="curve"/>
      <point x="227" y="596" type="line"/>
      <point x="496" y="596" type="line"/>
      <point x="514" y="655" type="line"/>
      <point x="496" y="669" type="line"/>
      <point x="447" y="668"/>
      <point x="402" y="668"/>
      <point x="339" y="668" type="curve" smooth="yes"/>
      <point x="296" y="668"/>
      <point x="279" y="668"/>
      <point x="196" y="670" type="curve"/>
    </contour>
  </outline>
</glyph>
<glyph name="six" format="1">
  <advance width="528"/>
  <unicode hex="0036"/>
  <outline>
    <contour>
      <point x="471" y="628" type="curve"/>
      <point x="461" y="671" type="line"/>
      <point x="197" y="617"/>
      <point x="60" y="447"/>
      <point x="60" y="206" type="curve" smooth="yes"/>
      <point x="60" y="65"/>
      <point x="133" y="-12"/>
      <point x="248" y="-12" type="curve" smooth="yes"/>
      <point x="385" y="-12"/>
      <point x="490" y="84"/>
      <point x="490" y="221" type="curve" smooth="yes"/>
      <point x="490" y="323"/>
      <point x="416" y="389"/>
      <point x="323" y="389" type="curve" smooth="yes"/>
      <point x="267" y="389"/>
      <point x="210" y="366"/>
      <point x="164" y="336" type="curve"/>
      <point x="195" y="483"/>
      <point x="289" y="585"/>
    </contour>
    <contour>
      <point x="301" y="331" type="curve" smooth="yes"/>
      <point x="354" y="331"/>
      <point x="398" y="296"/>
      <point x="398" y="219" type="curve" smooth="yes"/>
      <point x="398" y="108"/>
      <point x="338" y="39"/>
      <point x="257" y="39" type="curve" smooth="yes"/>
      <point x="189" y="39"/>
      <point x="151" y="93"/>
      <point x="151" y="206" type="curve" smooth="yes"/>
      <point x="151" y="230"/>
      <point x="152" y="253"/>
      <point x="154" y="275" type="curve"/>
      <point x="194" y="303"/>
      <point x="251" y="331"/>
    </contour>
  </outline>
</glyph>
<glyph name="seven" format="1">
  <advance width="528"/>
  <unicode hex="0037"/>
  <outline>
    <contour>
      <point x="548" y="668" type="line"/>
      <point x="548" y="668"/>
      <point x="448" y="667"/>
      <point x="338" y="667" type="curve" smooth="yes"/>
      <point x="237" y="667"/>
      <point x="147" y="668"/>
      <point x="147" y="668" type="curve"/>
      <point x="130" y="653" type="line"/>
      <point x="128" y="640"/>
      <point x="126" y="612"/>
      <point x="124" y="570" type="curve" smooth="yes"/>
      <point x="122" y="539"/>
      <point x="122" y="510"/>
      <point x="119" y="486" type="curve"/>
      <point x="127" y="485"/>
      <point x="133" y="484"/>
      <point x="139" y="484" type="curve" smooth="yes"/>
      <point x="148" y="484"/>
      <point x="152" y="484"/>
      <point x="157" y="485" type="curve"/>
      <point x="160" y="486" type="line"/>
      <point x="168" y="524"/>
      <point x="181" y="560"/>
      <point x="198" y="594" type="curve"/>
      <point x="460" y="594" type="line"/>
      <point x="118" y="0" type="line"/>
      <point x="207" y="0" type="line"/>
      <point x="559" y="625" type="line"/>
    </contour>
  </outline>
</glyph>
<glyph name="eight" format="1">
  <advance width="528"/>
  <unicode hex="0038"/>
  <outline>
    <contour>
      <point x="44" y="136" type="curve" smooth="yes"/>
      <point x="44" y="41"/>
      <point x="116" y="-7"/>
      <point x="233" y="-7" type="curve" smooth="yes"/>
      <point x="370" y="-7"/>
      <point x="475" y="78"/>
      <point x="475" y="215" type="curve" smooth="yes"/>
      <point x="475" y="292"/>
      <point x="429" y="333"/>
      <point x="375" y="363" type="curve"/>
      <point x="452" y="406"/>
      <point x="498" y="470"/>
      <point x="498" y="540" type="curve" smooth="yes"/>
      <point x="498" y="621"/>
      <point x="439" y="671"/>
      <point x="340" y="671" type="curve" smooth="yes"/>
      <point x="218" y="671"/>
      <point x="122" y="590"/>
      <point x="122" y="469" type="curve" smooth="yes"/>
      <point x="122" y="410"/>
      <point x="153" y="376"/>
      <point x="193" y="352" type="curve"/>
      <point x="142" y="324"/>
      <point x="44" y="255"/>
    </contour>
    <contour>
      <point x="384" y="196" type="curve" smooth="yes"/>
      <point x="384" y="107"/>
      <point x="321" y="42"/>
      <point x="241" y="42" type="curve" smooth="yes"/>
      <point x="173" y="42"/>
      <point x="135" y="80"/>
      <point x="135" y="144" type="curve" smooth="yes"/>
      <point x="135" y="226"/>
      <point x="178" y="286"/>
      <point x="244" y="326" type="curve"/>
      <point x="312" y="295"/>
      <point x="384" y="272"/>
    </contour>
    <contour>
      <point x="210" y="498" type="curve" smooth="yes"/>
      <point x="210" y="572"/>
      <point x="264" y="623"/>
      <point x="331" y="623" type="curve" smooth="yes"/>
      <point x="379" y="623"/>
      <point x="413" y="592"/>
      <point x="413" y="538" type="curve" smooth="yes"/>
      <point x="413" y="474"/>
      <point x="383" y="425"/>
      <point x="325" y="388" type="curve"/>
      <point x="265" y="416"/>
      <point x="210" y="442"/>
    </contour>
  </outline>
</glyph>
<glyph name="nine" format="1">
  <advance width="528"/>
  <unicode hex="0039"/>
  <outline>
    <contour>
      <point x="96" y="31" type="curve"/>
      <point x="106" y="-12" type="line"/>
      <point x="370" y="42"/>
      <point x="507" y="212"/>
      <point x="507" y="453" type="curve" smooth="yes"/>
      <point x="507" y="594"/>
      <point x="434" y="671"/>
      <point x="319" y="671" type="curve" smooth="yes"/>
      <point x="182" y="671"/>
      <point x="77" y="575"/>
      <point x="77" y="438" type="curve" smooth="yes"/>
      <point x="77" y="336"/>
      <point x="151" y="270"/>
      <point x="244" y="270" type="curve" smooth="yes"/>
      <point x="300" y="270"/>
      <point x="357" y="293"/>
      <point x="403" y="323" type="curve"/>
      <point x="372" y="176"/>
      <point x="278" y="74"/>
    </contour>
    <contour>
      <point x="266" y="328" type="curve" smooth="yes"/>
      <point x="213" y="328"/>
      <point x="169" y="363"/>
      <point x="169" y="440" type="curve" smooth="yes"/>
      <point x="169" y="551"/>
      <point x="229" y="620"/>
      <point x="310" y="620" type="curve" smooth="yes"/>
      <point x="378" y="620"/>
      <point x="416" y="566"/>
      <point x="416" y="453" type="curve" smooth="yes"/>
      <point x="416" y="429"/>
      <point x="415" y="406"/>
      <point x="413" y="384" type="curve"/>
      <point x="373" y="356"/>
      <point x="316" y="328"/>
    </contour>
  </outline>
</glyph>
<glyph name="colon" format="1">
  <advance width="259"/>
  <unicode hex="003A"/>
  <outline>
    <contour>
      <point x="100" y="109" type="curve" smooth="yes"/>
      <point x="62" y="109"/>
      <point x="40" y="74"/>
      <point x="40" y="36" type="curve" smooth="yes"/>
      <point x="40" y="11"/>
      <point x="57" y="-7"/>
      <point x="83" y="-7" type="curve" smooth="yes"/>
      <point x="121" y="-7"/>
      <point x="143" y="28"/>
      <point x="143" y="66" type="curve" smooth="yes"/>
      <point x="143" y="91"/>
      <point x="125" y="109"/>
    </contour>
    <contour>
      <point x="153" y="443" type="curve" smooth="yes"/>
      <point x="115" y="443"/>
      <point x="93" y="408"/>
      <point x="93" y="370" type="curve" smooth="yes"/>
      <point x="93" y="345"/>
      <point x="110" y="327"/>
      <point x="136" y="327" type="curve" smooth="yes"/>
      <point x="174" y="327"/>
      <point x="196" y="362"/>
      <point x="196" y="400" type="curve" smooth="yes"/>
      <point x="196" y="425"/>
      <point x="178" y="443"/>
    </contour>
  </outline>
</glyph>
<glyph name="semicolon" format="1">
  <advance width="259"/>
  <unicode hex="003B"/>
  <outline>
    <contour>
      <point x="170" y="443" type="curve" smooth="yes"/>
      <point x="132" y="443"/>
      <point x="110" y="408"/>
      <point x="110" y="370" type="curve" smooth="yes"/>
      <point x="110" y="345"/>
      <point x="127" y="327"/>
      <point x="153" y="327" type="curve" smooth="yes"/>
      <point x="191" y="327"/>
      <point x="213" y="362"/>
      <point x="213" y="400" type="curve" smooth="yes"/>
      <point x="213" y="425"/>
      <point x="195" y="443"/>
    </contour>
    <contour>
      <point x="52" y="11" type="curve"/>
      <point x="57" y="12"/>
      <point x="60" y="13"/>
      <point x="64" y="13" type="curve" smooth="yes"/>
      <point x="75" y="13"/>
      <point x="81" y="7"/>
      <point x="81" y="-7" type="curve" smooth="yes"/>
      <point x="81" y="-36"/>
      <point x="58" y="-80"/>
      <point x="19" y="-106" type="curve"/>
      <point x="40" y="-135" type="line"/>
      <point x="110" y="-95"/>
      <point x="167" y="-30"/>
      <point x="167" y="42" type="curve" smooth="yes"/>
      <point x="167" y="77"/>
      <point x="147" y="99"/>
      <point x="114" y="99" type="curve" smooth="yes"/>
      <point x="73" y="99"/>
      <point x="46" y="71"/>
      <point x="46" y="35" type="curve" smooth="yes"/>
      <point x="46" y="21"/>
      <point x="52" y="11"/>
    </contour>
  </outline>
</glyph>
<glyph name="less" format="1">
  <advance width="528"/>
  <unicode hex="003C"/>
  <outline>
    <contour>
      <point x="47" y="260" type="line"/>
      <point x="402" y="79" type="line"/>
      <point x="435" y="129" type="line"/>
      <point x="131" y="286" type="line"/>
      <point x="484" y="442" type="line"/>
      <point x="467" y="493" type="line"/>
      <point x="56" y="312" type="line"/>
    </contour>
  </outline>
</glyph>
<glyph name="equal" format="1">
  <advance width="528"/>
  <unicode hex="003D"/>
  <outline>
    <contour>
      <point x="34" y="187" type="line"/>
      <point x="464" y="187" type="line"/>
      <point x="472" y="240" type="line"/>
      <point x="42" y="240" type="line"/>
    </contour>
    <contour>
      <point x="57" y="331" type="line"/>
      <point x="487" y="331" type="line"/>
      <point x="495" y="383" type="line"/>
      <point x="65" y="383" type="line"/>
    </contour>
  </outline>
</glyph>
<glyph name="greater" format="1">
  <advance width="528"/>
  <unicode hex="003E"/>
  <outline>
    <contour>
      <point x="481" y="312" type="line"/>
      <point x="126" y="493" type="line"/>
      <point x="93" y="443" type="line"/>
      <point x="397" y="286" type="line"/>
      <point x="44" y="130" type="line"/>
      <point x="61" y="79" type="line"/>
      <point x="472" y="260" type="line"/>
    </contour>
  </outline>
</glyph>
<glyph name="question" format="1">
  <advance width="407"/>
  <unicode hex="003F"/>
  <outline>
    <contour>
      <point x="124" y="251" type="curve" smooth="yes"/>
      <point x="124" y="224"/>
      <point x="136" y="203"/>
      <point x="164" y="203" type="curve" smooth="yes"/>
      <point x="181" y="203"/>
      <point x="199" y="211"/>
      <point x="210" y="219" type="curve"/>
      <point x="210" y="225"/>
      <point x="209" y="237"/>
      <point x="209" y="243" type="curve" smooth="yes"/>
      <point x="209" y="368"/>
      <point x="417" y="384"/>
      <point x="417" y="549" type="curve" smooth="yes"/>
      <point x="417" y="623"/>
      <point x="354" y="656"/>
      <point x="270" y="656" type="curve" smooth="yes"/>
      <point x="192" y="656"/>
      <point x="100" y="621"/>
      <point x="100" y="538" type="curve" smooth="yes"/>
      <point x="100" y="510"/>
      <point x="119" y="497"/>
      <point x="141" y="497" type="curve" smooth="yes"/>
      <point x="161" y="497"/>
      <point x="182" y="507"/>
      <point x="194" y="526" type="curve"/>
      <point x="190" y="537"/>
      <point x="187" y="546"/>
      <point x="187" y="555" type="curve" smooth="yes"/>
      <point x="187" y="592"/>
      <point x="227" y="614"/>
      <point x="267" y="614" type="curve" smooth="yes"/>
      <point x="309" y="614"/>
      <point x="338" y="587"/>
      <point x="338" y="548" type="curve" smooth="yes"/>
      <point x="338" y="416"/>
      <point x="124" y="394"/>
    </contour>
    <contour>
      <point x="158" y="109" type="curve" smooth="yes"/>
      <point x="120" y="109"/>
      <point x="98" y="74"/>
      <point x="98" y="36" type="curve" smooth="yes"/>
      <point x="98" y="11"/>
      <point x="115" y="-7"/>
      <point x="141" y="-7" type="curve" smooth="yes"/>
      <point x="179" y="-7"/>
      <point x="201" y="28"/>
      <point x="201" y="66" type="curve" smooth="yes"/>
      <point x="201" y="91"/>
      <point x="183" y="109"/>
    </contour>
  </outline>
</glyph>
<glyph name="at" format="1">
  <advance width="885"/>
  <unicode hex="0040"/>
  <outline>
    <contour>
      <point x="646" y="462" type="line"/>
      <point x="617" y="476" type="line"/>
      <point x="566" y="452" type="line"/>
      <point x="522" y="473"/>
      <point x="486" y="476"/>
      <point x="459" y="476" type="curve" smooth="yes"/>
      <point x="332" y="476"/>
      <point x="256" y="326"/>
      <point x="256" y="197" type="curve" smooth="yes"/>
      <point x="256" y="103"/>
      <point x="279" y="33"/>
      <point x="375" y="33" type="curve" smooth="yes"/>
      <point x="438" y="33"/>
      <point x="489" y="99"/>
      <point x="516" y="145" type="curve"/>
      <point x="515" y="139"/>
      <point x="514" y="125"/>
      <point x="514" y="117" type="curve" smooth="yes"/>
      <point x="514" y="66"/>
      <point x="535" y="28"/>
      <point x="597" y="28" type="curve" smooth="yes"/>
      <point x="725" y="28"/>
      <point x="850" y="180"/>
      <point x="850" y="358" type="curve" smooth="yes"/>
      <point x="850" y="525"/>
      <point x="732" y="645"/>
      <point x="513" y="645" type="curve" smooth="yes"/>
      <point x="235" y="645"/>
      <point x="44" y="424"/>
      <point x="44" y="172" type="curve" smooth="yes"/>
      <point x="44" y="-22"/>
      <point x="166" y="-142"/>
      <point x="378" y="-142" type="curve" smooth="yes"/>
      <point x="447" y="-142"/>
      <point x="511" y="-126"/>
      <point x="567" y="-94" type="curve"/>
      <point x="550" y="-59" type="line"/>
      <point x="503" y="-85"/>
      <point x="443" y="-97"/>
      <point x="385" y="-97" type="curve" smooth="yes"/>
      <point x="222" y="-97"/>
      <point x="133" y="22"/>
      <point x="133" y="180" type="curve" smooth="yes"/>
      <point x="133" y="403"/>
      <point x="293" y="602"/>
      <point x="506" y="602" type="curve" smooth="yes"/>
      <point x="687" y="602"/>
      <point x="761" y="498"/>
      <point x="761" y="363" type="curve" smooth="yes"/>
      <point x="761" y="224"/>
      <point x="694" y="75"/>
      <point x="628" y="75" type="curve" smooth="yes"/>
      <point x="596" y="75"/>
      <point x="588" y="98"/>
      <point x="588" y="124" type="curve" smooth="yes"/>
      <point x="588" y="145"/>
      <point x="593" y="167"/>
      <point x="596" y="182" type="curve" smooth="yes"/>
    </contour>
    <contour>
      <point x="542" y="354" type="line" smooth="yes"/>
      <point x="515" y="192"/>
      <point x="452" y="85"/>
      <point x="403" y="85" type="curve" smooth="yes"/>
      <point x="360" y="85"/>
      <point x="345" y="135"/>
      <point x="345" y="198" type="curve" smooth="yes"/>
      <point x="345" y="296"/>
      <point x="402" y="431"/>
      <point x="483" y="431" type="curve" smooth="yes"/>
      <point x="509" y="431"/>
      <point x="532" y="420"/>
      <point x="550" y="407" type="curve"/>
    </contour>
  </outline>
</glyph>
<glyph name="A" format="1">
  <advance width="588"/>
  <unicode hex="0041"/>
  <outline>
    <contour>
      <point x="298" y="0" type="line"/>
      <point x="563" y="0" type="line"/>
      <point x="567" y="37" type="line"/>
      <point x="544" y="41"/>
      <point x="518" y="46"/>
      <point x="496" y="62" type="curve"/>
      <point x="394" y="667" type="line"/>
      <point x="329" y="667" type="line"/>
      <point x="57" y="60" type="line"/>
      <point x="35" y="45"/>
      <point x="10" y="41"/>
      <point x="-16" y="37" type="curve"/>
      <point x="-21" y="0" type="line"/>
      <point x="214" y="0" type="line"/>
      <point x="219" y="37" type="line"/>
      <point x="187" y="41"/>
      <point x="152" y="47"/>
      <point x="124" y="62" type="curve"/>
      <point x="190" y="215" type="line"/>
      <point x="376" y="215" type="line"/>
      <point x="399" y="63" type="line"/>
      <point x="394" y="63" type="line"/>
      <point x="366" y="46"/>
      <point x="336" y="41"/>
      <point x="304" y="37" type="curve"/>
    </contour>
    <contour>
      <point x="328" y="534" type="line"/>
      <point x="368" y="267" type="line"/>
      <point x="212" y="267" type="line"/>
    </contour>
  </outline>
</glyph>
<glyph name="B" format="1">
  <advance width="596"/>
  <unicode hex="0042"/>
  <outline>
    <contour>
      <point x="136" y="667" type="line"/>
      <point x="131" y="630" type="line"/>
      <point x="163" y="626"/>
      <point x="192" y="619"/>
      <point x="217" y="604" type="curve"/>
      <point x="131" y="63" type="line"/>
      <point x="108" y="49"/>
      <point x="82" y="42"/>
      <point x="41" y="37" type="curve"/>
      <point x="35" y="0" type="line"/>
      <point x="278" y="0" type="line" smooth="yes"/>
      <point x="462" y="0"/>
      <point x="541" y="102"/>
      <point x="541" y="214" type="curve" smooth="yes"/>
      <point x="541" y="281"/>
      <point x="498" y="329"/>
      <point x="425" y="352" type="curve"/>
      <point x="521" y="375"/>
      <point x="575" y="435"/>
      <point x="575" y="531" type="curve" smooth="yes"/>
      <point x="575" y="618"/>
      <point x="509" y="667"/>
      <point x="373" y="667" type="curve" smooth="yes"/>
    </contour>
    <contour>
      <point x="309" y="327" type="line" smooth="yes"/>
      <point x="405" y="327"/>
      <point x="451" y="284"/>
      <point x="451" y="214" type="curve" smooth="yes"/>
      <point x="451" y="109"/>
      <point x="387" y="49"/>
      <point x="291" y="49" type="curve" smooth="yes"/>
      <point x="238" y="49"/>
      <point x="222" y="59"/>
      <point x="222" y="81" type="curve" smooth="yes"/>
      <point x="222" y="84"/>
      <point x="222" y="87"/>
      <point x="223" y="90" type="curve"/>
      <point x="261" y="327" type="line"/>
    </contour>
    <contour>
      <point x="364" y="620" type="curve" smooth="yes"/>
      <point x="448" y="620"/>
      <point x="487" y="592"/>
      <point x="487" y="530" type="curve" smooth="yes"/>
      <point x="487" y="426"/>
      <point x="430" y="376"/>
      <point x="327" y="376" type="curve" smooth="yes"/>
      <point x="268" y="376" type="line"/>
      <point x="300" y="578" type="line" smooth="yes"/>
      <point x="306" y="615"/>
      <point x="316" y="619"/>
    </contour>
  </outline>
</glyph>
<glyph name="C" format="1">
  <advance width="540"/>
  <unicode hex="0043"/>
  <outline>
    <contour>
      <point x="385" y="624" type="curve" smooth="yes"/>
      <point x="438" y="622"/>
      <point x="463" y="592"/>
      <point x="463" y="560" type="curve" smooth="yes"/>
      <point x="463" y="543"/>
      <point x="456" y="525"/>
      <point x="443" y="511" type="curve"/>
      <point x="445" y="488"/>
      <point x="466" y="472"/>
      <point x="493" y="472" type="curve" smooth="yes"/>
      <point x="539" y="472"/>
      <point x="559" y="520"/>
      <point x="559" y="559" type="curve" smooth="yes"/>
      <point x="559" y="620"/>
      <point x="505" y="675"/>
      <point x="395" y="675" type="curve" smooth="yes"/>
      <point x="176" y="675"/>
      <point x="70" y="479"/>
      <point x="70" y="229" type="curve" smooth="yes"/>
      <point x="70" y="71"/>
      <point x="147" y="-7"/>
      <point x="256" y="-7" type="curve" smooth="yes"/>
      <point x="349" y="-7"/>
      <point x="416" y="28"/>
      <point x="504" y="98" type="curve"/>
      <point x="472" y="141" type="line"/>
      <point x="403" y="86"/>
      <point x="340" y="51"/>
      <point x="277" y="51" type="curve" smooth="yes"/>
      <point x="212" y="51"/>
      <point x="167" y="98"/>
      <point x="167" y="213" type="curve" smooth="yes"/>
      <point x="167" y="422"/>
      <point x="236" y="623"/>
    </contour>
  </outline>
</glyph>
<glyph name="F" format="1">
  <advance width="527"/>
  <unicode hex="0046"/>
  <outline>
    <contour>
      <point x="97" y="63" type="line"/>
      <point x="69" y="46"/>
      <point x="40" y="41"/>
      <point x="7" y="37" type="curve"/>
      <point x="1" y="0" type="line"/>
      <point x="276" y="0" type="line"/>
      <point x="281" y="37" type="line"/>
      <point x="249" y="41"/>
      <point x="210" y="47"/>
      <point x="185" y="63" type="curve"/>
      <point x="224" y="311" type="line"/>
      <point x="329" y="307" type="line" smooth="yes"/>
      <point x="372" y="305"/>
      <point x="371" y="257"/>
      <point x="375" y="234" type="curve"/>
      <point x="406" y="234" type="line"/>
      <point x="437" y="429" type="line"/>
      <point x="405" y="429" type="line"/>
      <point x="396" y="407"/>
      <point x="375" y="365"/>
      <point x="340" y="363" type="curve" smooth="yes"/>
      <point x="232" y="358" type="line"/>
      <point x="273" y="614" type="line"/>
      <point x="452" y="614" type="line"/>
      <point x="473" y="583"/>
      <point x="481" y="544"/>
      <point x="482" y="513" type="curve"/>
      <point x="487" y="512"/>
      <point x="492" y="511"/>
      <point x="497" y="511" type="curve" smooth="yes"/>
      <point x="507" y="511"/>
      <point x="517" y="513"/>
      <point x="526" y="516" type="curve"/>
      <point x="542" y="667" type="line"/>
      <point x="103" y="667" type="line"/>
      <point x="98" y="630" type="line"/>
      <point x="129" y="626"/>
      <point x="158" y="619"/>
      <point x="183" y="604" type="curve"/>
    </contour>
  </outline>
</glyph>
<glyph name="G" format="1">
  <advance width="585"/>
  <unicode hex="0047"/>
  <outline>
    <contour>
      <point x="343" y="254" type="line"/>
      <point x="385" y="250"/>
      <point x="418" y="243"/>
      <point x="441" y="236" type="curve"/>
      <point x="420" y="107" type="line" smooth="yes"/>
      <point x="412" y="59"/>
      <point x="326" y="49"/>
      <point x="289" y="49" type="curve" smooth="yes"/>
      <point x="219" y="49"/>
      <point x="167" y="91"/>
      <point x="167" y="213" type="curve" smooth="yes"/>
      <point x="167" y="424"/>
      <point x="236" y="624"/>
      <point x="385" y="624" type="curve" smooth="yes"/>
      <point x="438" y="624"/>
      <point x="463" y="591"/>
      <point x="463" y="560" type="curve" smooth="yes"/>
      <point x="463" y="543"/>
      <point x="456" y="525"/>
      <point x="443" y="511" type="curve"/>
      <point x="445" y="488"/>
      <point x="466" y="472"/>
      <point x="493" y="472" type="curve" smooth="yes"/>
      <point x="539" y="472"/>
      <point x="559" y="520"/>
      <point x="559" y="559" type="curve" smooth="yes"/>
      <point x="559" y="620"/>
      <point x="505" y="675"/>
      <point x="395" y="675" type="curve" smooth="yes"/>
      <point x="176" y="675"/>
      <point x="70" y="479"/>
      <point x="70" y="229" type="curve" smooth="yes"/>
      <point x="70" y="55"/>
      <point x="163" y="-8"/>
      <point x="275" y="-8" type="curve" smooth="yes"/>
      <point x="345" y="-8"/>
      <point x="424" y="11"/>
      <point x="490" y="55" type="curve"/>
      <point x="531" y="296" type="line"/>
      <point x="349" y="296" type="line"/>
    </contour>
  </outline>
</glyph>
<glyph name="I" format="1">
  <advance width="320"/>
  <unicode hex="0049"/>
  <outline>
    <contour>
      <point x="7" y="0" type="line"/>
      <point x="271" y="0" type="line"/>
      <point x="276" y="37" type="line"/>
      <point x="244" y="41"/>
      <point x="213" y="47"/>
      <point x="186" y="63" type="curve"/>
      <point x="272" y="604" type="line"/>
      <point x="300" y="620"/>
      <point x="325" y="626"/>
      <point x="357" y="630" type="curve"/>
      <point x="362" y="667" type="line"/>
      <point x="103" y="667" type="line"/>
      <point x="98" y="630" type="line"/>
      <point x="131" y="626"/>
      <point x="159" y="619"/>
      <point x="184" y="604" type="curve"/>
      <point x="98" y="63" type="line"/>
      <point x="70" y="46"/>
      <point x="44" y="41"/>
      <point x="12" y="37" type="curve"/>
    </contour>
  </outline>
</glyph>
<glyph name="J" format="1">
  <advance width="299"/>
  <unicode hex="004A"/>
  <outline>
    <contour>
      <point x="272" y="604" type="line"/>
      <point x="299" y="620"/>
      <point x="324" y="626"/>
      <point x="356" y="630" type="curve"/>
      <point x="362" y="667" type="line"/>
      <point x="102" y="667" type="line"/>
      <point x="97" y="630" type="line"/>
      <point x="130" y="626"/>
      <point x="159" y="619"/>
      <point x="184" y="604" type="curve"/>
      <point x="88" y="1" type="line" smooth="yes"/>
      <point x="73" y="-96"/>
      <point x="9" y="-139"/>
      <point x="-54" y="-165" type="curve"/>
      <point x="-48" y="-195" type="line"/>
      <point x="73" y="-165"/>
      <point x="160" y="-106"/>
      <point x="179" y="16" type="curve" smooth="yes"/>
    </contour>
  </outline>
</glyph>
<glyph name="K" format="1">
  <advance width="603"/>
  <unicode hex="004B"/>
  <outline>
    <contour>
      <point x="15" y="0" type="line"/>
      <point x="280" y="0" type="line"/>
      <point x="284" y="37" type="line"/>
      <point x="252" y="41"/>
      <point x="222" y="47"/>
      <point x="194" y="63" type="curve"/>
      <point x="282" y="612" type="line"/>
      <point x="304" y="622"/>
      <point x="324" y="627"/>
      <point x="351" y="630" type="curve"/>
      <point x="356" y="667" type="line"/>
      <point x="111" y="667" type="line"/>
      <point x="106" y="630" type="line"/>
      <point x="139" y="626"/>
      <point x="168" y="619"/>
      <point x="192" y="604" type="curve"/>
      <point x="105" y="63" type="line"/>
      <point x="78" y="46"/>
      <point x="53" y="41"/>
      <point x="21" y="37" type="curve"/>
    </contour>
    <contour>
      <point x="242" y="347" type="line"/>
      <point x="379" y="66" type="line" smooth="yes"/>
      <point x="403" y="17"/>
      <point x="417" y="0"/>
      <point x="465" y="0" type="curve" smooth="yes"/>
      <point x="558" y="0" type="line"/>
      <point x="569" y="38" type="line"/>
      <point x="518" y="44"/>
      <point x="490" y="58"/>
      <point x="478" y="83" type="curve" smooth="yes"/>
      <point x="332" y="369" type="line"/>
      <point x="553" y="608" type="line"/>
      <point x="579" y="627"/>
      <point x="609" y="630"/>
      <point x="633" y="630" type="curve"/>
      <point x="637" y="667" type="line"/>
      <point x="419" y="667" type="line"/>
      <point x="414" y="630" type="line"/>
      <point x="448" y="629"/>
      <point x="463" y="620"/>
      <point x="463" y="602" type="curve" smooth="yes"/>
      <point x="463" y="596"/>
      <point x="461" y="590"/>
      <point x="451" y="579" type="curve" smooth="yes"/>
    </contour>
  </outline>
</glyph>
<glyph name="M" format="1">
  <advance width="792"/>
  <unicode hex="004D"/>
  <outline>
    <contour>
      <point x="372" y="0" type="line"/>
      <point x="653" y="512" type="line"/>
      <point x="575" y="63" type="line"/>
      <point x="547" y="46"/>
      <point x="522" y="41"/>
      <point x="490" y="37" type="curve"/>
      <point x="485" y="0" type="line"/>
      <point x="749" y="0" type="line"/>
      <point x="753" y="37" type="line"/>
      <point x="721" y="41"/>
      <point x="691" y="47"/>
      <point x="663" y="63" type="curve"/>
      <point x="749" y="604" type="line"/>
      <point x="777" y="620"/>
      <point x="802" y="626"/>
      <point x="834" y="630" type="curve"/>
      <point x="839" y="667" type="line"/>
      <point x="678" y="667" type="line"/>
      <point x="376" y="116" type="line"/>
      <point x="249" y="667" type="line"/>
      <point x="76" y="667" type="line"/>
      <point x="71" y="630" type="line"/>
      <point x="104" y="626"/>
      <point x="131" y="619"/>
      <point x="156" y="604" type="curve"/>
      <point x="70" y="63" type="line"/>
      <point x="42" y="46"/>
      <point x="18" y="41"/>
      <point x="-15" y="37" type="curve"/>
      <point x="-20" y="0" type="line"/>
      <point x="220" y="0" type="line"/>
      <point x="224" y="37" type="line"/>
      <point x="192" y="41"/>
      <point x="162" y="47"/>
      <point x="134" y="63" type="curve"/>
      <point x="198" y="512" type="line"/>
      <point x="318" y="0" type="line"/>
    </contour>
  </outline>
</glyph>
<glyph name="N" format="1">
  <advance width="671"/>
  <unicode hex="004E"/>
  <outline>
    <contour>
      <point x="251" y="667" type="line"/>
      <point x="97" y="667" type="line"/>
      <point x="92" y="630" type="line"/>
      <point x="124" y="626"/>
      <point x="152" y="619"/>
      <point x="177" y="604" type="curve"/>
      <point x="90" y="62" type="line"/>
      <point x="62" y="46"/>
      <point x="38" y="41"/>
      <point x="6" y="37" type="curve"/>
      <point x="0" y="0" type="line"/>
      <point x="241" y="0" type="line"/>
      <point x="245" y="37" type="line"/>
      <point x="213" y="41"/>
      <point x="183" y="47"/>
      <point x="154" y="63" type="curve"/>
      <point x="226" y="510" type="line"/>
      <point x="473" y="0" type="line"/>
      <point x="514" y="0" type="line"/>
      <point x="610" y="604" type="line"/>
      <point x="638" y="620"/>
      <point x="663" y="626"/>
      <point x="695" y="630" type="curve"/>
      <point x="700" y="667" type="line"/>
      <point x="464" y="667" type="line"/>
      <point x="460" y="630" type="line"/>
      <point x="492" y="626"/>
      <point x="521" y="619"/>
      <point x="545" y="604" type="curve"/>
      <point x="480" y="193" type="line"/>
    </contour>
  </outline>
</glyph>
<glyph name="P" format="1">
  <advance width="555"/>
  <unicode hex="0050"/>
  <outline>
    <contour>
      <point x="355" y="667" type="curve" smooth="yes"/>
      <point x="120" y="667" type="line"/>
      <point x="115" y="630" type="line"/>
      <point x="148" y="626"/>
      <point x="176" y="619"/>
      <point x="201" y="604" type="curve"/>
      <point x="114" y="63" type="line"/>
      <point x="86" y="46"/>
      <point x="62" y="41"/>
      <point x="29" y="37" type="curve"/>
      <point x="24" y="0" type="line"/>
      <point x="289" y="0" type="line"/>
      <point x="293" y="37" type="line"/>
      <point x="261" y="41"/>
      <point x="230" y="47"/>
      <point x="203" y="63" type="curve"/>
      <point x="240" y="293" type="line"/>
      <point x="275" y="293" type="line" smooth="yes"/>
      <point x="445" y="293"/>
      <point x="562" y="352"/>
      <point x="562" y="522" type="curve" smooth="yes"/>
      <point x="562" y="623"/>
      <point x="494" y="667"/>
    </contour>
    <contour>
      <point x="363" y="625" type="curve" smooth="yes"/>
      <point x="432" y="625"/>
      <point x="472" y="591"/>
      <point x="472" y="520" type="curve" smooth="yes"/>
      <point x="472" y="400"/>
      <point x="395" y="338"/>
      <point x="275" y="338" type="curve" smooth="yes"/>
      <point x="247" y="338" type="line"/>
      <point x="287" y="589" type="line" smooth="yes"/>
      <point x="291" y="614"/>
      <point x="298" y="621"/>
      <point x="331" y="624" type="curve" smooth="yes"/>
      <point x="341" y="625"/>
      <point x="353" y="625"/>
    </contour>
  </outline>
</glyph>
<glyph name="Q" format="1">
  <advance width="622"/>
  <unicode hex="0051"/>
  <outline>
    <contour>
      <point x="387" y="675" type="curve" smooth="yes"/>
      <point x="165" y="675"/>
      <point x="61" y="457"/>
      <point x="61" y="234" type="curve" smooth="yes"/>
      <point x="61" y="85"/>
      <point x="119" y="2"/>
      <point x="256" y="-6" type="curve"/>
      <point x="281" y="-81"/>
      <point x="336" y="-148"/>
      <point x="451" y="-168" type="curve"/>
      <point x="461" y="-161"/>
      <point x="465" y="-151"/>
      <point x="466" y="-138" type="curve"/>
      <point x="400" y="-114"/>
      <point x="350" y="-64"/>
      <point x="336" y="-2" type="curve"/>
      <point x="519" y="31"/>
      <point x="606" y="229"/>
      <point x="606" y="433" type="curve" smooth="yes"/>
      <point x="606" y="591"/>
      <point x="542" y="675"/>
    </contour>
    <contour>
      <point x="274" y="40" type="curve" smooth="yes"/>
      <point x="192" y="40"/>
      <point x="160" y="103"/>
      <point x="160" y="216" type="curve" smooth="yes"/>
      <point x="160" y="464"/>
      <point x="259" y="627"/>
      <point x="394" y="627" type="curve" smooth="yes"/>
      <point x="477" y="627"/>
      <point x="508" y="562"/>
      <point x="508" y="446" type="curve" smooth="yes"/>
      <point x="508" y="201"/>
      <point x="407" y="40"/>
    </contour>
  </outline>
</glyph>
<glyph name="S" format="1">
  <advance width="481"/>
  <unicode hex="0053"/>
  <outline>
    <contour>
      <point x="312" y="624" type="curve" smooth="yes"/>
      <point x="338" y="624"/>
      <point x="380" y="612"/>
      <point x="394" y="600" type="curve"/>
      <point x="408" y="567"/>
      <point x="404" y="533"/>
      <point x="404" y="485" type="curve"/>
      <point x="424" y="479"/>
      <point x="448" y="488"/>
      <point x="448" y="488" type="curve"/>
      <point x="486" y="639" type="line"/>
      <point x="455" y="661"/>
      <point x="389" y="675"/>
      <point x="332" y="675" type="curve" smooth="yes"/>
      <point x="227" y="675"/>
      <point x="116" y="607"/>
      <point x="116" y="476" type="curve" smooth="yes"/>
      <point x="116" y="342"/>
      <point x="323" y="252"/>
      <point x="323" y="147" type="curve" smooth="yes"/>
      <point x="323" y="87"/>
      <point x="275" y="46"/>
      <point x="215" y="46" type="curve" smooth="yes"/>
      <point x="175" y="46"/>
      <point x="133" y="61"/>
      <point x="111" y="83" type="curve"/>
      <point x="108" y="96"/>
      <point x="106" y="114"/>
      <point x="106" y="132" type="curve" smooth="yes"/>
      <point x="106" y="154"/>
      <point x="108" y="178"/>
      <point x="112" y="201" type="curve"/>
      <point x="112" y="201"/>
      <point x="95" y="208"/>
      <point x="66" y="208" type="curve"/>
      <point x="22" y="44" type="line"/>
      <point x="69" y="15"/>
      <point x="121" y="-7"/>
      <point x="193" y="-7" type="curve" smooth="yes"/>
      <point x="281" y="-7"/>
      <point x="414" y="36"/>
      <point x="414" y="182" type="curve" smooth="yes"/>
      <point x="414" y="333"/>
      <point x="204" y="413"/>
      <point x="204" y="521" type="curve" smooth="yes"/>
      <point x="204" y="581"/>
      <point x="252" y="624"/>
    </contour>
  </outline>
</glyph>
<glyph name="V" format="1">
  <advance width="575"/>
  <unicode hex="0056"/>
  <outline>
    <contour>
      <point x="630" y="667" type="line"/>
      <point x="406" y="667" type="line"/>
      <point x="401" y="630" type="line"/>
      <point x="433" y="626"/>
      <point x="461" y="619"/>
      <point x="485" y="605" type="curve"/>
      <point x="284" y="145" type="line"/>
      <point x="217" y="604" type="line"/>
      <point x="248" y="620"/>
      <point x="273" y="626"/>
      <point x="305" y="630" type="curve"/>
      <point x="310" y="667" type="line"/>
      <point x="61" y="667" type="line"/>
      <point x="56" y="630" type="line"/>
      <point x="79" y="627"/>
      <point x="101" y="619"/>
      <point x="120" y="609" type="curve"/>
      <point x="219" y="0" type="line"/>
      <point x="239" y="-7"/>
      <point x="273" y="-7"/>
      <point x="273" y="-7" type="curve"/>
      <point x="553" y="611" type="line"/>
      <point x="575" y="621"/>
      <point x="597" y="626"/>
      <point x="625" y="630" type="curve"/>
    </contour>
  </outline>
</glyph>
<glyph name="W" format="1">
  <advance width="896"/>
  <unicode hex="0057"/>
  <outline>
    <contour>
      <point x="335" y="667" type="line"/>
      <point x="86" y="667" type="line"/>
      <point x="81" y="630" type="line"/>
      <point x="105" y="627"/>
      <point x="128" y="618"/>
      <point x="148" y="608" type="curve"/>
      <point x="201" y="0" type="line"/>
      <point x="220" y="-7"/>
      <point x="255" y="-7"/>
      <point x="255" y="-7" type="curve"/>
      <point x="491" y="477" type="line"/>
      <point x="537" y="0" type="line"/>
      <point x="556" y="-7"/>
      <point x="591" y="-7"/>
      <point x="591" y="-7" type="curve"/>
      <point x="879" y="605" type="line"/>
      <point x="899" y="617"/>
      <point x="926" y="625"/>
      <point x="947" y="630" type="curve"/>
      <point x="952" y="667" type="line"/>
      <point x="733" y="667" type="line"/>
      <point x="728" y="630" type="line"/>
      <point x="760" y="626"/>
      <point x="788" y="619"/>
      <point x="813" y="604" type="curve"/>
      <point x="605" y="152" type="line"/>
      <point x="570" y="657" type="line"/>
      <point x="570" y="657"/>
      <point x="529" y="656"/>
      <point x="510" y="649" type="curve"/>
      <point x="270" y="150" type="line"/>
      <point x="242" y="604" type="line"/>
      <point x="273" y="620"/>
      <point x="298" y="626"/>
      <point x="330" y="630" type="curve"/>
    </contour>
  </outline>
</glyph>
<glyph name="X" format="1">
  <advance width="545"/>
  <unicode hex="0058"/>
  <outline>
    <contour>
      <point x="229" y="600" type="line" smooth="yes"/>
      <point x="208" y="651"/>
      <point x="207" y="667"/>
      <point x="168" y="667" type="curve" smooth="yes"/>
      <point x="65" y="667" type="line"/>
      <point x="60" y="630" type="line"/>
      <point x="106" y="629"/>
      <point x="129" y="609"/>
      <point x="139" y="584" type="curve" smooth="yes"/>
      <point x="238" y="336" type="line"/>
      <point x="35" y="61" type="line"/>
      <point x="9" y="45"/>
      <point x="-16" y="41"/>
      <point x="-46" y="37" type="curve"/>
      <point x="-52" y="0" type="line"/>
      <point x="186" y="0" type="line"/>
      <point x="190" y="37" type="line"/>
      <point x="158" y="41"/>
      <point x="128" y="47"/>
      <point x="100" y="63" type="curve"/>
      <point x="260" y="282" type="line"/>
      <point x="347" y="66" type="line" smooth="yes"/>
      <point x="367" y="16"/>
      <point x="380" y="0"/>
      <point x="427" y="0" type="curve" smooth="yes"/>
      <point x="514" y="0" type="line"/>
      <point x="520" y="38" type="line"/>
      <point x="465" y="44"/>
      <point x="451" y="58"/>
      <point x="439" y="83" type="curve"/>
      <point x="329" y="353" type="line"/>
      <point x="502" y="606" type="line"/>
      <point x="527" y="620"/>
      <point x="551" y="626"/>
      <point x="582" y="630" type="curve"/>
      <point x="587" y="667" type="line"/>
      <point x="355" y="667" type="line"/>
      <point x="350" y="630" type="line"/>
      <point x="383" y="626"/>
      <point x="411" y="619"/>
      <point x="436" y="604" type="curve"/>
      <point x="307" y="408" type="line"/>
    </contour>
  </outline>
</glyph>
<glyph name="Y" format="1">
  <advance width="548"/>
  <unicode hex="0059"/>
  <outline>
    <contour>
      <point x="96" y="0" type="line"/>
      <point x="380" y="0" type="line"/>
      <point x="384" y="37" type="line"/>
      <point x="352" y="41"/>
      <point x="312" y="47"/>
      <point x="284" y="63" type="curve"/>
      <point x="319" y="285" type="line"/>
      <point x="520" y="606" type="line"/>
      <point x="546" y="621"/>
      <point x="570" y="626"/>
      <point x="601" y="630" type="curve"/>
      <point x="606" y="667" type="line"/>
      <point x="373" y="667" type="line"/>
      <point x="368" y="630" type="line"/>
      <point x="399" y="626"/>
      <point x="428" y="619"/>
      <point x="453" y="604" type="curve"/>
      <point x="297" y="347" type="line"/>
      <point x="219" y="607" type="line"/>
      <point x="245" y="621"/>
      <point x="269" y="626"/>
      <point x="299" y="630" type="curve"/>
      <point x="304" y="667" type="line"/>
      <point x="61" y="667" type="line"/>
      <point x="56" y="630" type="line"/>
      <point x="78" y="627"/>
      <point x="99" y="620"/>
      <point x="118" y="611" type="curve"/>
      <point x="228" y="272" type="line"/>
      <point x="196" y="63" type="line"/>
      <point x="168" y="46"/>
      <point x="133" y="41"/>
      <point x="101" y="37" type="curve"/>
    </contour>
  </outline>
</glyph>
<glyph name="bracketleft" format="1">
  <advance width="339"/>
  <unicode hex="005B"/>
  <outline>
    <contour>
      <point x="229" y="-140" type="line"/>
      <point x="235" y="-106" type="line"/>
      <point x="128" y="-96" type="line"/>
      <point x="249" y="666" type="line"/>
      <point x="359" y="676" type="line"/>
      <point x="364" y="709" type="line"/>
      <point x="178" y="709" type="line"/>
      <point x="44" y="-140" type="line"/>
    </contour>
  </outline>
</glyph>
<glyph name="backslash" format="1">
  <advance width="466"/>
  <unicode hex="005C"/>
  <outline>
    <contour>
      <point x="291" y="-125" type="line"/>
      <point x="350" y="-104" type="line"/>
      <point x="169" y="692" type="line"/>
      <point x="110" y="671" type="line"/>
    </contour>
  </outline>
</glyph>
<glyph name="bracketright" format="1">
  <advance width="339"/>
  <unicode hex="005D"/>
  <outline>
    <contour>
      <point x="119" y="709" type="line"/>
      <point x="113" y="675" type="line"/>
      <point x="220" y="665" type="line"/>
      <point x="99" y="-97" type="line"/>
      <point x="-11" y="-107" type="line"/>
      <point x="-16" y="-140" type="line"/>
      <point x="170" y="-140" type="line"/>
      <point x="304" y="709" type="line"/>
    </contour>
  </outline>
</glyph>
<glyph name="asciicircum" format="1">
  <advance width="528"/>
  <unicode hex="005E"/>
  <outline>
    <contour>
      <point x="298" y="674" type="line"/>
      <point x="66" y="356" type="line"/>
      <point x="113" y="331" type="line"/>
      <point x="313" y="604" type="line"/>
      <point x="426" y="331" type="line"/>
      <point x="480" y="356" type="line"/>
      <point x="350" y="674" type="line"/>
    </contour>
  </outline>
</glyph>
<glyph name="underscore" format="1">
  <advance width="371"/>
  <unicode hex="005F"/>
  <outline>
    <contour>
      <point x="366" y="-112" type="line"/>
      <point x="375" y="-58" type="line"/>
      <point x="4" y="-58" type="line"/>
      <point x="-4" y="-112" type="line"/>
    </contour>
  </outline>
</glyph>
<glyph name="grave" format="1">
  <advance width="271"/>
  <unicode hex="0060"/>
  <outline>
    <contour>
      <point x="199" y="548" type="line"/>
      <point x="134" y="664" type="line" smooth="yes"/>
      <point x="127" y="676"/>
      <point x="119" y="681"/>
      <point x="105" y="681" type="curve" smooth="yes"/>
      <point x="84" y="681"/>
      <point x="63" y="661"/>
      <point x="63" y="641" type="curve" smooth="yes"/>
      <point x="63" y="628"/>
      <point x="70" y="618"/>
      <point x="82" y="607" type="curve" smooth="yes"/>
      <point x="173" y="524" type="line"/>
    </contour>
  </outline>
</glyph>
<glyph name="b" format="1">
  <advance width="521"/>
  <unicode hex="0062"/>
  <outline>
    <contour>
      <point x="76" y="60" type="curve" smooth="yes"/>
      <point x="76" y="18"/>
      <point x="104" y="12"/>
      <point x="137" y="5" type="curve" smooth="yes"/>
      <point x="165" y="-2"/>
      <point x="214" y="-7"/>
      <point x="242" y="-7" type="curve" smooth="yes"/>
      <point x="383" y="-7"/>
      <point x="479" y="155"/>
      <point x="479" y="297" type="curve" smooth="yes"/>
      <point x="479" y="399"/>
      <point x="454" y="476"/>
      <point x="351" y="476" type="curve" smooth="yes"/>
      <point x="290" y="476"/>
      <point x="241" y="423"/>
      <point x="210" y="378" type="curve"/>
      <point x="258" y="672" type="line"/>
      <point x="233" y="697" type="line"/>
      <point x="88" y="686" type="line"/>
      <point x="83" y="653" type="line"/>
      <point x="123" y="649"/>
      <point x="160" y="639"/>
      <point x="160" y="603" type="curve" smooth="yes"/>
      <point x="160" y="596"/>
      <point x="151" y="539"/>
      <point x="139" y="466" type="curve" smooth="yes"/>
      <point x="116" y="318"/>
      <point x="81" y="103"/>
      <point x="81" y="103" type="curve"/>
      <point x="78" y="82"/>
      <point x="76" y="67"/>
    </contour>
    <contour>
      <point x="162" y="75" type="curve"/>
      <point x="186" y="306"/>
      <point x="271" y="424"/>
      <point x="326" y="424" type="curve" smooth="yes"/>
      <point x="373" y="424"/>
      <point x="390" y="368"/>
      <point x="390" y="297" type="curve" smooth="yes"/>
      <point x="390" y="188"/>
      <point x="327" y="38"/>
      <point x="234" y="38" type="curve" smooth="yes"/>
      <point x="195" y="38"/>
      <point x="162" y="51"/>
    </contour>
  </outline>
</glyph>
<glyph name="c" format="1">
  <advance width="433"/>
  <unicode hex="0063"/>
  <outline>
    <contour>
      <point x="39" y="171" type="curve" smooth="yes"/>
      <point x="39" y="51"/>
      <point x="90" y="-7"/>
      <point x="210" y="-7" type="curve" smooth="yes"/>
      <point x="304" y="-7"/>
      <point x="378" y="63"/>
      <point x="378" y="63" type="curve"/>
      <point x="351" y="100" type="line"/>
      <point x="351" y="100"/>
      <point x="281" y="45"/>
      <point x="222" y="45" type="curve" smooth="yes"/>
      <point x="155" y="45"/>
      <point x="128" y="104"/>
      <point x="128" y="171" type="curve" smooth="yes"/>
      <point x="128" y="298"/>
      <point x="194" y="431"/>
      <point x="277" y="431" type="curve" smooth="yes"/>
      <point x="304" y="431"/>
      <point x="320" y="418"/>
      <point x="320" y="383" type="curve" smooth="yes"/>
      <point x="320" y="368"/>
      <point x="315" y="355"/>
      <point x="304" y="338" type="curve"/>
      <point x="306" y="317"/>
      <point x="323" y="302"/>
      <point x="348" y="302" type="curve" smooth="yes"/>
      <point x="383" y="302"/>
      <point x="410" y="338"/>
      <point x="410" y="374" type="curve" smooth="yes"/>
      <point x="410" y="444"/>
      <point x="339" y="476"/>
      <point x="266" y="476" type="curve" smooth="yes"/>
      <point x="110" y="476"/>
      <point x="39" y="307"/>
    </contour>
  </outline>
</glyph>
<glyph name="i" format="1">
  <advance width="271"/>
  <unicode hex="0069"/>
  <outline>
    <contour>
      <point x="106" y="379" type="curve" smooth="yes"/>
      <point x="106" y="367"/>
      <point x="56" y="74"/>
      <point x="56" y="45" type="curve" smooth="yes"/>
      <point x="56" y="16"/>
      <point x="62" y="-7"/>
      <point x="112" y="-7" type="curve" smooth="yes"/>
      <point x="152" y="-7"/>
      <point x="205" y="30"/>
      <point x="227" y="49" type="curve"/>
      <point x="217" y="81" type="line"/>
      <point x="212" y="78"/>
      <point x="183" y="62"/>
      <point x="166" y="62" type="curve" smooth="yes"/>
      <point x="150" y="62"/>
      <point x="147" y="68"/>
      <point x="147" y="84" type="curve" smooth="yes"/>
      <point x="147" y="104"/>
      <point x="201" y="427"/>
      <point x="205" y="451" type="curve"/>
      <point x="180" y="476" type="line"/>
      <point x="38" y="445" type="line"/>
      <point x="43" y="412" type="line"/>
      <point x="83" y="412"/>
      <point x="106" y="409"/>
    </contour>
    <contour>
      <point x="169" y="540" type="curve" smooth="yes"/>
      <point x="205" y="540"/>
      <point x="229" y="567"/>
      <point x="229" y="611" type="curve" smooth="yes"/>
      <point x="229" y="638"/>
      <point x="212" y="656"/>
      <point x="183" y="656" type="curve" smooth="yes"/>
      <point x="147" y="656"/>
      <point x="123" y="629"/>
      <point x="123" y="585" type="curve" smooth="yes"/>
      <point x="123" y="557"/>
      <point x="140" y="540"/>
    </contour>
  </outline>
</glyph>
<glyph name="j" format="1">
  <advance width="266"/>
  <unicode hex="006A"/>
  <outline>
    <contour>
      <point x="-46" y="-219" type="curve" smooth="yes"/>
      <point x="95" y="-219"/>
      <point x="119" y="-64"/>
      <point x="137" y="48" type="curve" smooth="yes"/>
      <point x="203" y="450" type="line"/>
      <point x="177" y="476" type="line"/>
      <point x="38" y="445" type="line"/>
      <point x="43" y="412" type="line"/>
      <point x="76" y="412"/>
      <point x="106" y="412"/>
      <point x="106" y="379" type="curve" smooth="yes"/>
      <point x="106" y="374"/>
      <point x="101" y="347"/>
      <point x="98" y="329" type="curve" smooth="yes"/>
      <point x="57" y="70" type="line" smooth="yes"/>
      <point x="40" y="-40"/>
      <point x="46" y="-171"/>
      <point x="-27" y="-171" type="curve" smooth="yes"/>
      <point x="-46" y="-171"/>
      <point x="-55" y="-158"/>
      <point x="-55" y="-143" type="curve" smooth="yes"/>
      <point x="-55" y="-131"/>
      <point x="-49" y="-118"/>
      <point x="-38" y="-112" type="curve"/>
      <point x="-42" y="-88"/>
      <point x="-63" y="-76"/>
      <point x="-85" y="-76" type="curve" smooth="yes"/>
      <point x="-113" y="-76"/>
      <point x="-145" y="-97"/>
      <point x="-145" y="-140" type="curve" smooth="yes"/>
      <point x="-145" y="-189"/>
      <point x="-104" y="-219"/>
    </contour>
    <contour>
      <point x="167" y="540" type="curve" smooth="yes"/>
      <point x="203" y="540"/>
      <point x="227" y="567"/>
      <point x="227" y="611" type="curve" smooth="yes"/>
      <point x="227" y="638"/>
      <point x="210" y="656"/>
      <point x="181" y="656" type="curve" smooth="yes"/>
      <point x="145" y="656"/>
      <point x="121" y="629"/>
      <point x="121" y="585" type="curve" smooth="yes"/>
      <point x="121" y="557"/>
      <point x="138" y="540"/>
    </contour>
  </outline>
</glyph>
<glyph name="k" format="1">
  <advance width="497"/>
  <unicode hex="006B"/>
  <outline>
    <contour>
      <point x="37" y="0" type="line"/>
      <point x="123" y="0" type="line"/>
      <point x="156" y="211" type="line"/>
      <point x="179" y="219"/>
      <point x="201" y="228"/>
      <point x="221" y="237" type="curve"/>
      <point x="311" y="45" type="line" smooth="yes"/>
      <point x="324" y="16"/>
      <point x="334" y="-7"/>
      <point x="367" y="-7" type="curve" smooth="yes"/>
      <point x="407" y="-7"/>
      <point x="449" y="30"/>
      <point x="471" y="49" type="curve"/>
      <point x="461" y="81" type="line"/>
      <point x="456" y="78"/>
      <point x="427" y="62"/>
      <point x="410" y="62" type="curve" smooth="yes"/>
      <point x="394" y="62"/>
      <point x="391" y="74"/>
      <point x="385" y="86" type="curve" smooth="yes"/>
      <point x="289" y="271" type="line"/>
      <point x="450" y="361"/>
      <point x="453" y="448"/>
      <point x="453" y="451" type="curve"/>
      <point x="428" y="476" type="line"/>
      <point x="312" y="451" type="line"/>
      <point x="316" y="423" type="line"/>
      <point x="330" y="422"/>
      <point x="339" y="414"/>
      <point x="339" y="401" type="curve" smooth="yes"/>
      <point x="339" y="371"/>
      <point x="293" y="316"/>
      <point x="165" y="265" type="curve"/>
      <point x="230" y="672" type="line"/>
      <point x="205" y="697" type="line"/>
      <point x="60" y="686" type="line"/>
      <point x="55" y="653" type="line"/>
      <point x="95" y="649"/>
      <point x="132" y="639"/>
      <point x="132" y="603" type="curve" smooth="yes"/>
      <point x="132" y="596"/>
      <point x="124" y="543"/>
      <point x="112" y="470" type="curve" smooth="yes"/>
    </contour>
  </outline>
</glyph>
<glyph name="l" format="1">
  <advance width="267"/>
  <unicode hex="006C"/>
  <outline>
    <contour>
      <point x="131" y="84" type="curve" smooth="yes"/>
      <point x="131" y="104"/>
      <point x="214" y="608"/>
      <point x="225" y="682" type="curve"/>
      <point x="200" y="707" type="line"/>
      <point x="55" y="696" type="line"/>
      <point x="50" y="663" type="line"/>
      <point x="90" y="659"/>
      <point x="127" y="649"/>
      <point x="127" y="613" type="curve" smooth="yes"/>
      <point x="127" y="606"/>
      <point x="119" y="553"/>
      <point x="107" y="480" type="curve"/>
      <point x="107" y="480"/>
      <point x="41" y="83"/>
      <point x="41" y="45" type="curve" smooth="yes"/>
      <point x="41" y="16"/>
      <point x="47" y="-7"/>
      <point x="97" y="-7" type="curve" smooth="yes"/>
      <point x="138" y="-7"/>
      <point x="190" y="30"/>
      <point x="212" y="49" type="curve"/>
      <point x="202" y="81" type="line"/>
      <point x="197" y="78"/>
      <point x="168" y="62"/>
      <point x="151" y="62" type="curve" smooth="yes"/>
      <point x="135" y="62"/>
      <point x="131" y="68"/>
    </contour>
  </outline>
</glyph>
<glyph name="m" format="1">
  <advance width="799"/>
  <unicode hex="006D"/>
  <outline>
    <contour>
      <point x="105" y="379" type="curve" smooth="yes"/>
      <point x="105" y="369"/>
      <point x="46" y="0"/>
      <point x="46" y="0" type="curve"/>
      <point x="131" y="0" type="line"/>
      <point x="157" y="163" type="line" smooth="yes"/>
      <point x="176" y="283"/>
      <point x="233" y="421"/>
      <point x="317" y="421" type="curve" smooth="yes"/>
      <point x="347" y="421"/>
      <point x="370" y="399"/>
      <point x="370" y="353" type="curve" smooth="yes"/>
      <point x="370" y="319"/>
      <point x="324" y="63"/>
      <point x="315" y="0" type="curve"/>
      <point x="400" y="0" type="line"/>
      <point x="419" y="143"/>
      <point x="453" y="421"/>
      <point x="585" y="421" type="curve" smooth="yes"/>
      <point x="615" y="421"/>
      <point x="638" y="399"/>
      <point x="638" y="353" type="curve" smooth="yes"/>
      <point x="638" y="319"/>
      <point x="590" y="76"/>
      <point x="590" y="45" type="curve" smooth="yes"/>
      <point x="590" y="16"/>
      <point x="597" y="-7"/>
      <point x="646" y="-7" type="curve" smooth="yes"/>
      <point x="687" y="-7"/>
      <point x="739" y="30"/>
      <point x="761" y="49" type="curve"/>
      <point x="751" y="81" type="line"/>
      <point x="746" y="78"/>
      <point x="717" y="62"/>
      <point x="700" y="62" type="curve" smooth="yes"/>
      <point x="687" y="62"/>
      <point x="680" y="66"/>
      <point x="680" y="77" type="curve" smooth="yes"/>
      <point x="680" y="79"/>
      <point x="682" y="92"/>
      <point x="685" y="107" type="curve" smooth="yes"/>
      <point x="722" y="329" type="line" smooth="yes"/>
      <point x="726" y="352"/>
      <point x="726" y="360"/>
      <point x="726" y="369" type="curve" smooth="yes"/>
      <point x="726" y="437"/>
      <point x="685" y="476"/>
      <point x="613" y="476" type="curve" smooth="yes"/>
      <point x="540" y="476"/>
      <point x="489" y="417"/>
      <point x="458" y="364" type="curve"/>
      <point x="458" y="435"/>
      <point x="420" y="476"/>
      <point x="345" y="476" type="curve" smooth="yes"/>
      <point x="269" y="476"/>
      <point x="217" y="413"/>
      <point x="187" y="359" type="curve"/>
      <point x="197" y="451" type="line"/>
      <point x="172" y="476" type="line"/>
      <point x="36" y="445" type="line"/>
      <point x="41" y="412" type="line"/>
      <point x="81" y="412"/>
      <point x="105" y="409"/>
    </contour>
  </outline>
</glyph>
<glyph name="o" format="1">
  <advance width="507"/>
  <unicode hex="006F"/>
  <outline>
    <contour>
      <point x="218" y="41" type="curve" smooth="yes"/>
      <point x="169" y="41"/>
      <point x="148" y="88"/>
      <point x="148" y="157" type="curve" smooth="yes"/>
      <point x="148" y="305"/>
      <point x="219" y="428"/>
      <point x="296" y="428" type="curve" smooth="yes"/>
      <point x="343" y="428"/>
      <point x="366" y="383"/>
      <point x="366" y="311" type="curve" smooth="yes"/>
      <point x="366" y="162"/>
      <point x="293" y="41"/>
    </contour>
    <contour>
      <point x="218" y="-7" type="curve" smooth="yes"/>
      <point x="377" y="-7"/>
      <point x="459" y="146"/>
      <point x="459" y="305" type="curve" smooth="yes"/>
      <point x="459" y="413"/>
      <point x="403" y="476"/>
      <point x="296" y="476" type="curve" smooth="yes"/>
      <point x="137" y="476"/>
      <point x="55" y="322"/>
      <point x="55" y="164" type="curve" smooth="yes"/>
      <point x="55" y="56"/>
      <point x="111" y="-7"/>
    </contour>
  </outline>
</glyph>
<glyph name="p" format="1">
  <advance width="527"/>
  <unicode hex="0070"/>
  <outline>
    <contour>
      <point x="46" y="-212" type="line"/>
      <point x="185" y="-212" type="line"/>
      <point x="190" y="-175" type="line"/>
      <point x="154" y="-170"/>
      <point x="124" y="-158"/>
      <point x="129" y="-130" type="curve" smooth="yes"/>
      <point x="150" y="14" type="line"/>
      <point x="194" y="-5"/>
      <point x="231" y="-7"/>
      <point x="258" y="-7" type="curve" smooth="yes"/>
      <point x="400" y="-7"/>
      <point x="481" y="155"/>
      <point x="481" y="297" type="curve" smooth="yes"/>
      <point x="481" y="399"/>
      <point x="456" y="476"/>
      <point x="353" y="476" type="curve" smooth="yes"/>
      <point x="287" y="476"/>
      <point x="234" y="413"/>
      <point x="204" y="366" type="curve"/>
      <point x="213" y="451" type="line"/>
      <point x="188" y="476" type="line"/>
      <point x="56" y="445" type="line"/>
      <point x="61" y="412" type="line"/>
      <point x="101" y="412"/>
      <point x="125" y="409"/>
      <point x="125" y="379" type="curve"/>
      <point x="36" y="-193" type="line"/>
    </contour>
    <contour>
      <point x="162" y="75" type="curve"/>
      <point x="186" y="306"/>
      <point x="272" y="424"/>
      <point x="327" y="424" type="curve" smooth="yes"/>
      <point x="375" y="424"/>
      <point x="392" y="368"/>
      <point x="392" y="297" type="curve" smooth="yes"/>
      <point x="392" y="188"/>
      <point x="328" y="38"/>
      <point x="235" y="38" type="curve" smooth="yes"/>
      <point x="194" y="38"/>
      <point x="162" y="51"/>
    </contour>
  </outline>
</glyph>
<glyph name="q" format="1">
  <advance width="521"/>
  <unicode hex="0071"/>
  <outline>
    <contour>
      <point x="280" y="-212" type="line"/>
      <point x="421" y="-212" type="line"/>
      <point x="426" y="-175" type="line"/>
      <point x="390" y="-170"/>
      <point x="360" y="-158"/>
      <point x="365" y="-130" type="curve" smooth="yes"/>
      <point x="461" y="462" type="line"/>
      <point x="432" y="476" type="line"/>
      <point x="381" y="452" type="line"/>
      <point x="334" y="474"/>
      <point x="295" y="478"/>
      <point x="267" y="478" type="curve" smooth="yes"/>
      <point x="125" y="478"/>
      <point x="44" y="313"/>
      <point x="44" y="172" type="curve" smooth="yes"/>
      <point x="44" y="69"/>
      <point x="70" y="-7"/>
      <point x="172" y="-7" type="curve" smooth="yes"/>
      <point x="239" y="-7"/>
      <point x="292" y="57"/>
      <point x="322" y="103" type="curve"/>
      <point x="270" y="-193" type="line"/>
    </contour>
    <contour>
      <point x="198" y="45" type="curve" smooth="yes"/>
      <point x="150" y="45"/>
      <point x="134" y="101"/>
      <point x="134" y="171" type="curve" smooth="yes"/>
      <point x="134" y="280"/>
      <point x="196" y="431"/>
      <point x="290" y="431" type="curve" smooth="yes"/>
      <point x="319" y="431"/>
      <point x="345" y="419"/>
      <point x="365" y="406" type="curve"/>
      <point x="347" y="298" type="line" smooth="yes"/>
      <point x="321" y="144"/>
      <point x="250" y="45"/>
    </contour>
  </outline>
</glyph>
<glyph name="t" format="1">
  <advance width="345"/>
  <unicode hex="0074"/>
  <outline>
    <contour>
      <point x="179" y="55" type="curve" smooth="yes"/>
      <point x="151" y="55"/>
      <point x="143" y="70"/>
      <point x="143" y="90" type="curve" smooth="yes"/>
      <point x="143" y="125"/>
      <point x="193" y="413"/>
      <point x="192" y="413" type="curve"/>
      <point x="350" y="413" type="line"/>
      <point x="361" y="467" type="line"/>
      <point x="201" y="467" type="line"/>
      <point x="217" y="564" type="line"/>
      <point x="177" y="564" type="line"/>
      <point x="148" y="507"/>
      <point x="126" y="469"/>
      <point x="40" y="446" type="curve"/>
      <point x="34" y="413" type="line"/>
      <point x="106" y="413" type="line"/>
      <point x="62" y="134"/>
      <point x="56" y="101"/>
      <point x="56" y="75" type="curve" smooth="yes"/>
      <point x="56" y="24"/>
      <point x="83" y="-7"/>
      <point x="137" y="-7" type="curve" smooth="yes"/>
      <point x="214" y="-7"/>
      <point x="269" y="38"/>
      <point x="312" y="72" type="curve"/>
      <point x="288" y="106" type="line"/>
      <point x="254" y="83"/>
      <point x="212" y="55"/>
    </contour>
  </outline>
</glyph>
<glyph name="u" format="1">
  <advance width="535"/>
  <unicode hex="0075"/>
  <outline>
    <contour>
      <point x="69" y="126" type="curve"/>
      <point x="68" y="117"/>
      <point x="67" y="108"/>
      <point x="67" y="100" type="curve" smooth="yes"/>
      <point x="67" y="32"/>
      <point x="108" y="-7"/>
      <point x="180" y="-7" type="curve" smooth="yes"/>
      <point x="258" y="-7"/>
      <point x="311" y="61"/>
      <point x="341" y="116" type="curve"/>
      <point x="335" y="80"/>
      <point x="330" y="54"/>
      <point x="330" y="45" type="curve" smooth="yes"/>
      <point x="330" y="16"/>
      <point x="336" y="-7"/>
      <point x="386" y="-7" type="curve" smooth="yes"/>
      <point x="426" y="-7"/>
      <point x="478" y="30"/>
      <point x="500" y="49" type="curve"/>
      <point x="490" y="81" type="line"/>
      <point x="485" y="78"/>
      <point x="457" y="62"/>
      <point x="439" y="62" type="curve" smooth="yes"/>
      <point x="425" y="62"/>
      <point x="418" y="67"/>
      <point x="418" y="79" type="curve" smooth="yes"/>
      <point x="418" y="84" type="line"/>
      <point x="480" y="474" type="line"/>
      <point x="395" y="474" type="line"/>
      <point x="368" y="306" type="line" smooth="yes"/>
      <point x="349" y="186"/>
      <point x="292" y="47"/>
      <point x="208" y="47" type="curve" smooth="yes"/>
      <point x="178" y="47"/>
      <point x="155" y="70"/>
      <point x="155" y="116" type="curve" smooth="yes"/>
      <point x="155" y="149"/>
      <point x="191" y="325"/>
      <point x="211" y="451" type="curve"/>
      <point x="186" y="476" type="line"/>
      <point x="44" y="445" type="line"/>
      <point x="49" y="412" type="line"/>
      <point x="89" y="412"/>
      <point x="112" y="409"/>
      <point x="112" y="379" type="curve" smooth="yes"/>
      <point x="112" y="371"/>
      <point x="69" y="126"/>
    </contour>
  </outline>
</glyph>
<glyph name="v" format="1">
  <advance width="460"/>
  <unicode hex="0076"/>
  <outline>
    <contour>
      <point x="315" y="460" type="line"/>
      <point x="316" y="427" type="line"/>
      <point x="336" y="424"/>
      <point x="354" y="416"/>
      <point x="354" y="386" type="curve" smooth="yes"/>
      <point x="354" y="310"/>
      <point x="261" y="201"/>
      <point x="212" y="106" type="curve"/>
      <point x="166" y="452" type="line"/>
      <point x="140" y="476" type="line"/>
      <point x="22" y="445" type="line"/>
      <point x="26" y="412" type="line"/>
      <point x="60" y="409"/>
      <point x="86" y="414"/>
      <point x="92" y="366" type="curve" smooth="yes"/>
      <point x="141" y="0" type="line"/>
      <point x="161" y="-7"/>
      <point x="195" y="-7"/>
      <point x="195" y="-7" type="curve"/>
      <point x="380" y="280" type="line" smooth="yes"/>
      <point x="441" y="375"/>
      <point x="458" y="454"/>
      <point x="458" y="454" type="curve"/>
      <point x="424" y="476" type="line"/>
    </contour>
  </outline>
</glyph>
<glyph name="x" format="1">
  <advance width="449"/>
  <unicode hex="0078"/>
  <outline>
    <contour>
      <point x="262" y="45" type="line" smooth="yes"/>
      <point x="275" y="16"/>
      <point x="286" y="-7"/>
      <point x="318" y="-7" type="curve" smooth="yes"/>
      <point x="358" y="-7"/>
      <point x="400" y="30"/>
      <point x="422" y="49" type="curve"/>
      <point x="412" y="81" type="line"/>
      <point x="407" y="78"/>
      <point x="378" y="62"/>
      <point x="361" y="62" type="curve" smooth="yes"/>
      <point x="345" y="62"/>
      <point x="343" y="74"/>
      <point x="336" y="86" type="curve"/>
      <point x="266" y="246" type="line"/>
      <point x="320" y="300" type="line" smooth="yes"/>
      <point x="426" y="406"/>
      <point x="447" y="448"/>
      <point x="446" y="449" type="curve"/>
      <point x="430" y="467" type="line"/>
      <point x="297" y="467" type="line"/>
      <point x="297" y="434" type="line"/>
      <point x="317" y="430"/>
      <point x="329" y="420"/>
      <point x="329" y="402" type="curve" smooth="yes"/>
      <point x="329" y="378"/>
      <point x="293" y="337"/>
      <point x="247" y="290" type="curve"/>
      <point x="177" y="453" type="line"/>
      <point x="152" y="475" type="line"/>
      <point x="47" y="446" type="line"/>
      <point x="52" y="413" type="line"/>
      <point x="85" y="413"/>
      <point x="101" y="411"/>
      <point x="120" y="367" type="curve" smooth="yes"/>
      <point x="178" y="234" type="line"/>
      <point x="116" y="171" type="line" smooth="yes"/>
      <point x="17" y="71"/>
      <point x="-10" y="19"/>
      <point x="-10" y="19" type="curve"/>
      <point x="0" y="0" type="line"/>
      <point x="141" y="0" type="line"/>
      <point x="146" y="37" type="line"/>
      <point x="133" y="38"/>
      <point x="109" y="43"/>
      <point x="109" y="65" type="curve" smooth="yes"/>
      <point x="109" y="89"/>
      <point x="142" y="134"/>
      <point x="198" y="190" type="curve"/>
    </contour>
  </outline>
</glyph>
<glyph name="braceleft" format="1">
  <advance width="375"/>
  <unicode hex="007B"/>
  <outline>
    <contour>
      <point x="142" y="208" type="curve" smooth="yes"/>
      <point x="142" y="157"/>
      <point x="84" y="57"/>
      <point x="84" y="-5" type="curve" smooth="yes"/>
      <point x="84" y="-84"/>
      <point x="152" y="-142"/>
      <point x="235" y="-142" type="curve"/>
      <point x="240" y="-107" type="line"/>
      <point x="190" y="-105"/>
      <point x="167" y="-62"/>
      <point x="167" y="-14" type="curve" smooth="yes"/>
      <point x="167" y="66"/>
      <point x="209" y="112"/>
      <point x="209" y="196" type="curve" smooth="yes"/>
      <point x="209" y="235"/>
      <point x="200" y="266"/>
      <point x="184" y="284" type="curve"/>
      <point x="223" y="315"/>
      <point x="249" y="377"/>
      <point x="249" y="456" type="curve" smooth="yes"/>
      <point x="249" y="504" type="line" smooth="yes"/>
      <point x="249" y="577"/>
      <point x="274" y="668"/>
      <point x="364" y="675" type="curve"/>
      <point x="369" y="708" type="line"/>
      <point x="262" y="708"/>
      <point x="168" y="622"/>
      <point x="168" y="513" type="curve" smooth="yes"/>
      <point x="168" y="481"/>
      <point x="171" y="442"/>
      <point x="171" y="409" type="curve" smooth="yes"/>
      <point x="171" y="317"/>
      <point x="112" y="301"/>
      <point x="107" y="301" type="curve"/>
      <point x="102" y="267" type="line"/>
      <point x="102" y="267"/>
      <point x="142" y="256"/>
    </contour>
  </outline>
</glyph>
<glyph name="bar" format="1">
  <advance width="315"/>
  <unicode hex="007C"/>
  <outline>
    <contour>
      <point x="54" y="-146" type="line"/>
      <point x="120" y="-146" type="line"/>
      <point x="263" y="754" type="line"/>
      <point x="197" y="754" type="line"/>
    </contour>
  </outline>
</glyph>
<glyph name="braceright" format="1">
  <advance width="375"/>
  <unicode hex="007D"/>
  <outline>
    <contour>
      <point x="245" y="358" type="curve" smooth="yes"/>
      <point x="245" y="409"/>
      <point x="303" y="509"/>
      <point x="303" y="571" type="curve" smooth="yes"/>
      <point x="303" y="650"/>
      <point x="235" y="708"/>
      <point x="152" y="708" type="curve"/>
      <point x="147" y="673" type="line"/>
      <point x="197" y="671"/>
      <point x="220" y="628"/>
      <point x="220" y="580" type="curve" smooth="yes"/>
      <point x="220" y="500"/>
      <point x="178" y="454"/>
      <point x="178" y="370" type="curve" smooth="yes"/>
      <point x="178" y="331"/>
      <point x="187" y="300"/>
      <point x="203" y="282" type="curve"/>
      <point x="164" y="251"/>
      <point x="138" y="189"/>
      <point x="138" y="110" type="curve" smooth="yes"/>
      <point x="138" y="62" type="line" smooth="yes"/>
      <point x="138" y="-11"/>
      <point x="113" y="-102"/>
      <point x="23" y="-109" type="curve"/>
      <point x="18" y="-142" type="line"/>
      <point x="125" y="-142"/>
      <point x="219" y="-56"/>
      <point x="219" y="53" type="curve" smooth="yes"/>
      <point x="219" y="85"/>
      <point x="216" y="124"/>
      <point x="216" y="157" type="curve" smooth="yes"/>
      <point x="216" y="249"/>
      <point x="275" y="265"/>
      <point x="280" y="265" type="curve"/>
      <point x="285" y="299" type="line"/>
      <point x="285" y="299"/>
      <point x="245" y="310"/>
    </contour>
  </outline>
</glyph>
<glyph name="asciitilde" format="1">
  <advance width="528"/>
  <unicode hex="007E"/>
  <outline>
    <contour>
      <point x="46" y="241" type="curve"/>
      <point x="78" y="263"/>
      <point x="112" y="281"/>
      <point x="152" y="281" type="curve" smooth="yes"/>
      <point x="217" y="281"/>
      <point x="304" y="231"/>
      <point x="376" y="231" type="curve" smooth="yes"/>
      <point x="441" y="231"/>
      <point x="495" y="285"/>
      <point x="518" y="314" type="curve"/>
      <point x="514" y="321"/>
      <point x="508" y="328"/>
      <point x="501" y="333" type="curve"/>
      <point x="470" y="312"/>
      <point x="436" y="293"/>
      <point x="394" y="293" type="curve" smooth="yes"/>
      <point x="340" y="293"/>
      <point x="244" y="342"/>
      <point x="184" y="342" type="curve" smooth="yes"/>
      <point x="112" y="342"/>
      <point x="57" y="290"/>
      <point x="30" y="262" type="curve"/>
      <point x="33" y="253"/>
      <point x="39" y="246"/>
    </contour>
  </outline>
</glyph>
<glyph name="exclamdown" format="1">
  <advance width="280"/>
  <unicode hex="00A1"/>
  <outline>
    <contour>
      <point x="119" y="254" type="line"/>
      <point x="91" y="111"/>
      <point x="9" y="-63"/>
      <point x="9" y="-147" type="curve" smooth="yes"/>
      <point x="9" y="-177"/>
      <point x="21" y="-197"/>
      <point x="56" y="-197" type="curve" smooth="yes"/>
      <point x="94" y="-197"/>
      <point x="118" y="-180"/>
      <point x="118" y="-180" type="curve"/>
      <point x="117" y="-169"/>
      <point x="117" y="-158"/>
      <point x="117" y="-146" type="curve" smooth="yes"/>
      <point x="117" y="-24"/>
      <point x="155" y="156"/>
      <point x="172" y="263" type="curve"/>
    </contour>
    <contour>
      <point x="178" y="487" type="curve" smooth="yes"/>
      <point x="140" y="487"/>
      <point x="118" y="452"/>
      <point x="118" y="414" type="curve" smooth="yes"/>
      <point x="118" y="389"/>
      <point x="135" y="371"/>
      <point x="161" y="371" type="curve" smooth="yes"/>
      <point x="199" y="371"/>
      <point x="221" y="406"/>
      <point x="221" y="444" type="curve" smooth="yes"/>
      <point x="221" y="469"/>
      <point x="203" y="487"/>
    </contour>
  </outline>
</glyph>
<glyph name="cent" format="1">
  <advance width="437"/>
  <unicode hex="00A2"/>
  <outline>
    <contour>
      <point x="269" y="562" type="line"/>
      <point x="254" y="470" type="line"/>
      <point x="121" y="454"/>
      <point x="37" y="351"/>
      <point x="37" y="192" type="curve" smooth="yes"/>
      <point x="37" y="98"/>
      <point x="82" y="42"/>
      <point x="185" y="33" type="curve"/>
      <point x="170" y="-60" type="line"/>
      <point x="181" y="-62"/>
      <point x="192" y="-64"/>
      <point x="204" y="-64" type="curve"/>
      <point x="210" y="-58" type="line"/>
      <point x="224" y="32" type="line"/>
      <point x="296" y="35"/>
      <point x="359" y="79"/>
      <point x="391" y="144" type="curve"/>
      <point x="352" y="157" type="line"/>
      <point x="323" y="104"/>
      <point x="282" y="76"/>
      <point x="231" y="74" type="curve"/>
      <point x="288" y="432" type="line"/>
      <point x="316" y="430"/>
      <point x="339" y="415"/>
      <point x="339" y="389" type="curve" smooth="yes"/>
      <point x="339" y="377"/>
      <point x="334" y="362"/>
      <point x="321" y="346" type="curve"/>
      <point x="323" y="326"/>
      <point x="342" y="312"/>
      <point x="367" y="312" type="curve" smooth="yes"/>
      <point x="401" y="312"/>
      <point x="430" y="345"/>
      <point x="430" y="381" type="curve" smooth="yes"/>
      <point x="430" y="433"/>
      <point x="377" y="472"/>
      <point x="294" y="473" type="curve"/>
      <point x="309" y="564" type="line"/>
      <point x="298" y="567"/>
      <point x="287" y="569"/>
      <point x="275" y="569" type="curve"/>
    </contour>
    <contour>
      <point x="127" y="175" type="curve" smooth="yes"/>
      <point x="127" y="277"/>
      <point x="153" y="402"/>
      <point x="247" y="427" type="curve"/>
      <point x="192" y="77" type="line"/>
      <point x="142" y="87"/>
      <point x="127" y="123"/>
    </contour>
  </outline>
</glyph>
<glyph name="sterling" format="1">
  <advance width="500"/>
  <unicode hex="00A3"/>
  <outline>
    <contour>
      <point x="58" y="348" type="line"/>
      <point x="50" y="341" type="line"/>
      <point x="49" y="335"/>
      <point x="48" y="329"/>
      <point x="48" y="324" type="curve" smooth="yes"/>
      <point x="48" y="318"/>
      <point x="49" y="313"/>
      <point x="50" y="308" type="curve"/>
      <point x="133" y="308" type="line"/>
      <point x="138" y="267"/>
      <point x="143" y="226"/>
      <point x="143" y="190" type="curve" smooth="yes"/>
      <point x="143" y="167"/>
      <point x="141" y="145"/>
      <point x="136" y="125" type="curve"/>
      <point x="115" y="131"/>
      <point x="95" y="136"/>
      <point x="73" y="136" type="curve" smooth="yes"/>
      <point x="20" y="136"/>
      <point x="-28" y="101"/>
      <point x="-28" y="49" type="curve" smooth="yes"/>
      <point x="-28" y="11"/>
      <point x="6" y="-7"/>
      <point x="46" y="-7" type="curve" smooth="yes"/>
      <point x="95" y="-7"/>
      <point x="136" y="21"/>
      <point x="167" y="61" type="curve"/>
      <point x="213" y="31"/>
      <point x="259" y="-7"/>
      <point x="328" y="-7" type="curve" smooth="yes"/>
      <point x="388" y="-7"/>
      <point x="451" y="20"/>
      <point x="451" y="95" type="curve" smooth="yes"/>
      <point x="451" y="130"/>
      <point x="423" y="150"/>
      <point x="391" y="151" type="curve"/>
      <point x="386" y="112"/>
      <point x="380" y="76"/>
      <point x="335" y="76" type="curve" smooth="yes"/>
      <point x="277" y="76"/>
      <point x="233" y="89"/>
      <point x="193" y="104" type="curve"/>
      <point x="216" y="149"/>
      <point x="229" y="201"/>
      <point x="229" y="248" type="curve" smooth="yes"/>
      <point x="229" y="268"/>
      <point x="227" y="288"/>
      <point x="226" y="308" type="curve"/>
      <point x="364" y="308" type="line"/>
      <point x="371" y="314" type="line"/>
      <point x="372" y="321"/>
      <point x="373" y="327"/>
      <point x="373" y="334" type="curve" smooth="yes"/>
      <point x="373" y="338"/>
      <point x="372" y="343"/>
      <point x="372" y="348" type="curve"/>
      <point x="222" y="348" type="line"/>
      <point x="220" y="372"/>
      <point x="218" y="396"/>
      <point x="218" y="420" type="curve" smooth="yes"/>
      <point x="218" y="531"/>
      <point x="264" y="612"/>
      <point x="347" y="612" type="curve" smooth="yes"/>
      <point x="392" y="612"/>
      <point x="416" y="589"/>
      <point x="416" y="560" type="curve" smooth="yes"/>
      <point x="416" y="544"/>
      <point x="407" y="525"/>
      <point x="390" y="505" type="curve"/>
      <point x="393" y="485"/>
      <point x="414" y="472"/>
      <point x="439" y="472" type="curve" smooth="yes"/>
      <point x="473" y="472"/>
      <point x="506" y="509"/>
      <point x="506" y="561" type="curve" smooth="yes"/>
      <point x="506" y="633"/>
      <point x="433" y="665"/>
      <point x="364" y="665" type="curve" smooth="yes"/>
      <point x="229" y="665"/>
      <point x="126" y="574"/>
      <point x="126" y="414" type="curve" smooth="yes"/>
      <point x="126" y="393"/>
      <point x="127" y="371"/>
      <point x="129" y="348" type="curve"/>
    </contour>
    <contour>
      <point x="51" y="32" type="curve" smooth="yes"/>
      <point x="33" y="32"/>
      <point x="18" y="38"/>
      <point x="18" y="57" type="curve" smooth="yes"/>
      <point x="18" y="83"/>
      <point x="40" y="99"/>
      <point x="67" y="99" type="curve" smooth="yes"/>
      <point x="87" y="99"/>
      <point x="106" y="94"/>
      <point x="123" y="86" type="curve"/>
      <point x="108" y="53"/>
      <point x="84" y="32"/>
    </contour>
  </outline>
</glyph>
<glyph name="currency" format="1">
  <advance width="554"/>
  <unicode hex="00A4"/>
  <outline>
    <contour>
      <point x="91" y="294" type="curve" smooth="yes"/>
      <point x="91" y="243"/>
      <point x="105" y="201"/>
      <point x="132" y="170" type="curve"/>
      <point x="74" y="105" type="line"/>
      <point x="113" y="68" type="line"/>
      <point x="173" y="136" type="line"/>
      <point x="201" y="120"/>
      <point x="234" y="112"/>
      <point x="272" y="112" type="curve" smooth="yes"/>
      <point x="310" y="112"/>
      <point x="343" y="120"/>
      <point x="370" y="136" type="curve"/>
      <point x="431" y="68" type="line"/>
      <point x="470" y="105" type="line"/>
      <point x="411" y="170" type="line"/>
      <point x="437" y="201"/>
      <point x="452" y="243"/>
      <point x="452" y="294" type="curve" smooth="yes"/>
      <point x="452" y="346"/>
      <point x="436" y="389"/>
      <point x="409" y="421" type="curve"/>
      <point x="470" y="486" type="line"/>
      <point x="431" y="524" type="line"/>
      <point x="365" y="455" type="line"/>
      <point x="339" y="468"/>
      <point x="308" y="476"/>
      <point x="272" y="476" type="curve" smooth="yes"/>
      <point x="236" y="476"/>
      <point x="204" y="468"/>
      <point x="178" y="454" type="curve"/>
      <point x="113" y="524" type="line"/>
      <point x="74" y="486" type="line"/>
      <point x="134" y="421" type="line"/>
      <point x="106" y="389"/>
      <point x="91" y="346"/>
    </contour>
    <contour>
      <point x="272" y="153" type="curve" smooth="yes"/>
      <point x="192" y="153"/>
      <point x="156" y="208"/>
      <point x="156" y="294" type="curve" smooth="yes"/>
      <point x="156" y="375"/>
      <point x="188" y="435"/>
      <point x="272" y="435" type="curve" smooth="yes"/>
      <point x="351" y="435"/>
      <point x="387" y="379"/>
      <point x="387" y="294" type="curve" smooth="yes"/>
      <point x="387" y="208"/>
      <point x="351" y="153"/>
    </contour>
  </outline>
</glyph>
<glyph name="yen" format="1">
  <advance width="599"/>
  <unicode hex="00A5"/>
  <outline>
    <contour>
      <point x="93" y="281" type="line"/>
      <point x="85" y="275" type="line"/>
      <point x="84" y="271"/>
      <point x="84" y="268"/>
      <point x="84" y="265" type="curve" smooth="yes"/>
      <point x="84" y="257"/>
      <point x="85" y="249"/>
      <point x="86" y="242" type="curve"/>
      <point x="250" y="242" type="line"/>
      <point x="222" y="63" type="line"/>
      <point x="190" y="46"/>
      <point x="158" y="41"/>
      <point x="124" y="37" type="curve"/>
      <point x="112" y="0" type="line"/>
      <point x="396" y="0" type="line"/>
      <point x="406" y="37" type="line"/>
      <point x="373" y="41"/>
      <point x="336" y="47"/>
      <point x="310" y="63" type="curve"/>
      <point x="338" y="242" type="line"/>
      <point x="494" y="242" type="line"/>
      <point x="501" y="248" type="line"/>
      <point x="502" y="255"/>
      <point x="503" y="262"/>
      <point x="503" y="268" type="curve" smooth="yes"/>
      <point x="503" y="272"/>
      <point x="502" y="277"/>
      <point x="502" y="281" type="curve"/>
      <point x="348" y="281" type="line"/>
      <point x="389" y="345" type="line"/>
      <point x="510" y="345" type="line"/>
      <point x="518" y="351" type="line"/>
      <point x="519" y="358"/>
      <point x="520" y="364"/>
      <point x="520" y="371" type="curve" smooth="yes"/>
      <point x="520" y="375"/>
      <point x="519" y="379"/>
      <point x="519" y="384" type="curve"/>
      <point x="414" y="384" type="line"/>
      <point x="550" y="597" type="line"/>
      <point x="574" y="618"/>
      <point x="605" y="619"/>
      <point x="627" y="620" type="curve"/>
      <point x="639" y="657" type="line"/>
      <point x="400" y="657" type="line"/>
      <point x="390" y="620" type="line"/>
      <point x="422" y="616"/>
      <point x="458" y="609"/>
      <point x="484" y="597" type="curve"/>
      <point x="321" y="341" type="line"/>
      <point x="245" y="596" type="line"/>
      <point x="275" y="612"/>
      <point x="305" y="616"/>
      <point x="338" y="620" type="curve"/>
      <point x="350" y="657" type="line"/>
      <point x="80" y="657" type="line"/>
      <point x="69" y="620" type="line"/>
      <point x="94" y="617"/>
      <point x="126" y="613"/>
      <point x="144" y="594" type="curve"/>
      <point x="213" y="384" type="line"/>
      <point x="109" y="384" type="line"/>
      <point x="102" y="378" type="line"/>
      <point x="101" y="371"/>
      <point x="100" y="364"/>
      <point x="100" y="358" type="curve" smooth="yes"/>
      <point x="100" y="353"/>
      <point x="100" y="349"/>
      <point x="101" y="345" type="curve"/>
      <point x="225" y="345" type="line"/>
      <point x="246" y="281" type="line"/>
    </contour>
  </outline>
</glyph>
<glyph name="brokenbar" format="1">
  <advance width="315"/>
  <unicode hex="00A6"/>
  <outline>
    <contour>
      <point x="139" y="398" type="line"/>
      <point x="205" y="398" type="line"/>
      <point x="262" y="754" type="line"/>
      <point x="196" y="754" type="line"/>
    </contour>
    <contour>
      <point x="53" y="-146" type="line"/>
      <point x="119" y="-146" type="line"/>
      <point x="176" y="210" type="line"/>
      <point x="110" y="210" type="line"/>
    </contour>
  </outline>
</glyph>
<glyph name="section" format="1">
  <advance width="475"/>
  <unicode hex="00A7"/>
  <outline>
    <contour>
      <point x="193" y="13" type="curve" smooth="yes"/>
      <point x="146" y="13"/>
      <point x="128" y="38"/>
      <point x="128" y="65" type="curve" smooth="yes"/>
      <point x="128" y="83"/>
      <point x="136" y="103"/>
      <point x="150" y="119" type="curve"/>
      <point x="148" y="138"/>
      <point x="128" y="152"/>
      <point x="101" y="152" type="curve" smooth="yes"/>
      <point x="58" y="152"/>
      <point x="37" y="112"/>
      <point x="37" y="79" type="curve" smooth="yes"/>
      <point x="37" y="22"/>
      <point x="83" y="-31"/>
      <point x="186" y="-31" type="curve" smooth="yes"/>
      <point x="302" y="-31"/>
      <point x="396" y="38"/>
      <point x="413" y="148" type="curve" smooth="yes"/>
      <point x="415" y="162"/>
      <point x="416" y="175"/>
      <point x="416" y="187" type="curve" smooth="yes"/>
      <point x="416" y="261"/>
      <point x="378" y="305"/>
      <point x="347" y="355" type="curve" smooth="yes"/>
      <point x="298" y="432"/>
      <point x="242" y="475"/>
      <point x="241" y="551" type="curve" smooth="yes"/>
      <point x="241" y="616"/>
      <point x="269" y="653"/>
      <point x="324" y="653" type="curve" smooth="yes"/>
      <point x="371" y="653"/>
      <point x="389" y="628"/>
      <point x="389" y="601" type="curve" smooth="yes"/>
      <point x="389" y="583"/>
      <point x="381" y="563"/>
      <point x="367" y="547" type="curve"/>
      <point x="369" y="528"/>
      <point x="389" y="514"/>
      <point x="416" y="514" type="curve" smooth="yes"/>
      <point x="459" y="514"/>
      <point x="480" y="554"/>
      <point x="480" y="587" type="curve" smooth="yes"/>
      <point x="480" y="644"/>
      <point x="434" y="697"/>
      <point x="331" y="697" type="curve" smooth="yes"/>
      <point x="205" y="697"/>
      <point x="104" y="612"/>
      <point x="104" y="483" type="curve" smooth="yes"/>
      <point x="104" y="345"/>
      <point x="277" y="237"/>
      <point x="277" y="112" type="curve" smooth="yes"/>
      <point x="277" y="48"/>
      <point x="249" y="13"/>
    </contour>
    <contour>
      <point x="361" y="153" type="curve" smooth="yes"/>
      <point x="357" y="129"/>
      <point x="343" y="96"/>
      <point x="329" y="81" type="curve"/>
      <point x="331" y="92"/>
      <point x="331" y="103"/>
      <point x="331" y="114" type="curve" smooth="yes"/>
      <point x="331" y="267"/>
      <point x="157" y="358"/>
      <point x="157" y="483" type="curve" smooth="yes"/>
      <point x="157" y="508"/>
      <point x="169" y="556"/>
      <point x="191" y="576" type="curve"/>
      <point x="190" y="568"/>
      <point x="189" y="560"/>
      <point x="189" y="552" type="curve" smooth="yes"/>
      <point x="189" y="398"/>
      <point x="363" y="328"/>
      <point x="363" y="183" type="curve" smooth="yes"/>
      <point x="363" y="173"/>
      <point x="363" y="163"/>
    </contour>
  </outline>
</glyph>
<glyph name="dieresis" format="1">
  <advance width="271"/>
  <unicode hex="00A8"/>
  <outline>
    <contour>
      <point x="53" y="552" type="curve" smooth="yes"/>
      <point x="86" y="552"/>
      <point x="107" y="576"/>
      <point x="107" y="617" type="curve" smooth="yes"/>
      <point x="107" y="641"/>
      <point x="92" y="657"/>
      <point x="65" y="657" type="curve" smooth="yes"/>
      <point x="32" y="657"/>
      <point x="11" y="633"/>
      <point x="11" y="592" type="curve" smooth="yes"/>
      <point x="11" y="567"/>
      <point x="26" y="552"/>
    </contour>
    <contour>
      <point x="220" y="552" type="curve" smooth="yes"/>
      <point x="253" y="552"/>
      <point x="274" y="576"/>
      <point x="274" y="617" type="curve" smooth="yes"/>
      <point x="274" y="641"/>
      <point x="259" y="657"/>
      <point x="232" y="657" type="curve" smooth="yes"/>
      <point x="199" y="657"/>
      <point x="178" y="633"/>
      <point x="178" y="592" type="curve" smooth="yes"/>
      <point x="178" y="567"/>
      <point x="193" y="552"/>
    </contour>
  </outline>
</glyph>
<glyph name="ordfeminine" format="1">
  <advance width="396"/>
  <unicode hex="00AA"/>
  <outline>
    <contour>
      <point x="246" y="375" type="curve" smooth="yes"/>
      <point x="246" y="356"/>
      <point x="250" y="340"/>
      <point x="286" y="340" type="curve" smooth="yes"/>
      <point x="317" y="340"/>
      <point x="352" y="365"/>
      <point x="367" y="378" type="curve"/>
      <point x="360" y="400" type="line"/>
      <point x="357" y="398"/>
      <point x="338" y="387"/>
      <point x="326" y="387" type="curve" smooth="yes"/>
      <point x="317" y="387"/>
      <point x="313" y="390"/>
      <point x="313" y="401" type="curve" smooth="yes"/>
      <point x="313" y="404"/>
      <point x="313" y="407"/>
      <point x="315" y="419" type="curve" smooth="yes"/>
      <point x="353" y="653" type="line"/>
      <point x="332" y="666" type="line"/>
      <point x="295" y="650" type="line"/>
      <point x="271" y="660"/>
      <point x="248" y="664"/>
      <point x="227" y="664" type="curve" smooth="yes"/>
      <point x="128" y="664"/>
      <point x="67" y="565"/>
      <point x="67" y="461" type="curve" smooth="yes"/>
      <point x="67" y="392"/>
      <point x="84" y="340"/>
      <point x="154" y="340" type="curve" smooth="yes"/>
      <point x="198" y="340"/>
      <point x="229" y="371"/>
      <point x="249" y="400" type="curve"/>
      <point x="247" y="388"/>
      <point x="246" y="379"/>
    </contour>
    <contour>
      <point x="175" y="387" type="curve" smooth="yes"/>
      <point x="144" y="387"/>
      <point x="134" y="415"/>
      <point x="134" y="461" type="curve" smooth="yes"/>
      <point x="134" y="529"/>
      <point x="172" y="627"/>
      <point x="237" y="627" type="curve" smooth="yes"/>
      <point x="251" y="627"/>
      <point x="266" y="623"/>
      <point x="282" y="613" type="curve"/>
      <point x="272" y="554" type="line" smooth="yes"/>
      <point x="252" y="444"/>
      <point x="211" y="387"/>
    </contour>
    <contour>
      <point x="46" y="256" type="line"/>
      <point x="353" y="256" type="line"/>
      <point x="358" y="290" type="line"/>
      <point x="51" y="290" type="line"/>
    </contour>
  </outline>
</glyph>
<glyph name="guillemotleft" format="1">
  <advance width="469"/>
  <unicode hex="00AB"/>
  <outline>
    <contour>
      <point x="163" y="43" type="line"/>
      <point x="205" y="68" type="line"/>
      <point x="133" y="240" type="line"/>
      <point x="261" y="415" type="line"/>
      <point x="226" y="439" type="line"/>
      <point x="35" y="241" type="line"/>
    </contour>
    <contour>
      <point x="343" y="43" type="line"/>
      <point x="385" y="68" type="line"/>
      <point x="313" y="240" type="line"/>
      <point x="441" y="415" type="line"/>
      <point x="406" y="439" type="line"/>
      <point x="215" y="241" type="line"/>
    </contour>
  </outline>
</glyph>
<glyph name="logicalnot" format="1">
  <advance width="528"/>
  <unicode hex="00AC"/>
  <outline>
    <contour>
      <point x="494" y="398" type="line"/>
      <point x="55" y="398" type="line"/>
      <point x="47" y="345" type="line"/>
      <point x="426" y="345" type="line"/>
      <point x="399" y="177" type="line"/>
      <point x="459" y="177" type="line"/>
    </contour>
  </outline>
</glyph>
<glyph name="uni00AD" format="1">
  <advance width="332"/>
  <unicode hex="00AD"/>
  <outline>
    <contour>
      <point x="47" y="231" type="line"/>
      <point x="276" y="231" type="line"/>
      <point x="285" y="285" type="line"/>
      <point x="56" y="285" type="line"/>
    </contour>
  </outline>
</glyph>
<glyph name="macron" format="1">
  <advance width="271"/>
  <unicode hex="00AF"/>
  <outline>
    <contour>
      <point x="-1" y="570" type="line"/>
      <point x="276" y="570" type="line"/>
      <point x="283" y="614" type="line"/>
      <point x="6" y="614" type="line"/>
    </contour>
  </outline>
</glyph>
<glyph name="degree" format="1">
  <advance width="375"/>
  <unicode hex="00B0"/>
  <outline>
    <contour>
      <point x="110" y="506" type="curve" smooth="yes"/>
      <point x="110" y="436"/>
      <point x="161" y="390"/>
      <point x="231" y="390" type="curve" smooth="yes"/>
      <point x="317" y="390"/>
      <point x="395" y="463"/>
      <point x="395" y="549" type="curve" smooth="yes"/>
      <point x="395" y="619"/>
      <point x="344" y="665"/>
      <point x="274" y="665" type="curve" smooth="yes"/>
      <point x="188" y="665"/>
      <point x="110" y="592"/>
    </contour>
    <contour>
      <point x="269" y="629" type="curve" smooth="yes"/>
      <point x="308" y="629"/>
      <point x="326" y="598"/>
      <point x="326" y="555" type="curve" smooth="yes"/>
      <point x="326" y="495"/>
      <point x="296" y="425"/>
      <point x="236" y="425" type="curve" smooth="yes"/>
      <point x="197" y="425"/>
      <point x="179" y="457"/>
      <point x="179" y="500" type="curve" smooth="yes"/>
      <point x="179" y="560"/>
      <point x="209" y="629"/>
    </contour>
  </outline>
</glyph>
<glyph name="plusminus" format="1">
  <advance width="528"/>
  <unicode hex="00B1"/>
  <outline>
    <contour>
      <point x="67" y="327" type="line"/>
      <point x="239" y="327" type="line"/>
      <point x="211" y="150" type="line"/>
      <point x="271" y="150" type="line"/>
      <point x="299" y="327" type="line"/>
      <point x="476" y="327" type="line"/>
      <point x="484" y="380" type="line"/>
      <point x="307" y="380" type="line"/>
      <point x="336" y="558" type="line"/>
      <point x="276" y="558" type="line"/>
      <point x="247" y="380" type="line"/>
      <point x="75" y="380" type="line"/>
    </contour>
    <contour>
      <point x="22" y="27" type="line"/>
      <point x="422" y="27" type="line"/>
      <point x="431" y="80" type="line"/>
      <point x="31" y="80" type="line"/>
    </contour>
  </outline>
</glyph>
<glyph name="twosuperior" format="1">
  <advance width="395"/>
  <unicode hex="00B2"/>
  <outline>
    <contour>
      <point x="108" y="459" type="line"/>
      <point x="270" y="572"/>
      <point x="325" y="646"/>
      <point x="325" y="720" type="curve" smooth="yes"/>
      <point x="325" y="779"/>
      <point x="284" y="812"/>
      <point x="208" y="812" type="curve" smooth="yes"/>
      <point x="137" y="812"/>
      <point x="62" y="783"/>
      <point x="62" y="712" type="curve" smooth="yes"/>
      <point x="62" y="685"/>
      <point x="80" y="674"/>
      <point x="99" y="674" type="curve" smooth="yes"/>
      <point x="113" y="674"/>
      <point x="129" y="681"/>
      <point x="143" y="692" type="curve"/>
      <point x="135" y="703"/>
      <point x="131" y="714"/>
      <point x="131" y="723" type="curve" smooth="yes"/>
      <point x="131" y="754"/>
      <point x="163" y="772"/>
      <point x="201" y="772" type="curve" smooth="yes"/>
      <point x="240" y="772"/>
      <point x="256" y="752"/>
      <point x="256" y="722" type="curve" smooth="yes"/>
      <point x="256" y="651"/>
      <point x="205" y="587"/>
      <point x="20" y="447" type="curve"/>
      <point x="13" y="405" type="line"/>
      <point x="293" y="405" type="line"/>
      <point x="302" y="459" type="line"/>
    </contour>
  </outline>
</glyph>
<glyph name="threesuperior" format="1">
  <advance width="395"/>
  <unicode hex="00B3"/>
  <outline>
    <contour>
      <point x="140" y="599" type="line"/>
      <point x="204" y="599"/>
      <point x="240" y="574"/>
      <point x="240" y="532" type="curve" smooth="yes"/>
      <point x="240" y="475"/>
      <point x="203" y="440"/>
      <point x="159" y="440" type="curve" smooth="yes"/>
      <point x="120" y="440"/>
      <point x="97" y="455"/>
      <point x="97" y="479" type="curve" smooth="yes"/>
      <point x="97" y="485"/>
      <point x="100" y="498"/>
      <point x="110" y="512" type="curve"/>
      <point x="98" y="521"/>
      <point x="86" y="525"/>
      <point x="76" y="525" type="curve" smooth="yes"/>
      <point x="44" y="525"/>
      <point x="27" y="504"/>
      <point x="27" y="474" type="curve" smooth="yes"/>
      <point x="27" y="428"/>
      <point x="72" y="401"/>
      <point x="150" y="401" type="curve" smooth="yes"/>
      <point x="237" y="401"/>
      <point x="306" y="458"/>
      <point x="306" y="538" type="curve" smooth="yes"/>
      <point x="306" y="577"/>
      <point x="285" y="603"/>
      <point x="242" y="618" type="curve"/>
      <point x="298" y="638"/>
      <point x="331" y="676"/>
      <point x="331" y="727" type="curve" smooth="yes"/>
      <point x="331" y="778"/>
      <point x="288" y="812"/>
      <point x="221" y="812" type="curve" smooth="yes"/>
      <point x="142" y="812"/>
      <point x="83" y="770"/>
      <point x="83" y="721" type="curve" smooth="yes"/>
      <point x="83" y="701"/>
      <point x="93" y="689"/>
      <point x="111" y="689" type="curve" smooth="yes"/>
      <point x="123" y="689"/>
      <point x="137" y="694"/>
      <point x="153" y="704" type="curve"/>
      <point x="149" y="710"/>
      <point x="146" y="716"/>
      <point x="146" y="723" type="curve" smooth="yes"/>
      <point x="146" y="751"/>
      <point x="176" y="772"/>
      <point x="213" y="772" type="curve" smooth="yes"/>
      <point x="246" y="772"/>
      <point x="263" y="755"/>
      <point x="263" y="725" type="curve" smooth="yes"/>
      <point x="263" y="668"/>
      <point x="219" y="637"/>
      <point x="146" y="635" type="curve"/>
    </contour>
  </outline>
</glyph>
<glyph name="acute" format="1">
  <advance width="271"/>
  <unicode hex="00B4"/>
  <outline>
    <contour>
      <point x="79" y="524" type="line"/>
      <point x="201" y="608" type="line" smooth="yes"/>
      <point x="219" y="621"/>
      <point x="224" y="632"/>
      <point x="224" y="647" type="curve" smooth="yes"/>
      <point x="224" y="667"/>
      <point x="207" y="681"/>
      <point x="190" y="681" type="curve" smooth="yes"/>
      <point x="175" y="681"/>
      <point x="165" y="677"/>
      <point x="154" y="665" type="curve" smooth="yes"/>
      <point x="57" y="549" type="line"/>
    </contour>
  </outline>
</glyph>
<glyph name="mu" format="1">
  <advance width="551"/>
  <unicode hex="00B5"/>
  <outline>
    <contour>
      <point x="133" y="0" type="curve"/>
      <point x="146" y="-5"/>
      <point x="166" y="-7"/>
      <point x="180" y="-7" type="curve" smooth="yes"/>
      <point x="258" y="-7"/>
      <point x="311" y="61"/>
      <point x="341" y="116" type="curve"/>
      <point x="335" y="80"/>
      <point x="330" y="54"/>
      <point x="330" y="45" type="curve" smooth="yes"/>
      <point x="330" y="16"/>
      <point x="336" y="-7"/>
      <point x="386" y="-7" type="curve" smooth="yes"/>
      <point x="426" y="-7"/>
      <point x="478" y="30"/>
      <point x="500" y="49" type="curve"/>
      <point x="490" y="81" type="line"/>
      <point x="485" y="78"/>
      <point x="457" y="62"/>
      <point x="439" y="62" type="curve" smooth="yes"/>
      <point x="425" y="62"/>
      <point x="418" y="67"/>
      <point x="418" y="79" type="curve" smooth="yes"/>
      <point x="418" y="84" type="line"/>
      <point x="480" y="474" type="line"/>
      <point x="395" y="474" type="line"/>
      <point x="368" y="306" type="line" smooth="yes"/>
      <point x="349" y="186"/>
      <point x="292" y="47"/>
      <point x="208" y="47" type="curve" smooth="yes"/>
      <point x="178" y="47"/>
      <point x="155" y="70"/>
      <point x="155" y="116" type="curve" smooth="yes"/>
      <point x="155" y="149"/>
      <point x="191" y="325"/>
      <point x="211" y="451" type="curve"/>
      <point x="186" y="476" type="line"/>
      <point x="44" y="445" type="line"/>
      <point x="49" y="412" type="line"/>
      <point x="89" y="412"/>
      <point x="112" y="409"/>
      <point x="112" y="379" type="curve" smooth="yes"/>
      <point x="112" y="376"/>
      <point x="108" y="352"/>
      <point x="108" y="352" type="curve"/>
      <point x="12" y="-205" type="line"/>
      <point x="99" y="-205" type="line"/>
      <point x="99" y="-205"/>
      <point x="116" y="-104"/>
    </contour>
  </outline>
</glyph>
<glyph name="paragraph" format="1">
  <advance width="569"/>
  <unicode hex="00B6"/>
  <outline>
    <contour>
      <point x="377" y="667" type="line" smooth="yes"/>
      <point x="229" y="667"/>
      <point x="102" y="601"/>
      <point x="102" y="458" type="curve" smooth="yes"/>
      <point x="102" y="353"/>
      <point x="192" y="324"/>
      <point x="322" y="324" type="curve"/>
      <point x="283" y="80" type="line" smooth="yes"/>
      <point x="264" y="-36"/>
      <point x="273" y="-171"/>
      <point x="198" y="-171" type="curve" smooth="yes"/>
      <point x="179" y="-171"/>
      <point x="171" y="-158"/>
      <point x="171" y="-143" type="curve" smooth="yes"/>
      <point x="171" y="-131"/>
      <point x="177" y="-118"/>
      <point x="188" y="-112" type="curve"/>
      <point x="183" y="-88"/>
      <point x="162" y="-76"/>
      <point x="140" y="-76" type="curve" smooth="yes"/>
      <point x="111" y="-76"/>
      <point x="81" y="-97"/>
      <point x="81" y="-142" type="curve" smooth="yes"/>
      <point x="81" y="-190"/>
      <point x="122" y="-219"/>
      <point x="179" y="-219" type="curve" smooth="yes"/>
      <point x="351" y="-219"/>
      <point x="393" y="-51"/>
      <point x="412" y="69" type="curve" smooth="yes"/>
      <point x="498" y="604" type="line"/>
      <point x="527" y="620"/>
      <point x="563" y="626"/>
      <point x="597" y="630" type="curve"/>
      <point x="602" y="667" type="line"/>
    </contour>
    <contour>
      <point x="416" y="623" type="line"/>
      <point x="452" y="623" type="line"/>
      <point x="351" y="-13" type="line" smooth="yes"/>
      <point x="345" y="-53"/>
      <point x="324" y="-105"/>
      <point x="295" y="-122" type="curve"/>
      <point x="315" y="-75"/>
      <point x="319" y="16"/>
      <point x="326" y="61" type="curve" smooth="yes"/>
    </contour>
  </outline>
</glyph>
<glyph name="periodcentered" format="1">
  <advance width="241"/>
  <unicode hex="00B7"/>
  <outline>
    <contour>
      <point x="150" y="351" type="curve" smooth="yes"/>
      <point x="112" y="351"/>
      <point x="90" y="316"/>
      <point x="90" y="278" type="curve" smooth="yes"/>
      <point x="90" y="253"/>
      <point x="107" y="235"/>
      <point x="133" y="235" type="curve" smooth="yes"/>
      <point x="171" y="235"/>
      <point x="193" y="270"/>
      <point x="193" y="308" type="curve" smooth="yes"/>
      <point x="193" y="333"/>
      <point x="175" y="351"/>
    </contour>
  </outline>
</glyph>
<glyph name="cedilla" format="1">
  <advance width="271"/>
  <unicode hex="00B8"/>
  <outline>
    <contour>
      <point x="113" y="-56" type="line"/>
      <point x="128" y="-76" type="line"/>
      <point x="153" y="-80"/>
      <point x="177" y="-89"/>
      <point x="177" y="-114" type="curve" smooth="yes"/>
      <point x="177" y="-151"/>
      <point x="154" y="-171"/>
      <point x="125" y="-171" type="curve" smooth="yes"/>
      <point x="103" y="-171"/>
      <point x="86" y="-156"/>
      <point x="86" y="-132" type="curve" smooth="yes"/>
      <point x="86" y="-121"/>
      <point x="91" y="-113"/>
      <point x="95" y="-103" type="curve"/>
      <point x="88" y="-100"/>
      <point x="83" y="-99"/>
      <point x="77" y="-99" type="curve" smooth="yes"/>
      <point x="53" y="-99"/>
      <point x="37" y="-124"/>
      <point x="37" y="-147" type="curve" smooth="yes"/>
      <point x="37" y="-175"/>
      <point x="60" y="-204"/>
      <point x="119" y="-204" type="curve" smooth="yes"/>
      <point x="182" y="-204"/>
      <point x="227" y="-160"/>
      <point x="227" y="-108" type="curve" smooth="yes"/>
      <point x="227" y="-70"/>
      <point x="202" y="-54"/>
      <point x="163" y="-46" type="curve"/>
      <point x="189" y="4" type="line"/>
      <point x="163" y="9" type="line"/>
    </contour>
  </outline>
</glyph>
<glyph name="onesuperior" format="1">
  <advance width="395"/>
  <unicode hex="00B9"/>
  <outline>
    <contour>
      <point x="56" y="405" type="line"/>
      <point x="291" y="405" type="line"/>
      <point x="299" y="435" type="line"/>
      <point x="284" y="436"/>
      <point x="237" y="443"/>
      <point x="220" y="452" type="curve"/>
      <point x="275" y="802" type="line"/>
      <point x="251" y="812" type="line"/>
      <point x="210" y="794"/>
      <point x="166" y="783"/>
      <point x="119" y="779" type="curve"/>
      <point x="113" y="743" type="line"/>
      <point x="201" y="743" type="line"/>
      <point x="155" y="452" type="line"/>
      <point x="132" y="444"/>
      <point x="101" y="439"/>
      <point x="63" y="435" type="curve"/>
    </contour>
  </outline>
</glyph>
<glyph name="ordmasculine" format="1">
  <advance width="406"/>
  <unicode hex="00BA"/>
  <outline>
    <contour>
      <point x="251" y="627" type="curve" smooth="yes"/>
      <point x="276" y="627"/>
      <point x="286" y="599"/>
      <point x="286" y="557" type="curve" smooth="yes"/>
      <point x="286" y="460"/>
      <point x="242" y="377"/>
      <point x="196" y="377" type="curve" smooth="yes"/>
      <point x="171" y="377"/>
      <point x="160" y="405"/>
      <point x="160" y="449" type="curve" smooth="yes"/>
      <point x="160" y="546"/>
      <point x="205" y="627"/>
    </contour>
    <contour>
      <point x="250" y="665" type="curve" smooth="yes"/>
      <point x="142" y="665"/>
      <point x="87" y="562"/>
      <point x="87" y="455" type="curve" smooth="yes"/>
      <point x="87" y="382"/>
      <point x="125" y="340"/>
      <point x="197" y="340" type="curve" smooth="yes"/>
      <point x="303" y="340"/>
      <point x="358" y="444"/>
      <point x="358" y="549" type="curve" smooth="yes"/>
      <point x="358" y="622"/>
      <point x="321" y="665"/>
    </contour>
    <contour>
      <point x="50" y="256" type="line"/>
      <point x="337" y="256" type="line"/>
      <point x="342" y="290" type="line"/>
      <point x="55" y="290" type="line"/>
    </contour>
  </outline>
</glyph>
<glyph name="guillemotright" format="1">
  <advance width="469"/>
  <unicode hex="00BB"/>
  <outline>
    <contour>
      <point x="133" y="439" type="line"/>
      <point x="90" y="415" type="line"/>
      <point x="162" y="241" type="line"/>
      <point x="35" y="68" type="line"/>
      <point x="70" y="43" type="line"/>
      <point x="261" y="241" type="line"/>
    </contour>
    <contour>
      <point x="314" y="439" type="line"/>
      <point x="271" y="415" type="line"/>
      <point x="343" y="241" type="line"/>
      <point x="216" y="68" type="line"/>
      <point x="251" y="43" type="line"/>
      <point x="442" y="241" type="line"/>
    </contour>
  </outline>
</glyph>
<glyph name="onequarter" format="1">
  <advance width="858"/>
  <unicode hex="00BC"/>
  <outline>
    <contour>
      <point x="277" y="-32" type="line"/>
      <point x="697" y="657" type="line"/>
      <point x="650" y="680" type="line"/>
      <point x="231" y="-6" type="line"/>
    </contour>
    <contour>
      <point x="112" y="295" type="line"/>
      <point x="308" y="295" type="line"/>
      <point x="314" y="323" type="line"/>
      <point x="254" y="339" type="line"/>
      <point x="305" y="662" type="line"/>
      <point x="281" y="672" type="line"/>
      <point x="245" y="655"/>
      <point x="203" y="644"/>
      <point x="161" y="637" type="curve"/>
      <point x="156" y="609" type="line"/>
      <point x="233" y="609" type="line"/>
      <point x="191" y="339" type="line"/>
      <point x="119" y="323" type="line"/>
    </contour>
    <contour>
      <point x="652" y="99" type="line"/>
      <point x="643" y="42" type="line"/>
      <point x="628" y="35"/>
      <point x="609" y="32"/>
      <point x="590" y="29" type="curve"/>
      <point x="580" y="0" type="line"/>
      <point x="745" y="0" type="line"/>
      <point x="754" y="29" type="line"/>
      <point x="737" y="32"/>
      <point x="720" y="35"/>
      <point x="706" y="42" type="curve"/>
      <point x="715" y="99" type="line"/>
      <point x="769" y="99" type="line"/>
      <point x="775" y="139" type="line"/>
      <point x="721" y="139" type="line"/>
      <point x="758" y="371" type="line"/>
      <point x="691" y="371" type="line"/>
      <point x="489" y="123" type="line"/>
      <point x="491" y="99" type="line"/>
    </contour>
    <contour>
      <point x="554" y="139" type="line"/>
      <point x="684" y="300" type="line"/>
      <point x="658" y="139" type="line"/>
    </contour>
  </outline>
</glyph>
<glyph name="onehalf" format="1">
  <advance width="882"/>
  <unicode hex="00BD"/>
  <outline>
    <contour>
      <point x="524" y="0" type="line"/>
      <point x="792" y="0" type="line"/>
      <point x="800" y="52" type="line"/>
      <point x="614" y="52" type="line"/>
      <point x="771" y="157"/>
      <point x="820" y="220"/>
      <point x="820" y="286" type="curve" smooth="yes"/>
      <point x="820" y="343"/>
      <point x="780" y="377"/>
      <point x="709" y="377" type="curve" smooth="yes"/>
      <point x="636" y="377"/>
      <point x="569" y="329"/>
      <point x="569" y="276" type="curve" smooth="yes"/>
      <point x="569" y="248"/>
      <point x="586" y="237"/>
      <point x="605" y="237" type="curve" smooth="yes"/>
      <point x="631" y="237"/>
      <point x="637" y="256"/>
      <point x="637" y="276" type="curve" smooth="yes"/>
      <point x="637" y="279" type="line" smooth="yes"/>
      <point x="637" y="311"/>
      <point x="661" y="338"/>
      <point x="703" y="338" type="curve" smooth="yes"/>
      <point x="736" y="338"/>
      <point x="753" y="321"/>
      <point x="753" y="289" type="curve" smooth="yes"/>
      <point x="753" y="225"/>
      <point x="712" y="172"/>
      <point x="530" y="40" type="curve"/>
    </contour>
    <contour>
      <point x="277" y="-32" type="line"/>
      <point x="697" y="657" type="line"/>
      <point x="650" y="680" type="line"/>
      <point x="231" y="-6" type="line"/>
    </contour>
    <contour>
      <point x="112" y="295" type="line"/>
      <point x="308" y="295" type="line"/>
      <point x="314" y="323" type="line"/>
      <point x="254" y="339" type="line"/>
      <point x="305" y="662" type="line"/>
      <point x="281" y="672" type="line"/>
      <point x="245" y="655"/>
      <point x="203" y="644"/>
      <point x="161" y="637" type="curve"/>
      <point x="156" y="609" type="line"/>
      <point x="233" y="609" type="line"/>
      <point x="191" y="339" type="line"/>
      <point x="119" y="323" type="line"/>
    </contour>
  </outline>
</glyph>
<glyph name="threequarters" format="1">
  <advance width="858"/>
  <unicode hex="00BE"/>
  <outline>
    <contour>
      <point x="214" y="472" type="line"/>
      <point x="218" y="472" type="line" smooth="yes"/>
      <point x="280" y="471"/>
      <point x="310" y="444"/>
      <point x="310" y="405" type="curve" smooth="yes"/>
      <point x="310" y="358"/>
      <point x="282" y="327"/>
      <point x="234" y="327" type="curve" smooth="yes"/>
      <point x="198" y="327"/>
      <point x="179" y="343"/>
      <point x="179" y="368" type="curve" smooth="yes"/>
      <point x="179" y="379"/>
      <point x="183" y="390"/>
      <point x="190" y="402" type="curve"/>
      <point x="180" y="410"/>
      <point x="168" y="415"/>
      <point x="157" y="415" type="curve" smooth="yes"/>
      <point x="134" y="415"/>
      <point x="109" y="401"/>
      <point x="109" y="368" type="curve" smooth="yes"/>
      <point x="109" y="321"/>
      <point x="151" y="288"/>
      <point x="225" y="288" type="curve" smooth="yes"/>
      <point x="312" y="288"/>
      <point x="377" y="341"/>
      <point x="377" y="409" type="curve" smooth="yes"/>
      <point x="377" y="445"/>
      <point x="357" y="475"/>
      <point x="309" y="489" type="curve"/>
      <point x="374" y="512"/>
      <point x="397" y="558"/>
      <point x="397" y="589" type="curve" smooth="yes"/>
      <point x="397" y="636"/>
      <point x="357" y="669"/>
      <point x="291" y="669" type="curve" smooth="yes"/>
      <point x="216" y="669"/>
      <point x="158" y="630"/>
      <point x="158" y="582" type="curve" smooth="yes"/>
      <point x="158" y="562"/>
      <point x="168" y="548"/>
      <point x="187" y="548" type="curve" smooth="yes"/>
      <point x="199" y="548"/>
      <point x="211" y="552"/>
      <point x="226" y="562" type="curve"/>
      <point x="223" y="568"/>
      <point x="222" y="574"/>
      <point x="222" y="580" type="curve" smooth="yes"/>
      <point x="222" y="605"/>
      <point x="244" y="630"/>
      <point x="284" y="630" type="curve" smooth="yes"/>
      <point x="314" y="630"/>
      <point x="331" y="614"/>
      <point x="331" y="586" type="curve" smooth="yes"/>
      <point x="331" y="534"/>
      <point x="289" y="505"/>
      <point x="219" y="503" type="curve"/>
    </contour>
    <contour>
      <point x="652" y="99" type="line"/>
      <point x="643" y="42" type="line"/>
      <point x="628" y="35"/>
      <point x="609" y="32"/>
      <point x="590" y="29" type="curve"/>
      <point x="580" y="0" type="line"/>
      <point x="745" y="0" type="line"/>
      <point x="754" y="29" type="line"/>
      <point x="737" y="32"/>
      <point x="720" y="35"/>
      <point x="706" y="42" type="curve"/>
      <point x="715" y="99" type="line"/>
      <point x="769" y="99" type="line"/>
      <point x="775" y="139" type="line"/>
      <point x="721" y="139" type="line"/>
      <point x="758" y="371" type="line"/>
      <point x="691" y="371" type="line"/>
      <point x="489" y="123" type="line"/>
      <point x="491" y="99" type="line"/>
    </contour>
    <contour>
      <point x="554" y="139" type="line"/>
      <point x="684" y="300" type="line"/>
      <point x="658" y="139" type="line"/>
    </contour>
    <contour>
      <point x="277" y="-32" type="line"/>
      <point x="697" y="657" type="line"/>
      <point x="650" y="680" type="line"/>
      <point x="231" y="-6" type="line"/>
    </contour>
  </outline>
</glyph>
<glyph name="questiondown" format="1">
  <advance width="407"/>
  <unicode hex="00BF"/>
  <outline>
    <contour>
      <point x="266" y="214" type="curve" smooth="yes"/>
      <point x="266" y="241"/>
      <point x="254" y="263"/>
      <point x="226" y="263" type="curve" smooth="yes"/>
      <point x="209" y="263"/>
      <point x="191" y="254"/>
      <point x="180" y="246" type="curve"/>
      <point x="180" y="240"/>
      <point x="181" y="228"/>
      <point x="181" y="222" type="curve" smooth="yes"/>
      <point x="181" y="98"/>
      <point x="-26" y="81"/>
      <point x="-26" y="-83" type="curve" smooth="yes"/>
      <point x="-26" y="-158"/>
      <point x="37" y="-191"/>
      <point x="121" y="-191" type="curve" smooth="yes"/>
      <point x="198" y="-191"/>
      <point x="291" y="-155"/>
      <point x="291" y="-73" type="curve" smooth="yes"/>
      <point x="291" y="-44"/>
      <point x="271" y="-31"/>
      <point x="249" y="-31" type="curve" smooth="yes"/>
      <point x="229" y="-31"/>
      <point x="208" y="-42"/>
      <point x="196" y="-61" type="curve"/>
      <point x="200" y="-71"/>
      <point x="203" y="-81"/>
      <point x="203" y="-89" type="curve" smooth="yes"/>
      <point x="203" y="-127"/>
      <point x="164" y="-148"/>
      <point x="123" y="-148" type="curve" smooth="yes"/>
      <point x="81" y="-148"/>
      <point x="52" y="-122"/>
      <point x="52" y="-83" type="curve" smooth="yes"/>
      <point x="52" y="49"/>
      <point x="266" y="71"/>
    </contour>
    <contour>
      <point x="253" y="487" type="curve" smooth="yes"/>
      <point x="215" y="487"/>
      <point x="193" y="452"/>
      <point x="193" y="414" type="curve" smooth="yes"/>
      <point x="193" y="389"/>
      <point x="210" y="371"/>
      <point x="236" y="371" type="curve" smooth="yes"/>
      <point x="274" y="371"/>
      <point x="296" y="406"/>
      <point x="296" y="444" type="curve" smooth="yes"/>
      <point x="296" y="469"/>
      <point x="278" y="487"/>
    </contour>
  </outline>
</glyph>
<glyph name="Agrave" format="1">
  <advance width="588"/>
  <unicode hex="00C0"/>
  <outline>
    <contour>
      <point x="298" y="0" type="line"/>
      <point x="563" y="0" type="line"/>
      <point x="567" y="37" type="line"/>
      <point x="544" y="41"/>
      <point x="518" y="46"/>
      <point x="496" y="62" type="curve"/>
      <point x="394" y="667" type="line"/>
      <point x="329" y="667" type="line"/>
      <point x="57" y="60" type="line"/>
      <point x="35" y="45"/>
      <point x="10" y="41"/>
      <point x="-16" y="37" type="curve"/>
      <point x="-21" y="0" type="line"/>
      <point x="214" y="0" type="line"/>
      <point x="219" y="37" type="line"/>
      <point x="187" y="41"/>
      <point x="152" y="47"/>
      <point x="124" y="62" type="curve"/>
      <point x="190" y="215" type="line"/>
      <point x="376" y="215" type="line"/>
      <point x="399" y="63" type="line"/>
      <point x="394" y="63" type="line"/>
      <point x="366" y="46"/>
      <point x="336" y="41"/>
      <point x="304" y="37" type="curve"/>
    </contour>
    <contour>
      <point x="328" y="534" type="line"/>
      <point x="368" y="267" type="line"/>
      <point x="212" y="267" type="line"/>
    </contour>
    <contour>
      <point x="414" y="720" type="line"/>
      <point x="349" y="836" type="line" smooth="yes"/>
      <point x="342" y="848"/>
      <point x="334" y="853"/>
      <point x="320" y="853" type="curve" smooth="yes"/>
      <point x="299" y="853"/>
      <point x="278" y="833"/>
      <point x="278" y="813" type="curve" smooth="yes"/>
      <point x="278" y="800"/>
      <point x="285" y="790"/>
      <point x="297" y="779" type="curve" smooth="yes"/>
      <point x="388" y="696" type="line"/>
    </contour>
  </outline>
</glyph>
<glyph name="Aacute" format="1">
  <advance width="588"/>
  <unicode hex="00C1"/>
  <outline>
    <contour>
      <point x="298" y="0" type="line"/>
      <point x="563" y="0" type="line"/>
      <point x="567" y="37" type="line"/>
      <point x="544" y="41"/>
      <point x="518" y="46"/>
      <point x="496" y="62" type="curve"/>
      <point x="394" y="667" type="line"/>
      <point x="329" y="667" type="line"/>
      <point x="57" y="60" type="line"/>
      <point x="35" y="45"/>
      <point x="10" y="41"/>
      <point x="-16" y="37" type="curve"/>
      <point x="-21" y="0" type="line"/>
      <point x="214" y="0" type="line"/>
      <point x="219" y="37" type="line"/>
      <point x="187" y="41"/>
      <point x="152" y="47"/>
      <point x="124" y="62" type="curve"/>
      <point x="190" y="215" type="line"/>
      <point x="376" y="215" type="line"/>
      <point x="399" y="63" type="line"/>
      <point x="394" y="63" type="line"/>
      <point x="366" y="46"/>
      <point x="336" y="41"/>
      <point x="304" y="37" type="curve"/>
    </contour>
    <contour>
      <point x="328" y="534" type="line"/>
      <point x="368" y="267" type="line"/>
      <point x="212" y="267" type="line"/>
    </contour>
    <contour>
      <point x="340" y="696" type="line"/>
      <point x="462" y="780" type="line" smooth="yes"/>
      <point x="480" y="793"/>
      <point x="485" y="804"/>
      <point x="485" y="819" type="curve" smooth="yes"/>
      <point x="485" y="839"/>
      <point x="468" y="853"/>
      <point x="451" y="853" type="curve" smooth="yes"/>
      <point x="436" y="853"/>
      <point x="426" y="849"/>
      <point x="415" y="837" type="curve" smooth="yes"/>
      <point x="318" y="721" type="line"/>
    </contour>
  </outline>
</glyph>
<glyph name="Acircumflex" format="1">
  <advance width="588"/>
  <unicode hex="00C2"/>
  <outline>
    <contour>
      <point x="298" y="0" type="line"/>
      <point x="563" y="0" type="line"/>
      <point x="567" y="37" type="line"/>
      <point x="544" y="41"/>
      <point x="518" y="46"/>
      <point x="496" y="62" type="curve"/>
      <point x="394" y="667" type="line"/>
      <point x="329" y="667" type="line"/>
      <point x="57" y="60" type="line"/>
      <point x="35" y="45"/>
      <point x="10" y="41"/>
      <point x="-16" y="37" type="curve"/>
      <point x="-21" y="0" type="line"/>
      <point x="214" y="0" type="line"/>
      <point x="219" y="37" type="line"/>
      <point x="187" y="41"/>
      <point x="152" y="47"/>
      <point x="124" y="62" type="curve"/>
      <point x="190" y="215" type="line"/>
      <point x="376" y="215" type="line"/>
      <point x="399" y="63" type="line"/>
      <point x="394" y="63" type="line"/>
      <point x="366" y="46"/>
      <point x="336" y="41"/>
      <point x="304" y="37" type="curve"/>
    </contour>
    <contour>
      <point x="328" y="534" type="line"/>
      <point x="368" y="267" type="line"/>
      <point x="212" y="267" type="line"/>
    </contour>
    <contour>
      <point x="491" y="720" type="line"/>
      <point x="415" y="827" type="line" smooth="yes"/>
      <point x="407" y="838"/>
      <point x="398" y="843"/>
      <point x="386" y="843" type="curve" smooth="yes"/>
      <point x="374" y="843"/>
      <point x="363" y="837"/>
      <point x="353" y="827" type="curve" smooth="yes"/>
      <point x="244" y="720" type="line"/>
      <point x="265" y="696" type="line"/>
      <point x="377" y="771" type="line"/>
      <point x="465" y="696" type="line"/>
    </contour>
  </outline>
</glyph>
<glyph name="Atilde" format="1">
  <advance width="588"/>
  <unicode hex="00C3"/>
  <outline>
    <contour>
      <point x="298" y="0" type="line"/>
      <point x="563" y="0" type="line"/>
      <point x="567" y="37" type="line"/>
      <point x="544" y="41"/>
      <point x="518" y="46"/>
      <point x="496" y="62" type="curve"/>
      <point x="394" y="667" type="line"/>
      <point x="329" y="667" type="line"/>
      <point x="57" y="60" type="line"/>
      <point x="35" y="45"/>
      <point x="10" y="41"/>
      <point x="-16" y="37" type="curve"/>
      <point x="-21" y="0" type="line"/>
      <point x="214" y="0" type="line"/>
      <point x="219" y="37" type="line"/>
      <point x="187" y="41"/>
      <point x="152" y="47"/>
      <point x="124" y="62" type="curve"/>
      <point x="190" y="215" type="line"/>
      <point x="376" y="215" type="line"/>
      <point x="399" y="63" type="line"/>
      <point x="394" y="63" type="line"/>
      <point x="366" y="46"/>
      <point x="336" y="41"/>
      <point x="304" y="37" type="curve"/>
    </contour>
    <contour>
      <point x="328" y="534" type="line"/>
      <point x="368" y="267" type="line"/>
      <point x="212" y="267" type="line"/>
    </contour>
    <contour>
      <point x="253" y="722" type="curve"/>
      <point x="274" y="741"/>
      <point x="296" y="759"/>
      <point x="321" y="759" type="curve" smooth="yes"/>
      <point x="360" y="759"/>
      <point x="382" y="723"/>
      <point x="428" y="723" type="curve" smooth="yes"/>
      <point x="476" y="723"/>
      <point x="520" y="777"/>
      <point x="536" y="803" type="curve"/>
      <point x="528" y="811"/>
      <point x="520" y="818"/>
      <point x="506" y="823" type="curve"/>
      <point x="485" y="804"/>
      <point x="463" y="784"/>
      <point x="436" y="784" type="curve" smooth="yes"/>
      <point x="399" y="784"/>
      <point x="375" y="820"/>
      <point x="333" y="820" type="curve" smooth="yes"/>
      <point x="281" y="820"/>
      <point x="239" y="768"/>
      <point x="224" y="742" type="curve"/>
      <point x="231" y="734"/>
      <point x="239" y="726"/>
    </contour>
  </outline>
</glyph>
<glyph name="Aring" format="1">
  <advance width="588"/>
  <unicode hex="00C5"/>
  <outline>
    <contour>
      <point x="298" y="0" type="line"/>
      <point x="563" y="0" type="line"/>
      <point x="567" y="37" type="line"/>
      <point x="544" y="41"/>
      <point x="518" y="46"/>
      <point x="496" y="62" type="curve"/>
      <point x="394" y="667" type="line"/>
      <point x="329" y="667" type="line"/>
      <point x="57" y="60" type="line"/>
      <point x="35" y="45"/>
      <point x="10" y="41"/>
      <point x="-16" y="37" type="curve"/>
      <point x="-21" y="0" type="line"/>
      <point x="214" y="0" type="line"/>
      <point x="219" y="37" type="line"/>
      <point x="187" y="41"/>
      <point x="152" y="47"/>
      <point x="124" y="62" type="curve"/>
      <point x="190" y="215" type="line"/>
      <point x="376" y="215" type="line"/>
      <point x="399" y="63" type="line"/>
      <point x="394" y="63" type="line"/>
      <point x="366" y="46"/>
      <point x="336" y="41"/>
      <point x="304" y="37" type="curve"/>
    </contour>
    <contour>
      <point x="328" y="534" type="line"/>
      <point x="368" y="267" type="line"/>
      <point x="212" y="267" type="line"/>
    </contour>
    <contour>
      <point x="363" y="695" type="curve" smooth="yes"/>
      <point x="420" y="695"/>
      <point x="463" y="738"/>
      <point x="463" y="792" type="curve" smooth="yes"/>
      <point x="463" y="832"/>
      <point x="435" y="860"/>
      <point x="390" y="860" type="curve" smooth="yes"/>
      <point x="334" y="860"/>
      <point x="290" y="818"/>
      <point x="290" y="763" type="curve" smooth="yes"/>
      <point x="290" y="723"/>
      <point x="316" y="695"/>
    </contour>
    <contour>
      <point x="370" y="734" type="curve" smooth="yes"/>
      <point x="347" y="734"/>
      <point x="332" y="751"/>
      <point x="332" y="771" type="curve" smooth="yes"/>
      <point x="332" y="797"/>
      <point x="358" y="822"/>
      <point x="384" y="822" type="curve" smooth="yes"/>
      <point x="406" y="822"/>
      <point x="421" y="805"/>
      <point x="421" y="784" type="curve" smooth="yes"/>
      <point x="421" y="758"/>
      <point x="397" y="734"/>
    </contour>
  </outline>
</glyph>
<glyph name="Ccedilla" format="1">
  <advance width="540"/>
  <unicode hex="00C7"/>
  <outline>
    <contour>
      <point x="220" y="-56" type="line"/>
      <point x="235" y="-76" type="line"/>
      <point x="260" y="-80"/>
      <point x="284" y="-89"/>
      <point x="284" y="-114" type="curve" smooth="yes"/>
      <point x="284" y="-151"/>
      <point x="261" y="-171"/>
      <point x="232" y="-171" type="curve" smooth="yes"/>
      <point x="210" y="-171"/>
      <point x="193" y="-156"/>
      <point x="193" y="-132" type="curve" smooth="yes"/>
      <point x="193" y="-121"/>
      <point x="198" y="-113"/>
      <point x="202" y="-103" type="curve"/>
      <point x="195" y="-100"/>
      <point x="190" y="-99"/>
      <point x="184" y="-99" type="curve" smooth="yes"/>
      <point x="160" y="-99"/>
      <point x="144" y="-124"/>
      <point x="144" y="-147" type="curve" smooth="yes"/>
      <point x="144" y="-175"/>
      <point x="167" y="-204"/>
      <point x="226" y="-204" type="curve" smooth="yes"/>
      <point x="289" y="-204"/>
      <point x="334" y="-160"/>
      <point x="334" y="-108" type="curve" smooth="yes"/>
      <point x="334" y="-70"/>
      <point x="309" y="-54"/>
      <point x="270" y="-46" type="curve"/>
      <point x="291" y="-5" type="line"/>
      <point x="366" y="2"/>
      <point x="427" y="37"/>
      <point x="504" y="98" type="curve"/>
      <point x="472" y="141" type="line"/>
      <point x="403" y="86"/>
      <point x="340" y="51"/>
      <point x="277" y="51" type="curve" smooth="yes"/>
      <point x="212" y="51"/>
      <point x="167" y="98"/>
      <point x="167" y="213" type="curve" smooth="yes"/>
      <point x="167" y="422"/>
      <point x="236" y="623"/>
      <point x="385" y="624" type="curve" smooth="yes"/>
      <point x="438" y="622"/>
      <point x="463" y="592"/>
      <point x="463" y="560" type="curve" smooth="yes"/>
      <point x="463" y="543"/>
      <point x="456" y="525"/>
      <point x="443" y="511" type="curve"/>
      <point x="445" y="488"/>
      <point x="466" y="472"/>
      <point x="493" y="472" type="curve" smooth="yes"/>
      <point x="539" y="472"/>
      <point x="559" y="520"/>
      <point x="559" y="559" type="curve" smooth="yes"/>
      <point x="559" y="620"/>
      <point x="505" y="675"/>
      <point x="395" y="675" type="curve" smooth="yes"/>
      <point x="176" y="675"/>
      <point x="70" y="479"/>
      <point x="70" y="229" type="curve" smooth="yes"/>
      <point x="70" y="71"/>
      <point x="147" y="-7"/>
      <point x="256" y="-7" type="curve" smooth="yes"/>
      <point x="257" y="-7" type="line"/>
    </contour>
  </outline>
</glyph>
<glyph name="Igrave" format="1">
  <advance width="320"/>
  <unicode hex="00CC"/>
  <outline>
    <contour>
      <point x="7" y="0" type="line"/>
      <point x="271" y="0" type="line"/>
      <point x="276" y="37" type="line"/>
      <point x="244" y="41"/>
      <point x="213" y="47"/>
      <point x="186" y="63" type="curve"/>
      <point x="272" y="604" type="line"/>
      <point x="300" y="620"/>
      <point x="325" y="626"/>
      <point x="357" y="630" type="curve"/>
      <point x="362" y="667" type="line"/>
      <point x="103" y="667" type="line"/>
      <point x="98" y="630" type="line"/>
      <point x="131" y="626"/>
      <point x="159" y="619"/>
      <point x="184" y="604" type="curve"/>
      <point x="98" y="63" type="line"/>
      <point x="70" y="46"/>
      <point x="44" y="41"/>
      <point x="12" y="37" type="curve"/>
    </contour>
    <contour>
      <point x="294" y="730" type="line"/>
      <point x="229" y="846" type="line" smooth="yes"/>
      <point x="222" y="858"/>
      <point x="214" y="863"/>
      <point x="200" y="863" type="curve" smooth="yes"/>
      <point x="179" y="863"/>
      <point x="158" y="843"/>
      <point x="158" y="823" type="curve" smooth="yes"/>
      <point x="158" y="810"/>
      <point x="165" y="800"/>
      <point x="177" y="789" type="curve" smooth="yes"/>
      <point x="268" y="706" type="line"/>
    </contour>
  </outline>
</glyph>
<glyph name="Iacute" format="1">
  <advance width="320"/>
  <unicode hex="00CD"/>
  <outline>
    <contour>
      <point x="7" y="0" type="line"/>
      <point x="271" y="0" type="line"/>
      <point x="276" y="37" type="line"/>
      <point x="244" y="41"/>
      <point x="213" y="47"/>
      <point x="186" y="63" type="curve"/>
      <point x="272" y="604" type="line"/>
      <point x="300" y="620"/>
      <point x="325" y="626"/>
      <point x="357" y="630" type="curve"/>
      <point x="362" y="667" type="line"/>
      <point x="103" y="667" type="line"/>
      <point x="98" y="630" type="line"/>
      <point x="131" y="626"/>
      <point x="159" y="619"/>
      <point x="184" y="604" type="curve"/>
      <point x="98" y="63" type="line"/>
      <point x="70" y="46"/>
      <point x="44" y="41"/>
      <point x="12" y="37" type="curve"/>
    </contour>
    <contour>
      <point x="220" y="706" type="line"/>
      <point x="342" y="790" type="line" smooth="yes"/>
      <point x="360" y="803"/>
      <point x="365" y="814"/>
      <point x="365" y="829" type="curve" smooth="yes"/>
      <point x="365" y="849"/>
      <point x="348" y="863"/>
      <point x="331" y="863" type="curve" smooth="yes"/>
      <point x="316" y="863"/>
      <point x="306" y="859"/>
      <point x="295" y="847" type="curve" smooth="yes"/>
      <point x="198" y="731" type="line"/>
    </contour>
  </outline>
</glyph>
<glyph name="Icircumflex" format="1">
  <advance width="320"/>
  <unicode hex="00CE"/>
  <outline>
    <contour>
      <point x="7" y="0" type="line"/>
      <point x="271" y="0" type="line"/>
      <point x="276" y="37" type="line"/>
      <point x="244" y="41"/>
      <point x="213" y="47"/>
      <point x="186" y="63" type="curve"/>
      <point x="272" y="604" type="line"/>
      <point x="300" y="620"/>
      <point x="325" y="626"/>
      <point x="357" y="630" type="curve"/>
      <point x="362" y="667" type="line"/>
      <point x="103" y="667" type="line"/>
      <point x="98" y="630" type="line"/>
      <point x="131" y="626"/>
      <point x="159" y="619"/>
      <point x="184" y="604" type="curve"/>
      <point x="98" y="63" type="line"/>
      <point x="70" y="46"/>
      <point x="44" y="41"/>
      <point x="12" y="37" type="curve"/>
    </contour>
    <contour>
      <point x="371" y="730" type="line"/>
      <point x="295" y="837" type="line" smooth="yes"/>
      <point x="287" y="848"/>
      <point x="278" y="853"/>
      <point x="266" y="853" type="curve" smooth="yes"/>
      <point x="254" y="853"/>
      <point x="243" y="847"/>
      <point x="233" y="837" type="curve" smooth="yes"/>
      <point x="124" y="730" type="line"/>
      <point x="145" y="706" type="line"/>
      <point x="257" y="781" type="line"/>
      <point x="345" y="706" type="line"/>
    </contour>
  </outline>
</glyph>
<glyph name="Idieresis" format="1">
  <advance width="320"/>
  <unicode hex="00CF"/>
  <outline>
    <contour>
      <point x="7" y="0" type="line"/>
      <point x="271" y="0" type="line"/>
      <point x="276" y="37" type="line"/>
      <point x="244" y="41"/>
      <point x="213" y="47"/>
      <point x="186" y="63" type="curve"/>
      <point x="272" y="604" type="line"/>
      <point x="300" y="620"/>
      <point x="325" y="626"/>
      <point x="357" y="630" type="curve"/>
      <point x="362" y="667" type="line"/>
      <point x="103" y="667" type="line"/>
      <point x="98" y="630" type="line"/>
      <point x="131" y="626"/>
      <point x="159" y="619"/>
      <point x="184" y="604" type="curve"/>
      <point x="98" y="63" type="line"/>
      <point x="70" y="46"/>
      <point x="44" y="41"/>
      <point x="12" y="37" type="curve"/>
    </contour>
    <contour>
      <point x="162" y="728" type="curve" smooth="yes"/>
      <point x="195" y="728"/>
      <point x="216" y="752"/>
      <point x="216" y="793" type="curve" smooth="yes"/>
      <point x="216" y="817"/>
      <point x="201" y="833"/>
      <point x="174" y="833" type="curve" smooth="yes"/>
      <point x="141" y="833"/>
      <point x="120" y="809"/>
      <point x="120" y="768" type="curve" smooth="yes"/>
      <point x="120" y="743"/>
      <point x="135" y="728"/>
    </contour>
    <contour>
      <point x="329" y="728" type="curve" smooth="yes"/>
      <point x="362" y="728"/>
      <point x="383" y="752"/>
      <point x="383" y="793" type="curve" smooth="yes"/>
      <point x="383" y="817"/>
      <point x="368" y="833"/>
      <point x="341" y="833" type="curve" smooth="yes"/>
      <point x="308" y="833"/>
      <point x="287" y="809"/>
      <point x="287" y="768" type="curve" smooth="yes"/>
      <point x="287" y="743"/>
      <point x="302" y="728"/>
    </contour>
  </outline>
</glyph>
<glyph name="Ntilde" format="1">
  <advance width="671"/>
  <unicode hex="00D1"/>
  <outline>
    <contour>
      <point x="251" y="667" type="line"/>
      <point x="97" y="667" type="line"/>
      <point x="92" y="630" type="line"/>
      <point x="124" y="626"/>
      <point x="152" y="619"/>
      <point x="177" y="604" type="curve"/>
      <point x="90" y="62" type="line"/>
      <point x="62" y="46"/>
      <point x="38" y="41"/>
      <point x="6" y="37" type="curve"/>
      <point x="0" y="0" type="line"/>
      <point x="241" y="0" type="line"/>
      <point x="245" y="37" type="line"/>
      <point x="213" y="41"/>
      <point x="183" y="47"/>
      <point x="154" y="63" type="curve"/>
      <point x="226" y="510" type="line"/>
      <point x="473" y="0" type="line"/>
      <point x="514" y="0" type="line"/>
      <point x="610" y="604" type="line"/>
      <point x="638" y="620"/>
      <point x="663" y="626"/>
      <point x="695" y="630" type="curve"/>
      <point x="700" y="667" type="line"/>
      <point x="464" y="667" type="line"/>
      <point x="460" y="630" type="line"/>
      <point x="492" y="626"/>
      <point x="521" y="619"/>
      <point x="545" y="604" type="curve"/>
      <point x="480" y="193" type="line"/>
    </contour>
    <contour>
      <point x="284" y="732" type="curve"/>
      <point x="305" y="751"/>
      <point x="327" y="769"/>
      <point x="352" y="769" type="curve" smooth="yes"/>
      <point x="391" y="769"/>
      <point x="413" y="733"/>
      <point x="459" y="733" type="curve" smooth="yes"/>
      <point x="507" y="733"/>
      <point x="551" y="787"/>
      <point x="567" y="813" type="curve"/>
      <point x="559" y="821"/>
      <point x="551" y="828"/>
      <point x="537" y="833" type="curve"/>
      <point x="516" y="814"/>
      <point x="494" y="794"/>
      <point x="467" y="794" type="curve" smooth="yes"/>
      <point x="430" y="794"/>
      <point x="406" y="830"/>
      <point x="364" y="830" type="curve" smooth="yes"/>
      <point x="312" y="830"/>
      <point x="270" y="778"/>
      <point x="255" y="752" type="curve"/>
      <point x="262" y="744"/>
      <point x="270" y="736"/>
    </contour>
  </outline>
</glyph>
<glyph name="Ograve" format="1">
  <advance width="622"/>
  <unicode hex="00D2"/>
  <outline>
    <contour>
      <point x="274" y="40" type="curve" smooth="yes"/>
      <point x="192" y="40"/>
      <point x="160" y="103"/>
      <point x="160" y="216" type="curve" smooth="yes"/>
      <point x="160" y="464"/>
      <point x="259" y="627"/>
      <point x="394" y="627" type="curve" smooth="yes"/>
      <point x="477" y="627"/>
      <point x="508" y="562"/>
      <point x="508" y="446" type="curve" smooth="yes"/>
      <point x="508" y="201"/>
      <point x="407" y="40"/>
    </contour>
    <contour>
      <point x="387" y="675" type="curve" smooth="yes"/>
      <point x="165" y="675"/>
      <point x="61" y="457"/>
      <point x="61" y="234" type="curve" smooth="yes"/>
      <point x="61" y="77"/>
      <point x="126" y="-7"/>
      <point x="281" y="-7" type="curve" smooth="yes"/>
      <point x="502" y="-7"/>
      <point x="606" y="210"/>
      <point x="606" y="433" type="curve" smooth="yes"/>
      <point x="606" y="591"/>
      <point x="542" y="675"/>
    </contour>
    <contour>
      <point x="456" y="730" type="line"/>
      <point x="391" y="846" type="line" smooth="yes"/>
      <point x="384" y="858"/>
      <point x="376" y="863"/>
      <point x="362" y="863" type="curve" smooth="yes"/>
      <point x="341" y="863"/>
      <point x="320" y="843"/>
      <point x="320" y="823" type="curve" smooth="yes"/>
      <point x="320" y="810"/>
      <point x="327" y="800"/>
      <point x="339" y="789" type="curve" smooth="yes"/>
      <point x="430" y="706" type="line"/>
    </contour>
  </outline>
</glyph>
<glyph name="Oacute" format="1">
  <advance width="622"/>
  <unicode hex="00D3"/>
  <outline>
    <contour>
      <point x="274" y="40" type="curve" smooth="yes"/>
      <point x="192" y="40"/>
      <point x="160" y="103"/>
      <point x="160" y="216" type="curve" smooth="yes"/>
      <point x="160" y="464"/>
      <point x="259" y="627"/>
      <point x="394" y="627" type="curve" smooth="yes"/>
      <point x="477" y="627"/>
      <point x="508" y="562"/>
      <point x="508" y="446" type="curve" smooth="yes"/>
      <point x="508" y="201"/>
      <point x="407" y="40"/>
    </contour>
    <contour>
      <point x="387" y="675" type="curve" smooth="yes"/>
      <point x="165" y="675"/>
      <point x="61" y="457"/>
      <point x="61" y="234" type="curve" smooth="yes"/>
      <point x="61" y="77"/>
      <point x="126" y="-7"/>
      <point x="281" y="-7" type="curve" smooth="yes"/>
      <point x="502" y="-7"/>
      <point x="606" y="210"/>
      <point x="606" y="433" type="curve" smooth="yes"/>
      <point x="606" y="591"/>
      <point x="542" y="675"/>
    </contour>
    <contour>
      <point x="382" y="706" type="line"/>
      <point x="504" y="790" type="line" smooth="yes"/>
      <point x="522" y="803"/>
      <point x="527" y="814"/>
      <point x="527" y="829" type="curve" smooth="yes"/>
      <point x="527" y="849"/>
      <point x="510" y="863"/>
      <point x="493" y="863" type="curve" smooth="yes"/>
      <point x="478" y="863"/>
      <point x="468" y="859"/>
      <point x="457" y="847" type="curve" smooth="yes"/>
      <point x="360" y="731" type="line"/>
    </contour>
  </outline>
</glyph>
<glyph name="Ocircumflex" format="1">
  <advance width="622"/>
  <unicode hex="00D4"/>
  <outline>
    <contour>
      <point x="274" y="40" type="curve" smooth="yes"/>
      <point x="192" y="40"/>
      <point x="160" y="103"/>
      <point x="160" y="216" type="curve" smooth="yes"/>
      <point x="160" y="464"/>
      <point x="259" y="627"/>
      <point x="394" y="627" type="curve" smooth="yes"/>
      <point x="477" y="627"/>
      <point x="508" y="562"/>
      <point x="508" y="446" type="curve" smooth="yes"/>
      <point x="508" y="201"/>
      <point x="407" y="40"/>
    </contour>
    <contour>
      <point x="387" y="675" type="curve" smooth="yes"/>
      <point x="165" y="675"/>
      <point x="61" y="457"/>
      <point x="61" y="234" type="curve" smooth="yes"/>
      <point x="61" y="77"/>
      <point x="126" y="-7"/>
      <point x="281" y="-7" type="curve" smooth="yes"/>
      <point x="502" y="-7"/>
      <point x="606" y="210"/>
      <point x="606" y="433" type="curve" smooth="yes"/>
      <point x="606" y="591"/>
      <point x="542" y="675"/>
    </contour>
    <contour>
      <point x="533" y="730" type="line"/>
      <point x="457" y="837" type="line" smooth="yes"/>
      <point x="449" y="848"/>
      <point x="440" y="853"/>
      <point x="428" y="853" type="curve" smooth="yes"/>
      <point x="416" y="853"/>
      <point x="405" y="847"/>
      <point x="395" y="837" type="curve" smooth="yes"/>
      <point x="286" y="730" type="line"/>
      <point x="307" y="706" type="line"/>
      <point x="419" y="781" type="line"/>
      <point x="507" y="706" type="line"/>
    </contour>
  </outline>
</glyph>
<glyph name="Otilde" format="1">
  <advance width="622"/>
  <unicode hex="00D5"/>
  <outline>
    <contour>
      <point x="274" y="40" type="curve" smooth="yes"/>
      <point x="192" y="40"/>
      <point x="160" y="103"/>
      <point x="160" y="216" type="curve" smooth="yes"/>
      <point x="160" y="464"/>
      <point x="259" y="627"/>
      <point x="394" y="627" type="curve" smooth="yes"/>
      <point x="477" y="627"/>
      <point x="508" y="562"/>
      <point x="508" y="446" type="curve" smooth="yes"/>
      <point x="508" y="201"/>
      <point x="407" y="40"/>
    </contour>
    <contour>
      <point x="387" y="675" type="curve" smooth="yes"/>
      <point x="165" y="675"/>
      <point x="61" y="457"/>
      <point x="61" y="234" type="curve" smooth="yes"/>
      <point x="61" y="77"/>
      <point x="126" y="-7"/>
      <point x="281" y="-7" type="curve" smooth="yes"/>
      <point x="502" y="-7"/>
      <point x="606" y="210"/>
      <point x="606" y="433" type="curve" smooth="yes"/>
      <point x="606" y="591"/>
      <point x="542" y="675"/>
    </contour>
    <contour>
      <point x="295" y="732" type="curve"/>
      <point x="316" y="751"/>
      <point x="338" y="769"/>
      <point x="363" y="769" type="curve" smooth="yes"/>
      <point x="402" y="769"/>
      <point x="424" y="733"/>
      <point x="470" y="733" type="curve" smooth="yes"/>
      <point x="518" y="733"/>
      <point x="562" y="787"/>
      <point x="578" y="813" type="curve"/>
      <point x="570" y="821"/>
      <point x="562" y="828"/>
      <point x="548" y="833" type="curve"/>
      <point x="527" y="814"/>
      <point x="505" y="794"/>
      <point x="478" y="794" type="curve" smooth="yes"/>
      <point x="441" y="794"/>
      <point x="417" y="830"/>
      <point x="375" y="830" type="curve" smooth="yes"/>
      <point x="323" y="830"/>
      <point x="281" y="778"/>
      <point x="266" y="752" type="curve"/>
      <point x="273" y="744"/>
      <point x="281" y="736"/>
    </contour>
  </outline>
</glyph>
<glyph name="Odieresis" format="1">
  <advance width="622"/>
  <unicode hex="00D6"/>
  <outline>
    <contour>
      <point x="274" y="40" type="curve" smooth="yes"/>
      <point x="192" y="40"/>
      <point x="160" y="103"/>
      <point x="160" y="216" type="curve" smooth="yes"/>
      <point x="160" y="464"/>
      <point x="259" y="627"/>
      <point x="394" y="627" type="curve" smooth="yes"/>
      <point x="477" y="627"/>
      <point x="508" y="562"/>
      <point x="508" y="446" type="curve" smooth="yes"/>
      <point x="508" y="201"/>
      <point x="407" y="40"/>
    </contour>
    <contour>
      <point x="387" y="675" type="curve" smooth="yes"/>
      <point x="165" y="675"/>
      <point x="61" y="457"/>
      <point x="61" y="234" type="curve" smooth="yes"/>
      <point x="61" y="77"/>
      <point x="126" y="-7"/>
      <point x="281" y="-7" type="curve" smooth="yes"/>
      <point x="502" y="-7"/>
      <point x="606" y="210"/>
      <point x="606" y="433" type="curve" smooth="yes"/>
      <point x="606" y="591"/>
      <point x="542" y="675"/>
    </contour>
    <contour>
      <point x="329" y="728" type="curve" smooth="yes"/>
      <point x="362" y="728"/>
      <point x="383" y="752"/>
      <point x="383" y="793" type="curve" smooth="yes"/>
      <point x="383" y="817"/>
      <point x="368" y="833"/>
      <point x="341" y="833" type="curve" smooth="yes"/>
      <point x="308" y="833"/>
      <point x="287" y="809"/>
      <point x="287" y="768" type="curve" smooth="yes"/>
      <point x="287" y="743"/>
      <point x="302" y="728"/>
    </contour>
    <contour>
      <point x="496" y="728" type="curve" smooth="yes"/>
      <point x="529" y="728"/>
      <point x="550" y="752"/>
      <point x="550" y="793" type="curve" smooth="yes"/>
      <point x="550" y="817"/>
      <point x="535" y="833"/>
      <point x="508" y="833" type="curve" smooth="yes"/>
      <point x="475" y="833"/>
      <point x="454" y="809"/>
      <point x="454" y="768" type="curve" smooth="yes"/>
      <point x="454" y="743"/>
      <point x="469" y="728"/>
    </contour>
  </outline>
</glyph>
<glyph name="multiply" format="1">
  <advance width="528"/>
  <unicode hex="00D7"/>
  <outline>
    <contour>
      <point x="83" y="92" type="line"/>
      <point x="261" y="244" type="line"/>
      <point x="393" y="92" type="line"/>
      <point x="441" y="134" type="line"/>
      <point x="311" y="286" type="line"/>
      <point x="484" y="436" type="line"/>
      <point x="450" y="478" type="line"/>
      <point x="274" y="328" type="line"/>
      <point x="147" y="478" type="line"/>
      <point x="99" y="436" type="line"/>
      <point x="227" y="286" type="line"/>
      <point x="49" y="134" type="line"/>
    </contour>
  </outline>
</glyph>
<glyph name="Oslash" format="1">
  <advance width="622"/>
  <unicode hex="00D8"/>
  <outline>
    <contour>
      <point x="387" y="675" type="curve" smooth="yes"/>
      <point x="165" y="675"/>
      <point x="61" y="457"/>
      <point x="61" y="234" type="curve" smooth="yes"/>
      <point x="61" y="166"/>
      <point x="73" y="111"/>
      <point x="99" y="71" type="curve"/>
      <point x="40" y="-4" type="line"/>
      <point x="40" y="-4"/>
      <point x="51" y="-20"/>
      <point x="67" y="-28" type="curve"/>
      <point x="77" y="-27" type="line"/>
      <point x="128" y="38" type="line"/>
      <point x="164" y="8"/>
      <point x="214" y="-7"/>
      <point x="281" y="-7" type="curve" smooth="yes"/>
      <point x="502" y="-7"/>
      <point x="606" y="210"/>
      <point x="606" y="433" type="curve" smooth="yes"/>
      <point x="606" y="501"/>
      <point x="593" y="555"/>
      <point x="567" y="595" type="curve"/>
      <point x="619" y="661" type="line"/>
      <point x="619" y="661"/>
      <point x="608" y="677"/>
      <point x="592" y="685" type="curve"/>
      <point x="582" y="684" type="line"/>
      <point x="539" y="629" type="line"/>
      <point x="504" y="659"/>
      <point x="454" y="675"/>
    </contour>
    <contour>
      <point x="274" y="40" type="curve" smooth="yes"/>
      <point x="226" y="40"/>
      <point x="195" y="61"/>
      <point x="178" y="101" type="curve"/>
      <point x="503" y="514" type="line"/>
      <point x="506" y="494"/>
      <point x="508" y="471"/>
      <point x="508" y="446" type="curve" smooth="yes"/>
      <point x="508" y="201"/>
      <point x="407" y="40"/>
    </contour>
    <contour>
      <point x="160" y="237" type="curve" smooth="yes"/>
      <point x="166" y="473"/>
      <point x="262" y="627"/>
      <point x="394" y="627" type="curve" smooth="yes"/>
      <point x="441" y="627"/>
      <point x="472" y="606"/>
      <point x="489" y="566" type="curve"/>
      <point x="164" y="153" type="line"/>
      <point x="160" y="182"/>
      <point x="160" y="209"/>
    </contour>
  </outline>
</glyph>
<glyph name="Udieresis" format="1">
  <advance width="632"/>
  <unicode hex="00DC"/>
  <outline>
    <contour>
      <point x="679" y="667" type="line"/>
      <point x="445" y="667" type="line"/>
      <point x="440" y="630" type="line"/>
      <point x="473" y="626"/>
      <point x="501" y="619"/>
      <point x="526" y="604" type="curve"/>
      <point x="463" y="212" type="line" smooth="yes"/>
      <point x="446" y="104"/>
      <point x="385" y="45"/>
      <point x="292" y="45" type="curve" smooth="yes"/>
      <point x="213" y="45"/>
      <point x="173" y="77"/>
      <point x="173" y="157" type="curve" smooth="yes"/>
      <point x="173" y="172"/>
      <point x="174" y="188"/>
      <point x="177" y="207" type="curve" smooth="yes"/>
      <point x="241" y="605" type="line"/>
      <point x="268" y="620"/>
      <point x="293" y="626"/>
      <point x="324" y="630" type="curve"/>
      <point x="330" y="667" type="line"/>
      <point x="70" y="667" type="line"/>
      <point x="65" y="630" type="line"/>
      <point x="98" y="626"/>
      <point x="127" y="619"/>
      <point x="151" y="604" type="curve"/>
      <point x="87" y="207" type="line" smooth="yes"/>
      <point x="84" y="186"/>
      <point x="82" y="167"/>
      <point x="82" y="150" type="curve" smooth="yes"/>
      <point x="82" y="42"/>
      <point x="144" y="-7"/>
      <point x="282" y="-7" type="curve" smooth="yes"/>
      <point x="418" y="-7"/>
      <point x="505" y="72"/>
      <point x="527" y="212" type="curve" smooth="yes"/>
      <point x="590" y="605" type="line"/>
      <point x="617" y="620"/>
      <point x="642" y="626"/>
      <point x="673" y="630" type="curve"/>
    </contour>
    <contour>
      <point x="317" y="728" type="curve" smooth="yes"/>
      <point x="350" y="728"/>
      <point x="371" y="752"/>
      <point x="371" y="793" type="curve" smooth="yes"/>
      <point x="371" y="817"/>
      <point x="356" y="833"/>
      <point x="329" y="833" type="curve" smooth="yes"/>
      <point x="296" y="833"/>
      <point x="275" y="809"/>
      <point x="275" y="768" type="curve" smooth="yes"/>
      <point x="275" y="743"/>
      <point x="290" y="728"/>
    </contour>
    <contour>
      <point x="484" y="728" type="curve" smooth="yes"/>
      <point x="517" y="728"/>
      <point x="538" y="752"/>
      <point x="538" y="793" type="curve" smooth="yes"/>
      <point x="538" y="817"/>
      <point x="523" y="833"/>
      <point x="496" y="833" type="curve" smooth="yes"/>
      <point x="463" y="833"/>
      <point x="442" y="809"/>
      <point x="442" y="768" type="curve" smooth="yes"/>
      <point x="442" y="743"/>
      <point x="457" y="728"/>
    </contour>
  </outline>
</glyph>
<glyph name="Yacute" format="1">
  <advance width="548"/>
  <unicode hex="00DD"/>
  <outline>
    <contour>
      <point x="96" y="0" type="line"/>
      <point x="380" y="0" type="line"/>
      <point x="384" y="37" type="line"/>
      <point x="352" y="41"/>
      <point x="312" y="47"/>
      <point x="284" y="63" type="curve"/>
      <point x="319" y="285" type="line"/>
      <point x="520" y="606" type="line"/>
      <point x="546" y="621"/>
      <point x="570" y="626"/>
      <point x="601" y="630" type="curve"/>
      <point x="606" y="667" type="line"/>
      <point x="373" y="667" type="line"/>
      <point x="368" y="630" type="line"/>
      <point x="399" y="626"/>
      <point x="428" y="619"/>
      <point x="453" y="604" type="curve"/>
      <point x="297" y="347" type="line"/>
      <point x="219" y="607" type="line"/>
      <point x="245" y="621"/>
      <point x="269" y="626"/>
      <point x="299" y="630" type="curve"/>
      <point x="304" y="667" type="line"/>
      <point x="61" y="667" type="line"/>
      <point x="56" y="630" type="line"/>
      <point x="78" y="627"/>
      <point x="99" y="620"/>
      <point x="118" y="611" type="curve"/>
      <point x="228" y="272" type="line"/>
      <point x="196" y="63" type="line"/>
      <point x="168" y="46"/>
      <point x="133" y="41"/>
      <point x="101" y="37" type="curve"/>
    </contour>
    <contour>
      <point x="328" y="706" type="line"/>
      <point x="450" y="790" type="line" smooth="yes"/>
      <point x="468" y="803"/>
      <point x="473" y="814"/>
      <point x="473" y="829" type="curve" smooth="yes"/>
      <point x="473" y="849"/>
      <point x="456" y="863"/>
      <point x="439" y="863" type="curve" smooth="yes"/>
      <point x="424" y="863"/>
      <point x="414" y="859"/>
      <point x="403" y="847" type="curve" smooth="yes"/>
      <point x="306" y="731" type="line"/>
    </contour>
  </outline>
</glyph>
<glyph name="Thorn" format="1">
  <advance width="560"/>
  <unicode hex="00DE"/>
  <outline>
    <contour>
      <point x="7" y="0" type="line"/>
      <point x="271" y="0" type="line"/>
      <point x="276" y="37" type="line"/>
      <point x="244" y="41"/>
      <point x="213" y="47"/>
      <point x="186" y="63" type="curve"/>
      <point x="202" y="167" type="line"/>
      <point x="244" y="167" type="line" smooth="yes"/>
      <point x="411" y="167"/>
      <point x="539" y="215"/>
      <point x="539" y="390" type="curve" smooth="yes"/>
      <point x="539" y="479"/>
      <point x="480" y="531"/>
      <point x="346" y="531" type="curve" smooth="yes"/>
      <point x="260" y="531" type="line"/>
      <point x="272" y="604" type="line"/>
      <point x="300" y="620"/>
      <point x="325" y="626"/>
      <point x="357" y="630" type="curve"/>
      <point x="362" y="667" type="line"/>
      <point x="103" y="667" type="line"/>
      <point x="98" y="630" type="line"/>
      <point x="131" y="626"/>
      <point x="159" y="619"/>
      <point x="184" y="604" type="curve"/>
      <point x="97" y="63" type="line"/>
      <point x="69" y="46"/>
      <point x="44" y="41"/>
      <point x="12" y="37" type="curve"/>
    </contour>
    <contour>
      <point x="340" y="489" type="curve" smooth="yes"/>
      <point x="409" y="489"/>
      <point x="449" y="456"/>
      <point x="449" y="388" type="curve" smooth="yes"/>
      <point x="449" y="264"/>
      <point x="366" y="212"/>
      <point x="251" y="212" type="curve" smooth="yes"/>
      <point x="209" y="212" type="line"/>
      <point x="252" y="481" type="line"/>
      <point x="271" y="483"/>
      <point x="295" y="489"/>
    </contour>
  </outline>
</glyph>
<glyph name="germandbls" format="1">
  <advance width="566"/>
  <unicode hex="00DF"/>
  <outline>
    <contour>
      <point x="213" y="470" type="line" smooth="yes"/>
      <point x="226" y="562"/>
      <point x="246" y="647"/>
      <point x="339" y="647" type="curve" smooth="yes"/>
      <point x="396" y="647"/>
      <point x="422" y="615"/>
      <point x="422" y="564" type="curve" smooth="yes"/>
      <point x="422" y="494"/>
      <point x="354" y="404"/>
      <point x="274" y="391" type="curve"/>
      <point x="266" y="338" type="line"/>
      <point x="379" y="338"/>
      <point x="430" y="279"/>
      <point x="430" y="201" type="curve" smooth="yes"/>
      <point x="430" y="103"/>
      <point x="384" y="38"/>
      <point x="328" y="38" type="curve" smooth="yes"/>
      <point x="299" y="38"/>
      <point x="283" y="53"/>
      <point x="283" y="77" type="curve" smooth="yes"/>
      <point x="283" y="91"/>
      <point x="288" y="106"/>
      <point x="298" y="124" type="curve"/>
      <point x="286" y="131"/>
      <point x="274" y="134"/>
      <point x="262" y="134" type="curve" smooth="yes"/>
      <point x="227" y="134"/>
      <point x="200" y="110"/>
      <point x="200" y="67" type="curve" smooth="yes"/>
      <point x="200" y="22"/>
      <point x="239" y="-5"/>
      <point x="320" y="-5" type="curve" smooth="yes"/>
      <point x="434" y="-5"/>
      <point x="518" y="83"/>
      <point x="518" y="197" type="curve" smooth="yes"/>
      <point x="518" y="283"/>
      <point x="453" y="356"/>
      <point x="346" y="371" type="curve"/>
      <point x="448" y="413"/>
      <point x="510" y="487"/>
      <point x="510" y="562" type="curve" smooth="yes"/>
      <point x="510" y="649"/>
      <point x="441" y="686"/>
      <point x="344" y="686" type="curve" smooth="yes"/>
      <point x="230" y="686"/>
      <point x="151" y="629"/>
      <point x="135" y="515" type="curve" smooth="yes"/>
      <point x="69" y="62" type="line" smooth="yes"/>
      <point x="53" y="-48"/>
      <point x="60" y="-171"/>
      <point x="-13" y="-171" type="curve" smooth="yes"/>
      <point x="-32" y="-171"/>
      <point x="-40" y="-158"/>
      <point x="-40" y="-143" type="curve" smooth="yes"/>
      <point x="-40" y="-131"/>
      <point x="-34" y="-118"/>
      <point x="-23" y="-112" type="curve"/>
      <point x="-28" y="-88"/>
      <point x="-49" y="-76"/>
      <point x="-71" y="-76" type="curve" smooth="yes"/>
      <point x="-100" y="-76"/>
      <point x="-130" y="-97"/>
      <point x="-130" y="-142" type="curve" smooth="yes"/>
      <point x="-130" y="-190"/>
      <point x="-89" y="-219"/>
      <point x="-32" y="-219" type="curve" smooth="yes"/>
      <point x="114" y="-219"/>
      <point x="138" y="-55"/>
      <point x="154" y="59" type="curve" smooth="yes"/>
    </contour>
  </outline>
</glyph>
<glyph name="aacute" format="1">
  <advance width="526"/>
  <unicode hex="00E1"/>
  <outline>
    <contour>
      <point x="306" y="45" type="curve" smooth="yes"/>
      <point x="306" y="16"/>
      <point x="312" y="-7"/>
      <point x="362" y="-7" type="curve" smooth="yes"/>
      <point x="402" y="-7"/>
      <point x="454" y="30"/>
      <point x="476" y="49" type="curve"/>
      <point x="466" y="81" type="line"/>
      <point x="461" y="78"/>
      <point x="433" y="62"/>
      <point x="415" y="62" type="curve" smooth="yes"/>
      <point x="401" y="62"/>
      <point x="394" y="66"/>
      <point x="394" y="77" type="curve" smooth="yes"/>
      <point x="394" y="79"/>
      <point x="396" y="91"/>
      <point x="397" y="99" type="curve" smooth="yes"/>
      <point x="456" y="462" type="line"/>
      <point x="427" y="476" type="line"/>
      <point x="376" y="452" type="line"/>
      <point x="337" y="470"/>
      <point x="300" y="478"/>
      <point x="267" y="478" type="curve" smooth="yes"/>
      <point x="123" y="478"/>
      <point x="40" y="324"/>
      <point x="40" y="172" type="curve" smooth="yes"/>
      <point x="40" y="69"/>
      <point x="65" y="-7"/>
      <point x="167" y="-7" type="curve" smooth="yes"/>
      <point x="231" y="-7"/>
      <point x="283" y="52"/>
      <point x="314" y="98" type="curve"/>
      <point x="309" y="72"/>
      <point x="306" y="53"/>
    </contour>
    <contour>
      <point x="193" y="45" type="curve" smooth="yes"/>
      <point x="146" y="45"/>
      <point x="129" y="101"/>
      <point x="129" y="171" type="curve" smooth="yes"/>
      <point x="129" y="273"/>
      <point x="185" y="430"/>
      <point x="287" y="430" type="curve" smooth="yes"/>
      <point x="309" y="430"/>
      <point x="334" y="423"/>
      <point x="360" y="406" type="curve"/>
      <point x="343" y="301" type="line" smooth="yes"/>
      <point x="318" y="145"/>
      <point x="245" y="45"/>
    </contour>
    <contour>
      <point x="274" y="506" type="line"/>
      <point x="396" y="590" type="line" smooth="yes"/>
      <point x="414" y="603"/>
      <point x="419" y="614"/>
      <point x="419" y="629" type="curve" smooth="yes"/>
      <point x="419" y="649"/>
      <point x="402" y="663"/>
      <point x="385" y="663" type="curve" smooth="yes"/>
      <point x="370" y="663"/>
      <point x="360" y="659"/>
      <point x="349" y="647" type="curve" smooth="yes"/>
      <point x="252" y="531" type="line"/>
    </contour>
  </outline>
</glyph>
<glyph name="acircumflex" format="1">
  <advance width="526"/>
  <unicode hex="00E2"/>
  <outline>
    <contour>
      <point x="306" y="45" type="curve" smooth="yes"/>
      <point x="306" y="16"/>
      <point x="312" y="-7"/>
      <point x="362" y="-7" type="curve" smooth="yes"/>
      <point x="402" y="-7"/>
      <point x="454" y="30"/>
      <point x="476" y="49" type="curve"/>
      <point x="466" y="81" type="line"/>
      <point x="461" y="78"/>
      <point x="433" y="62"/>
      <point x="415" y="62" type="curve" smooth="yes"/>
      <point x="401" y="62"/>
      <point x="394" y="66"/>
      <point x="394" y="77" type="curve" smooth="yes"/>
      <point x="394" y="79"/>
      <point x="396" y="91"/>
      <point x="397" y="99" type="curve" smooth="yes"/>
      <point x="456" y="462" type="line"/>
      <point x="427" y="476" type="line"/>
      <point x="376" y="452" type="line"/>
      <point x="337" y="470"/>
      <point x="300" y="478"/>
      <point x="267" y="478" type="curve" smooth="yes"/>
      <point x="123" y="478"/>
      <point x="40" y="324"/>
      <point x="40" y="172" type="curve" smooth="yes"/>
      <point x="40" y="69"/>
      <point x="65" y="-7"/>
      <point x="167" y="-7" type="curve" smooth="yes"/>
      <point x="231" y="-7"/>
      <point x="283" y="52"/>
      <point x="314" y="98" type="curve"/>
      <point x="309" y="72"/>
      <point x="306" y="53"/>
    </contour>
    <contour>
      <point x="193" y="45" type="curve" smooth="yes"/>
      <point x="146" y="45"/>
      <point x="129" y="101"/>
      <point x="129" y="171" type="curve" smooth="yes"/>
      <point x="129" y="273"/>
      <point x="185" y="430"/>
      <point x="287" y="430" type="curve" smooth="yes"/>
      <point x="309" y="430"/>
      <point x="334" y="423"/>
      <point x="360" y="406" type="curve"/>
      <point x="343" y="301" type="line" smooth="yes"/>
      <point x="318" y="145"/>
      <point x="245" y="45"/>
    </contour>
    <contour>
      <point x="425" y="530" type="line"/>
      <point x="349" y="637" type="line" smooth="yes"/>
      <point x="341" y="648"/>
      <point x="332" y="653"/>
      <point x="320" y="653" type="curve" smooth="yes"/>
      <point x="308" y="653"/>
      <point x="297" y="647"/>
      <point x="287" y="637" type="curve" smooth="yes"/>
      <point x="178" y="530" type="line"/>
      <point x="199" y="506" type="line"/>
      <point x="311" y="581" type="line"/>
      <point x="399" y="506" type="line"/>
    </contour>
  </outline>
</glyph>
<glyph name="atilde" format="1">
  <advance width="526"/>
  <unicode hex="00E3"/>
  <outline>
    <contour>
      <point x="306" y="45" type="curve" smooth="yes"/>
      <point x="306" y="16"/>
      <point x="312" y="-7"/>
      <point x="362" y="-7" type="curve" smooth="yes"/>
      <point x="402" y="-7"/>
      <point x="454" y="30"/>
      <point x="476" y="49" type="curve"/>
      <point x="466" y="81" type="line"/>
      <point x="461" y="78"/>
      <point x="433" y="62"/>
      <point x="415" y="62" type="curve" smooth="yes"/>
      <point x="401" y="62"/>
      <point x="394" y="66"/>
      <point x="394" y="77" type="curve" smooth="yes"/>
      <point x="394" y="79"/>
      <point x="396" y="91"/>
      <point x="397" y="99" type="curve" smooth="yes"/>
      <point x="456" y="462" type="line"/>
      <point x="427" y="476" type="line"/>
      <point x="376" y="452" type="line"/>
      <point x="337" y="470"/>
      <point x="300" y="478"/>
      <point x="267" y="478" type="curve" smooth="yes"/>
      <point x="123" y="478"/>
      <point x="40" y="324"/>
      <point x="40" y="172" type="curve" smooth="yes"/>
      <point x="40" y="69"/>
      <point x="65" y="-7"/>
      <point x="167" y="-7" type="curve" smooth="yes"/>
      <point x="231" y="-7"/>
      <point x="283" y="52"/>
      <point x="314" y="98" type="curve"/>
      <point x="309" y="72"/>
      <point x="306" y="53"/>
    </contour>
    <contour>
      <point x="193" y="45" type="curve" smooth="yes"/>
      <point x="146" y="45"/>
      <point x="129" y="101"/>
      <point x="129" y="171" type="curve" smooth="yes"/>
      <point x="129" y="273"/>
      <point x="185" y="430"/>
      <point x="287" y="430" type="curve" smooth="yes"/>
      <point x="309" y="430"/>
      <point x="334" y="423"/>
      <point x="360" y="406" type="curve"/>
      <point x="343" y="301" type="line" smooth="yes"/>
      <point x="318" y="145"/>
      <point x="245" y="45"/>
    </contour>
    <contour>
      <point x="187" y="532" type="curve"/>
      <point x="208" y="551"/>
      <point x="230" y="569"/>
      <point x="255" y="569" type="curve" smooth="yes"/>
      <point x="294" y="569"/>
      <point x="316" y="533"/>
      <point x="362" y="533" type="curve" smooth="yes"/>
      <point x="410" y="533"/>
      <point x="454" y="587"/>
      <point x="470" y="613" type="curve"/>
      <point x="462" y="621"/>
      <point x="454" y="628"/>
      <point x="440" y="633" type="curve"/>
      <point x="419" y="614"/>
      <point x="397" y="594"/>
      <point x="370" y="594" type="curve" smooth="yes"/>
      <point x="333" y="594"/>
      <point x="309" y="630"/>
      <point x="267" y="630" type="curve" smooth="yes"/>
      <point x="215" y="630"/>
      <point x="173" y="578"/>
      <point x="158" y="552" type="curve"/>
      <point x="165" y="544"/>
      <point x="173" y="536"/>
    </contour>
  </outline>
</glyph>
<glyph name="aring" format="1">
  <advance width="526"/>
  <unicode hex="00E5"/>
  <outline>
    <contour>
      <point x="306" y="45" type="curve" smooth="yes"/>
      <point x="306" y="16"/>
      <point x="312" y="-7"/>
      <point x="362" y="-7" type="curve" smooth="yes"/>
      <point x="402" y="-7"/>
      <point x="454" y="30"/>
      <point x="476" y="49" type="curve"/>
      <point x="466" y="81" type="line"/>
      <point x="461" y="78"/>
      <point x="433" y="62"/>
      <point x="415" y="62" type="curve" smooth="yes"/>
      <point x="401" y="62"/>
      <point x="394" y="66"/>
      <point x="394" y="77" type="curve" smooth="yes"/>
      <point x="394" y="79"/>
      <point x="396" y="91"/>
      <point x="397" y="99" type="curve" smooth="yes"/>
      <point x="456" y="462" type="line"/>
      <point x="427" y="476" type="line"/>
      <point x="376" y="452" type="line"/>
      <point x="337" y="470"/>
      <point x="300" y="478"/>
      <point x="267" y="478" type="curve" smooth="yes"/>
      <point x="123" y="478"/>
      <point x="40" y="324"/>
      <point x="40" y="172" type="curve" smooth="yes"/>
      <point x="40" y="69"/>
      <point x="65" y="-7"/>
      <point x="167" y="-7" type="curve" smooth="yes"/>
      <point x="231" y="-7"/>
      <point x="283" y="52"/>
      <point x="314" y="98" type="curve"/>
      <point x="309" y="72"/>
      <point x="306" y="53"/>
    </contour>
    <contour>
      <point x="193" y="45" type="curve" smooth="yes"/>
      <point x="146" y="45"/>
      <point x="129" y="101"/>
      <point x="129" y="171" type="curve" smooth="yes"/>
      <point x="129" y="273"/>
      <point x="185" y="430"/>
      <point x="287" y="430" type="curve" smooth="yes"/>
      <point x="309" y="430"/>
      <point x="334" y="423"/>
      <point x="360" y="406" type="curve"/>
      <point x="343" y="301" type="line" smooth="yes"/>
      <point x="318" y="145"/>
      <point x="245" y="45"/>
    </contour>
    <contour>
      <point x="297" y="505" type="curve" smooth="yes"/>
      <point x="354" y="505"/>
      <point x="397" y="548"/>
      <point x="397" y="602" type="curve" smooth="yes"/>
      <point x="397" y="642"/>
      <point x="369" y="670"/>
      <point x="324" y="670" type="curve" smooth="yes"/>
      <point x="268" y="670"/>
      <point x="224" y="628"/>
      <point x="224" y="573" type="curve" smooth="yes"/>
      <point x="224" y="533"/>
      <point x="250" y="505"/>
    </contour>
    <contour>
      <point x="304" y="544" type="curve" smooth="yes"/>
      <point x="281" y="544"/>
      <point x="266" y="561"/>
      <point x="266" y="581" type="curve" smooth="yes"/>
      <point x="266" y="607"/>
      <point x="292" y="632"/>
      <point x="318" y="632" type="curve" smooth="yes"/>
      <point x="340" y="632"/>
      <point x="355" y="615"/>
      <point x="355" y="594" type="curve" smooth="yes"/>
      <point x="355" y="568"/>
      <point x="331" y="544"/>
    </contour>
  </outline>
</glyph>
